/* XPM */
static char * W_237_NO_xpm[] = {
"128 128 8 1",
" 	c #AAAC99",
".	c #E3E5CC",
"+	c #FFD875",
"@	c #FAAB3C",
"#	c #85B17C",
"$	c #80A977",
"%	c #607C59",
"&	c #000000",
"                                                                                                                                ",
"................................................................................................................................",
"................................................................................................................................",
"................................................................................................................................",
"................................................................................................................................",
"................................................................................................................................",
"................................................................................................................................",
"................................................................................................................................",
"................................................................................................................................",
"................................................................................................................................",
"................................................................................................................................",
"................................................................................................................................",
"................................................................................................................................",
"................................................................................................................................",
"................................................................................................................................",
"..................++++++++++++++++++++++++++++++++++++++++++++++++++++++++++++++++++++++++++++++++++++++++++++..................",
"...............++++++++++++++++++++++++++++++++++++++++++++++++++++++++++++++++++++++++++++++++++++++++++++++++++...............",
".............++++++++++++++++++++++++++++++++++++++++++++++++++++++++++++++++++++++++++++++++++++++++++++++++++++++.............",
"...........++++++++++++++++++++++++++++++++++++++++++++++++++++++++++++++++++++++++++++++++++++++++++++++++++++++++++...........",
"..........++++++++++++++++++++++++++++++++++++++++++++++++++++++++++++++++++++++++++++++++++++++++++++++++++++++++++++..........",
".........++++++++++++++++++++++++++++++++++++++++++++++++++++++++++++++++++++++++++++++++++++++++++++++++++++++++++++++.........",
"........++++++++++++++++++++++++++++++++++++++++++++++++++++++++++++++++++++++++++++++++++++++++++++++++++++++++++++++++........",
".......++++++++++++@@@@@@@@@@@@@@@@@@@@@@@@@@@@@@@@@@@@@@@@@@@@@@@@@@@@@@@@@@@@@@@@@@@@@@@@@@@@@@@@@@@@@@@@@@++++++++++++.......",
".......+++++++++@@@+##################$###$$##$$##$#####$##$##$#$$####$#$$########$##$######################+@@++++++++++.......",
"......+++++++++@++##############$##$####$$$$$$$###$##$$######$##$$###$$##$#$#########$##################$##$###@@+++++++++......",
".....+++++++++@+$##$##$$##$##$##$#####$$$$$####$######$##$###$####$$#######$$$##########$##$##$$##$##$##$#####$$+@+++++++++.....",
".....++++++++@+####$##$$##$##########$$$####$$$$$#$###############$$###########$$##########$##$$##$##########$$$#+@++++++++.....",
".....+++++++@+####################$$$$#$########$#$##$##$$##$##$$##########$####$#$$######################$$$$#$##+@+++++++.....",
"....++++++++@$#$##############$$$#$$$$##$$#$#$$$$####$##$$##$#########$##$#####$$##$$$#$##############$$$#$$$$##$$#@++++++++....",
"....+++++++@+##$$#$$#$$#$$#$#$$$$##########$#$$#$$$###############$$##########$#####$##$$#$$#$$#$$#$#$$$$##########+@+++++++....",
"....+++++++@######$$$#$$$$$#$$##$######$$########$##$$#$$##$###$############$#$##$$#######$$$#$$$$$#$$##$######$$###@+++++++....",
"...++++++++@##$######$##$$#######$$########$######$#####$##$#############$##$####$$###$######$##$$#######$$########$@++++++++...",
"...+++++++@+#####$####$#$$#####$##$#$######$##$##$$$###############$$#$##$###############$####$#$$#####$##$#$######$+@+++++++...",
"...+++++++@$$########$$$##$#########$##############$$$$##$$##$##$$#$$##########$###$$########$$$##$#########$########@+++++++...",
"...+++++++@$$##$####$$#$$########$#####$$#$$####$$#$#$$##$$##$##############$######$$##$####$$#$$########$#####$$#$$#@+++++++...",
"...+++++++@#######$$$$$##$##$#######$$####$$##$#$$###$$##################$##$###$$########$$$$$##$##$#######$$####$$#@+++++++...",
"...+++++++@#$$###$$#######$###$#####$$##$$#############$##$##$$$$#$#$$###$######$$##$$###$$#######$###$#####$$##$$###@+++++++...",
"...+++++++@$###$$#######$$$$$###$$######$$##$$########$$$$###$$#$##########$#$####$$###$$#######$$$$$###$$######$$##$@+++++++...",
"...+++++++@###$$$###$$#####$$$#####$$#######$$#$$##$##$##$########$##$$###$$###$$#####$$$###$$#####$$$#####$$#######$@+++++++...",
"...+++++++@##$#$$$##########$#$$$##$$###########$#######$$$$$#$$##$############$$####$#$$$##########$#$$$##$$########@+++++++...",
"...+++++++@#$$##########$$#####$$#$####$###$#########$$#$#$$$#$$$####$$##$$#$$######$$##########$$#####$$#$####$###$#@+++++++...",
"...+++++++@$#$$####$####$$########$$$$#####$###$$#$$########$$$$$#$$#$$##$$########$#$$####$####$$########$$$$#####$#@+++++++...",
"...+++++++@#################$######$##$#$#$$############$##$#$$#$##############$$$##################$######$##$#$#$$#@+++++++...",
"...+++++++@#####$######$$###$####$##$###$$$$$$$$#$#$$$$$$$$$####$$$#########$$$$$#$#####$######$$###$####$##$###$$$$$@+++++++...",
"...+++++++@################$$###########$$##$$$$$$$$$$$$$$$$##$##$$$#$###$#$######$################$$###########$$##$@+++++++...",
"...+++++++@########$$######$$##$##$$##$######$#$###$###$$#$######$###$$#####$##############$$######$$##$##$$##$######@+++++++...",
"...+++++++@##$$################$##$$########$##$##$#$$#$$###$$###$##########$########$$################$##$$########$@+++++++...",
"...+++++++@######$#####$#################$$#$$####$#$$####$$##$#$##############$$########$#####$#################$$#$@+++++++...",
"...+++++++@######$#########$##########$$#$$#$$$#$$######$$$$##$#$###$##########$$########$#########$##########$$#$$#$@+++++++...",
"...+++++++@$########$$########$$##$$##$$####$###$$#$##$#$$##$#####$####$##########$$########$$########$$##$$##$$####$@+++++++...",
"...+++++++@#############$$###############$#$$###############$#####$########$####################$$###############$#$$@+++++++...",
"...+++++++@###$$########$$##$##$##$$##$##$#$$#$#$$#######$$#####$##########$##########$$########$$##$##$##$$##$##$#$$@+++++++...",
"...+++++++@#######$#########$##$##$$#######$####$$#$###$#####$$######$########$$##########$#########$##$##$$#######$#@+++++++...",
"...+++++++@$######$########################$#$#############$######$$#$$#$$########$$######$########################$#@+++++++...",
"...+++++++@$##########$$############$##$##$$#$#$$#######$##$######$$#####$########$$##########$$############$##$##$$#@+++++++...",
"...+++++++@###$############$###$$###$#####$$####$#$$#$$#########$$##$###$$$#$#########$############$###$$###$#####$$#@+++++++...",
"...+++++++@########$#######################$########################$####$$$$$#############$#######################$#@+++++++...",
"...+++++++@###########$$##############$##$$##################$$#########$#$#$##$$#############$$##############$##$$##@+++++++...",
"...+++++++@$$#############$$##$$##$###$##$$$$#############$$######$#####$#####$$$#$$$#############$$##$$##$###$##$$$$@+++++++...",
"...+++++++@$$$##$#######################$$##$##$$##$$##$############$#####$####$#$$$$$##$#######################$$##$@+++++++...",
"...+++++++@$$###$$$$$#$$#############$#$$$#####################$####$###$###$$##$#$$$###$$$$$#$$#############$#$$$###@+++++++...",
"...+++++++@#####$$#$$#$$$#$$$$$$$$$$#$##$$$################$####$$########$$####$#######$$#$$#$$$#$$$$$$$$$$#$##$$$##@+++++++...",
"...+++++++@########$$##$###$$#$$#$$$##$$#$$#$##$########$#######$$##$######$##$###$########$$##$###$$#$$#$$$##$$#$$#$@+++++++...",
"++++++++++@###$$###########$##$$######$#$###$##$###$$########$######$###$$##$#####$###$$###########$##$$######$#$###$@++++++++++",
"++++++++++@##$$##$####$##$$##$$##$###$$###$$#$$#$###$#####$##$##$$####$##$$#$###$####$$##$####$##$$##$$##$###$$###$$#@++++++++++",
"++++++++++@$$######$$#######$##$###$$$###$$########$$#$#######$$###$$######$$#$####$$######$$#######$##$###$$$###$$##@++++++++++",
"++++++++++@$$#$####$$#######$##$######$$##$#$##$#$$$$###$#$$##$$###$$#####$$$#$####$$#$####$$#######$##$######$$##$#$@++++++++++",
"++++++++++@#######$####$$####$####$$#####$##$$#$$####$$#$####$####$#######$#$$###$$#######$####$$####$####$$#####$##$@++++++++++",
"++++++++++@$$####$$####$$#$$#$###$##$#######$$#$$#$$#$$###$#####$$$##$$###$$#$#$###$$####$$####$$#$$#$###$##$#######$@++++++++++",
"++++++++++@###$$####$$#########$$$#$#$$#################$#####$#$$#$$###$$$$###$######$$####$$#########$$$#$#$$######@++++++++++",
"@@@@@@@@@@@###$$#######$######$$$##$#$#$$#$##$#$$#$##$$####$$#$####$$########$###$$###$$#######$######$$$##$#$#$$#$##@@@@@@@@@@@",
"$#$$#######$#####$#####$#$$##$$$$$###$#$$#$##$#$$#$########$$###$####$$#$#$$#######$#####$#####$#$$##$$$$$###$#$$#$##$#$$#$#####",
"$######$###$##$##$#$$######$#$#$##$$###$$$$###########$#$$###$$######$$#$######$###$##$##$#$$######$#$#$##$$###$$$$###########$#",
"####$#########$####$$#$$##$$$####$#$$$####$##$$#$##$##$####$######$$#$$#####$#########$####$$#$$##$$$####$#$$$####$##$$#$##$##$#",
"#$##$##$$#$######$##$$###$$$$#$$#$#$$$#$#####$$#########$##$###$$########$##$##$$#$######$##$$###$$$$#$$#$#$$$#$#####$$#########",
"#$####$###$######$##$$##$$$$##$$$$#$$#$$##$##########$$#$###$$#$$########$####$###$######$##$$##$$$$##$$$$#$$#$$##$##########$$#",
"##$##########$##$$#####$$##$#$$#$$$$##$$#$$##$#$$##$##$#####$$##$$##$$####$##########$##$$#####$$##$#$$#$$$$##$$#$$##$#$$##$##$#",
"##$#####$$###$##$$###$$$#$$#$$$#$##$#$###$##$$########$##$$###$###########$#####$$###$##$$###$$$#$$#$$$#$##$#$###$##$$########$#",
"#########$###$####$$#$#$$###$$$#$#$$#$#$$####$#$$#$$##$####$$########$###########$###$####$$#$#$$###$$$#$#$$#$#$$####$#$$#$$##$#",
"#$$#$$####$$#$###$$$#$####$#$$$$$#$$###$$#$##$########$$#$#$$#####$##$###$$#$$####$$#$###$$$#$####$#$$$$$#$$###$$#$##$########$$",
"#$$####$##$$###$$$$$####$####$#$$$###$$######$#$$##$##$$#$####$##########$$####$##$$###$$$$$####$####$#$$$###$$######$#$$##$##$$",
"#$#$$##$#####$$$$#$$####$##$##$#$$$$#####$#################$$#$##########$#$$##$#####$$$$#$$####$##$##$#$$$$#####$##############",
"#$########$$$$$##$###$#$###$##$###$$$$#######$##$$###$$#$$#$$###$###$$###$########$$$$$##$###$#$###$##$###$$$$#######$##$$###$$#",
"######$$$$$$#####$#####$######$#$$$$#$$$$#####$###$$#$$$##$$#$##$###$$$#######$$$$$$#####$#####$######$#$$$$#$$$$#####$###$$#$$$",
"###$#$#$##$$#######$$####$$$$#$#$$####$#$#$##$####$$###$##$$###$$$$##$$$###$#$#$##$$#######$$####$$$$#$#$$####$#$#$##$####$$###$",
"#$#$########$########$$#############$#$#$$$$#$$$$$$##$$$$####$$#$##$###$#$#$########$########$$#############$#$#$$$$#$$$$$$##$$$",
"#$$###$#######$#########$#$$###$$#$#$#$$$$$$$####$$#$$$$$$$$####$##$#$$$#$$###$#######$#########$#$$###$$#$#$#$$$$$$$####$$#$$$$",
"$#######$$####$#$$########$$#$#$$#####$$##$####$#$$$##$$$$#$$$$$$$$$#$##$#######$$####$#$$########$$#$#$$#####$$##$####$#$$$##$$",
"########$$#######$#$$############$$#$#####$#$$####$##$#$####$$#$$$###$$#########$$#######$#$$############$$#$#####$#$$####$##$#$",
"#$########$$##########$##$$#$##$#$$####$$###$$###$#####$#$$####$$$#######$########$$##########$##$$#$##$#$$####$$###$$###$#####$",
"$$#$#########$$##########$$#$##$#####$####$#####$##$$##########$$$$#####$$#$#########$$##########$$#$##$#####$####$#####$##$$###",
"###$#########$$#$#################$$#$####$###$##$$####$#$$#$$#$##$$$######$#########$$#$#################$$#$####$###$##$$####$",
"#####$#$########$##$##$#####$##$$#$$####$$###$$##$$#############$$#$$########$#$########$##$##$#####$##$$#$$####$$###$$##$$#####",
"#######$##$###########$##$##$##$$#####$#####$$#$#####$##$##$##$#$$#$$$$########$##$###########$##$##$##$$#####$#####$$#$#####$##",
"$$########$##$########################$###$$##$$##$#####$##$##$#$$####$#$$########$##$########################$###$$##$$##$#####",
"#$#$#########$##################$##$####$$$$$$$###$##$$######$##$$###$$##$#$#########$##################$##$####$$$$$$$###$##$$#",
"###$$$##########$##$##$$##$##$##$#####$$$$$####$######$##$###$####$$#######$$$##########$##$##$$##$##$##$#####$$$$$####$######$#",
"#######$$##########$##$$##$##########$$$####$$$$$#$###############$$###########$$##########$##$$##$##########$$$####$$$$$#$#####",
"###$####$#$$######################$$$$#$########$#$##$##$$##$##$$##########$####$#$$######################$$$$#$########$#$##$##",
"#$#####$$##$$$#$##############$$$#$$$$##$$#$#$$$$####$##$$##$#########$##$#####$$##$$$#$##############$$$#$$$$##$$#$#$$$$####$##",
"######$#####$##$$#$$#$$#$$#$#$$$$##########$#$$#$$$###############$$##########$#####$##$$#$$#$$#$$#$#$$$$##########$#$$#$$$#####",
"####$#$##$$#######$$$#$$$$$#$$##$######$$########$##$$#$$##$###$############$#$##$$#######$$$#$$$$$#$$##$######$$########$##$$#$",
"#$##$####$$###$######$##$$#######$$########$######$#####$##$#############$##$####$$###$######$##$$#######$$########$######$#####",
"#$###############$####$#$$#####$##$#$######$##$##$$$###############$$#$##$###############$####$#$$#####$##$#$######$##$##$$$####",
"#######$###$$########$$$##$#########$##############$$$$##$$##$##$$#$$##########$###$$########$$$##$#########$##############$$$$#",
"####$######$$##$####$$#$$########$#####$$#$$####$$#$#$$##$$##$##############$######$$##$####$$#$$########$#####$$#$$####$$#$#$$#",
"#$##$###$$########$$$$$##$##$#######$$####$$##$#$$###$$##################$##$###$$########$$$$$##$##$#######$$####$$##$#$$###$$#",
"#$######$$##$$###$$#######$###$#####$$##$$#############$##$##$$$$#$#$$###$######$$##$$###$$#######$###$#####$$##$$#############$",
"###$#$####$$###$$#######$$$$$###$$######$$##$$########$$$$###$$#$##########$#$####$$###$$#######$$$$$###$$######$$##$$########$$",
"##$$###$$#####$$$###$$#####$$$#####$$#######$$#$$##$##$##$########$##$$###$$###$$#####$$$###$$#####$$$#####$$#######$$#$$##$##$#",
"#######$$####$#$$$##########$#$$$##$$###########$#######$$$$$#$$##$############$$####$#$$$##########$#$$$##$$###########$#######",
"#$$#$$######$$##########$$#####$$#$####$###$#########$$#$#$$$#$$$####$$##$$#$$######$$##########$$#####$$#$####$###$#########$$#",
"#$$########$#$$####$####$$########$$$$#####$###$$#$$########$$$$$#$$#$$##$$########$#$$####$####$$########$$$$#####$###$$#$$####",
"#######$$$##################$######$##$#$#$$############$##$#$$#$##############$$$##################$######$##$#$#$$############",
"####$$$$$#$#####$######$$###$####$##$###$$$$$$$$#$#$$$$$$$$$####$$$#########$$$$$#$#####$######$$###$####$##$###$$$$$$$$#$#$$$$$",
"#$#$######$################$$###########$$##$$$$$$$$$$$$$$$$##$##$$$#$###$#$######$################$$###########$$##$$$$$$$$$$$$",
"####$##############$$######$$##$##$$##$######$#$###$###$$#$######$###$$#####$##############$$######$$##$##$$##$######$#$###$###$",
"####$########$$################$##$$########$##$##$#$$#$$###$$###$##########$########$$################$##$$########$##$##$#$$#$",
"#######$$########$#####$#################$$#$$####$#$$####$$##$#$##############$$########$#####$#################$$#$$####$#$$##",
"#######$$########$#########$##########$$#$$#$$$#$$######$$$$##$#$###$##########$$########$#########$##########$$#$$#$$$#$$######",
"%%%%%%%%%%%%%%%%%%%%%%%%%%%%%%%%%%%%%%%%%%%%%%%%%%%%%%%%%%%%%%%%%%%%%%%%%%%%%%%%%%%%%%%%%%%%%%%%%%%%%%%%%%%%%%%%%%%%%%%%%%%%%%%%",
"&&&&&&&&&&&&&&&&&&&&&&&&&&&&&&&&&&&&&&&&&&&&&&&&&&&&&&&&&&&&&&&&&&&&&&&&&&&&&&&&&&&&&&&&&&&&&&&&&&&&&&&&&&&&&&&&&&&&&&&&&&&&&&&&",
"&&&&&&&&&&&&&&&&&&&&&&&&&&&&&&&&&&&&&&&&&&&&&&&&&&&&&&&&&&&&&&&&&&&&&&&&&&&&&&&&&&&&&&&&&&&&&&&&&&&&&&&&&&&&&&&&&&&&&&&&&&&&&&&&",
"&&&&&&&&&&&&&&&&&&&&&&&&&&&&&&&&&&&&&&&&&&&&&&&&&&&&&&&&&&&&&&&&&&&&&&&&&&&&&&&&&&&&&&&&&&&&&&&&&&&&&&&&&&&&&&&&&&&&&&&&&&&&&&&&",
"&&&&&&&&&&&&&&&&&&&&&&&&&&&&&&&&&&&&&&&&&&&&&&&&&&&&&&&&&&&&&&&&&&&&&&&&&&&&&&&&&&&&&&&&&&&&&&&&&&&&&&&&&&&&&&&&&&&&&&&&&&&&&&&&",
"&&&&&&&&&&&&&&&&&&&&&&&&&&&&&&&&&&&&&&&&&&&&&&&&&&&&&&&&&&&&&&&&&&&&&&&&&&&&&&&&&&&&&&&&&&&&&&&&&&&&&&&&&&&&&&&&&&&&&&&&&&&&&&&&",
"&&&&&&&&&&&&&&&&&&&&&&&&&&&&&&&&&&&&&&&&&&&&&&&&&&&&&&&&&&&&&&&&&&&&&&&&&&&&&&&&&&&&&&&&&&&&&&&&&&&&&&&&&&&&&&&&&&&&&&&&&&&&&&&&",
"&&&&&&&&&&&&&&&&&&&&&&&&&&&&&&&&&&&&&&&&&&&&&&&&&&&&&&&&&&&&&&&&&&&&&&&&&&&&&&&&&&&&&&&&&&&&&&&&&&&&&&&&&&&&&&&&&&&&&&&&&&&&&&&&"};
