/* XPM */
static char * W_237_WE_xpm[] = {
"128 128 8 1",
" 	c #BFBFBA",
".	c #FFFFF8",
"+	c #FFD875",
"@	c #FAAB3C",
"#	c #80A977",
"$	c #85B17C",
"%	c #607C59",
"&	c #000000",
"                                                                                                                                ",
"................................................................................................................................",
"................................................................................................................................",
"................................................................................................................................",
"................................................................................................................................",
"................................................................................................................................",
"................................................................................................................................",
"................................................................................................................................",
"................................................................................................................................",
"................................................................................................................................",
"................................................................................................................................",
"................................................................................................................................",
"................................................................................................................................",
"................................................................................................................................",
"................................................................................................................................",
"................................................................................................................................",
"................................................................................................................................",
"................................................................................................................................",
"................................................................................................................................",
"................................................................................................................................",
"................................................................................................................................",
"................................................................................................................................",
"................................................................................................................................",
"................................................................................................................................",
"................................................................................................................................",
"................................................................................................................................",
"................................................................................................................................",
"................................................................................................................................",
"................................................................................................................................",
"................................................................................................................................",
"................................................................................................................................",
"................................................................................................................................",
"................................................................................................................................",
"................................................................................................................................",
"................................................................................................................................",
"................................................................................................................................",
"................................................................................................................................",
"................................................................................................................................",
"................................................................................................................................",
"................................................................................................................................",
"................................................................................................................................",
"................................................................................................................................",
"................................................................................................................................",
"................................................................................................................................",
"................................................................................................................................",
"................................................................................................................................",
"................................................................................................................................",
"................................................................................................................................",
"................................................................................................................................",
"................................................................................................................................",
"................................................................................................................................",
"................................................................................................................................",
"................................................................................................................................",
"................................................................................................................................",
"................................................................................................................................",
"................................................................................................................................",
"................................................................................................................................",
"................................................................................................................................",
"................................................................................................................................",
"................................................................................................................................",
"................................................................................................................................",
"................................................................................................................................",
"................................................................................................................................",
"++++++++++++++++++++++++++++++++++++++++++++++++++++++++++++++++++++++++++++++++++++++++++++++++++++++++++++++++++++++++++++++++",
"++++++++++++++++++++++++++++++++++++++++++++++++++++++++++++++++++++++++++++++++++++++++++++++++++++++++++++++++++++++++++++++++",
"++++++++++++++++++++++++++++++++++++++++++++++++++++++++++++++++++++++++++++++++++++++++++++++++++++++++++++++++++++++++++++++++",
"++++++++++++++++++++++++++++++++++++++++++++++++++++++++++++++++++++++++++++++++++++++++++++++++++++++++++++++++++++++++++++++++",
"++++++++++++++++++++++++++++++++++++++++++++++++++++++++++++++++++++++++++++++++++++++++++++++++++++++++++++++++++++++++++++++++",
"++++++++++++++++++++++++++++++++++++++++++++++++++++++++++++++++++++++++++++++++++++++++++++++++++++++++++++++++++++++++++++++++",
"++++++++++++++++++++++++++++++++++++++++++++++++++++++++++++++++++++++++++++++++++++++++++++++++++++++++++++++++++++++++++++++++",
"@@@@@@@@@@@@@@@@@@@@@@@@@@@@@@@@@@@@@@@@@@@@@@@@@@@@@@@@@@@@@@@@@@@@@@@@@@@@@@@@@@@@@@@@@@@@@@@@@@@@@@@@@@@@@@@@@@@@@@@@@@@@@@@@",
"#$#$$$$##$$$$$$##$$$$$$$#$$#$$$###$$$##$$$$$$$$##$#$$$$$$$##$$$##$$$$$$##$#$$$$##$$$$$$##$$$$$$$#$$#$$$###$$$##$$$$$$$$##$#$$$$$",
"#$#$$$$##$#$$$$##$$$$$$$#$$#$$$$$$##$$#$#$$#$####$$$#$##$$##$$$##$$$$$###$#$$$$##$#$$$$##$$$$$$$#$$#$$$$$$##$$#$#$$#$####$$$#$##",
"##$$$##$$$$$$$#$$$$##$$$$#$$$$##$$$$$#$$##$##$$$$##$#$$$$#$$$$#$$$$$$$#$##$$$##$$$$$$$#$$$$##$$$$#$$$$##$$$$$#$$##$##$$$$##$#$$$",
"$#$#$$$##$$$$##$$$$##$##$#$$$#$$#$$$$$$$##$##$##$##$$$#$$$$$###$$##$$$##$#$#$$$##$$$$##$$$$##$##$#$$$#$$#$$$$$$$##$##$##$##$$$#$",
"$$$#$$$$$$##$$$$##$$$$$$$$$###$#$##$$$$$$$$$$$$$$$$$#$$$$$#$##$##$$$####$$$#$$$$$$##$$$$##$$$$$$$$$###$#$##$$$$$$$$$$$$$$$$$#$$$",
"$#$$$##$$$##$$$$$$$#$$$$$$###$$#$#$##$#$$#$##$#$$##$$$$##$#$$$$##$$$$$$$$#$$$##$$$##$$$$$$$#$$$$$$###$$#$#$##$#$$#$##$#$$##$$$$#",
"$$$$$$$#$$$$$#$$$$$#$##$$#####$$$#$##$#$$#$##$#$$$$$$$$##$$$#$$$$##$#$##$$$$$$$#$$$$$#$$$$$#$##$$#####$$$#$##$#$$#$##$#$$$$$$$$#",
"$$$#$$$#$$#$$#$##$$$$$$#$#$#$$##$$$####$$$$$$$$$$$#$##$$$##$$$$$$##$#$$$$$$#$$$#$$#$$#$##$$$$$$#$#$#$$##$$$####$$$$$$$$$$$#$##$$",
"#$$$$$$$$$#$$$$##$##$$###$$$$#$###$$$$#$$##$#$$#$$#$$$$#$$$$$$##$##$$$$$#$$$$$$$$$#$$$$##$##$$###$$$$#$###$$$$#$$##$#$$#$$#$$$$#",
"#$$##$#$$$$$$#$$##$$$####$##$#$###$#$$$$$##$$$$$$$$$#$$#$$$##$$$$$$$$#$$#$$##$#$$$$$$#$$##$$$####$##$#$###$#$$$$$##$$$$$$$$$#$$#",
"$$#$$$#$$$$$$#$$##$$####$$####$##$##$$#$$$$$$$$$$##$#$$$##$##$$$$$$$$#$$$$#$$$#$$$$$$#$$##$$####$$####$##$##$$#$$$$$$$$$$##$#$$$",
"$$$$$$$$$#$$##$$$$$##$$#$##$####$$##$##$$#$##$$#$$#$$$$$##$$##$$##$$$$#$$$$$$$$$$#$$##$$$$$##$$#$##$####$$##$##$$#$##$$#$$#$$$$$",
"$$$$##$$$#$$##$$$###$##$###$#$$#$#$$$#$$##$$$$$$$$#$$##$$$#$$$$$$$$$$$#$$$$$##$$$#$$##$$$###$##$###$#$$#$#$$$#$$##$$$$$$$$#$$##$",
"$$$$$#$$$#$$$$##$#$##$$$###$#$##$#$##$$$$#$##$##$$#$$$$##$$$$$$$$#$$$$$$$$$$$#$$$#$$$$##$#$##$$$###$#$##$#$##$$$$#$##$##$$#$$$$#",
"##$$$$##$#$$$###$#$$$$#$#####$##$$$##$#$$#$$$$$$$$##$#$##$$$$$#$$#$$$##$##$$$$##$#$$$###$#$$$$#$#####$##$$$##$#$$#$$$$$$$$##$#$#",
"$$$#$$##$$$#####$$$$#$$$$#$###$$$##$$$$$$#$##$$#$$##$#$$$$#$$$$$$$$$$##$$$$#$$##$$$#####$$$$#$$$$#$###$$$##$$$$$$#$##$$#$$##$#$$",
"#$$#$$$$$####$##$$$$#$$#$$#$####$$$$$#$$$$$$$$$$$$$$$$$##$#$$$$$$$$$$#$##$$#$$$$$####$##$$$$#$$#$$#$####$$$$$#$$$$$$$$$$$$$$$$$#",
"$$$$$$#####$$#$$$#$#$$$#$$#$$$####$$$$$$$#$$##$$$##$##$##$$$#$$$##$$$#$$$$$$$$#####$$#$$$#$#$$$#$$#$$$####$$$$$$$#$$##$$$##$##$#",
"$$######$$$$$#$$$$$#$$$$$$#$####$####$$$$$#$$$##$###$$##$#$$#$$$###$$$$$$$######$$$$$#$$$$$#$$$$$$#$####$####$$$$$#$$$##$###$$##",
"$#$#$$##$$$$$$$##$$$$####$#$##$$$$#$#$#$$#$$$$##$$$#$$##$$$####$$###$$$#$#$#$$##$$$$$$$##$$$$####$#$##$$$$#$#$#$$#$$$$##$$$#$$##",
"$$$$$$$$#$$$$$$$$##$$$$$$$$$$$$$#$#$####$######$$####$$$$##$#$$#$$$#$#$#$$$$$$$$#$$$$$$$$##$$$$$$$$$$$$$#$#$####$######$$####$$$",
"$$#$$$$$$$#$$$$$$$$$#$##$$$##$#$#$#######$$$$##$########$$$$#$$#$###$##$$$#$$$$$$$#$$$$$$$$$#$##$$$##$#$#$#######$$$$##$########",
"$$$$##$$$$#$##$$$$$$$$##$#$##$$$$$##$$#$$$$#$###$$####$#########$#$$#$$$$$$$##$$$$#$##$$$$$$$$##$#$##$$$$$##$$#$$$$#$###$$####$#",
"$$$$##$$$$$$$#$##$$$$$$$$$$$$##$#$$$$$#$##$$$$#$$#$#$$$$##$###$$$##$$$$$$$$$##$$$$$$$#$##$$$$$$$$$$$$##$#$$$$$#$##$$$$#$$#$#$$$$",
"$$$$$$##$$$$$$$$$$#$$##$#$$#$##$$$$##$$$##$$$#$$$$$#$##$$$$###$$$$$$$#$$$$$$$$##$$$$$$$$$$#$$##$#$$#$##$$$$##$$$##$$$#$$$$$#$##$",
"$$$$$$$$$##$$$$$$$$$$##$#$$#$$$$$#$$$$#$$$$$#$$##$$$$$$$$$$####$$$$$##$#$$$$$$$$$##$$$$$$$$$$##$#$$#$$$$$#$$$$#$$$$$#$$##$$$$$$$",
"$$$$$$$$$##$#$$$$$$$$$$$$$$$$$##$#$$$$#$$$#$$##$$$$#$##$##$#$$###$$$$$$#$$$$$$$$$##$#$$$$$$$$$$$$$$$$$##$#$$$$#$$$#$$##$$$$#$##$",
"$#$#$$$$$$$$#$$#$$#$$$$$#$$##$##$$$$##$$$##$$##$$$$$$$$$$$$$##$##$$$$$$$$#$#$$$$$$$$#$$#$$#$$$$$#$$##$##$$$$##$$$##$$##$$$$$$$$$",
"$$$#$$#$$$$$$$$$$$#$$#$$#$$##$$$$$#$$$$$##$#$$$$$#$$#$$#$$#$##$####$$$$$$$$#$$#$$$$$$$$$$$#$$#$$#$$##$$$$$#$$$$$##$#$$$$$#$$#$$#",
"$$$$$$#$$#$$$$$$$$$$$$$$$$$$$$$$$$#$$$##$$##$$#$$$$$#$$#$$#$##$$$$#$##$$$$$$$$#$$#$$$$$$$$$$$$$$$$$$$$$$$$#$$$##$$##$$#$$$$$#$$#",
"$$$$$$$$$#$$$$$$$$$$$$$$$$$$#$$#$$$$#######$$$#$$##$$$$$$#$$##$$$##$$#$#$$$$$$$$$#$$$$$$$$$$$$$$$$$$#$$#$$$$#######$$$#$$##$$$$$",
"##$$$$$$$$$$#$$#$$##$$#$$#$$#$$$$$#####$$$$#$$$$$$#$$#$$$#$$$$##$$$$$$$###$$$$$$$$$$#$$#$$##$$#$$#$$#$$$$$#####$$$$#$$$$$$#$$#$$",
"$$$##$$$$$$$$$$#$$##$$#$$$$$$$$$$###$$$$#####$#$$$$$$$$$$$$$$$##$$$$$$$$$$$##$$$$$$$$$$#$$##$$#$$$$$$$$$$###$$$$#####$#$$$$$$$$$",
"$$$$#$##$$$$$$$$$$$$$$$$$$$$$$####$#$$$$$$$$#$#$$#$$##$$#$$##$$$$$$$$$$#$$$$#$##$$$$$$$$$$$$$$$$$$$$$$####$#$$$$$$$$#$#$$#$$##$$",
"$$$##$$###$#$$$$$$$$$$$$$$###$####$$##$#$####$$$$#$$##$$#$$$$$$$$$#$$#$$$$$##$$###$#$$$$$$$$$$$$$$###$####$$##$#$####$$$$#$$##$$",
"$$#$$$$$#$$##$##$##$##$#$####$$$$$$$$$$#$##$###$$$$$$$$$$$$$$$##$$$$$$$$$$#$$$$$#$$##$##$##$##$#$####$$$$$$$$$$#$##$###$$$$$$$$$",
"#$#$$##$$$$$$$###$#####$##$$#$$$$$$##$$$$$$$$#$$##$##$$#$$$#$$$$$$$$$$$$#$#$$##$$$$$$$###$#####$##$$#$$$$$$##$$$$$$$$#$$##$##$$#",
"#$$$$##$$$#$$$$$$#$$##$$$$$$$##$$$$$$$$#$$$$$$#$$$$$#$$#$$$$$$$$$$$$$#$$#$$$$##$$$#$$$$$$#$$##$$$$$$$##$$$$$$$$#$$$$$$#$$$$$#$$#",
"$$$$$$$$$$$$$#$$$$#$##$$$$$#$$#$#$$$$$$#$$#$$###$$$$$$$$$$$$$$$##$#$$#$$$$$$$$$$$$$$$#$$$$#$##$$$$$#$$#$#$$$$$$#$$#$$###$$$$$$$$",
"$$$#$$$##$$$$$$$$###$$#$$$$$$$$$#$$$$$$$$$$$$$$####$$##$$#$$##$##$$$$$$$$$$#$$$##$$$$$$$$###$$#$$$$$$$$$#$$$$$$$$$$$$$$####$$##$",
"#$$$$$$##$$#$$$$##$##$$$$$$$$#$$$$$##$##$$$$##$#$##$$##$$#$$$$$$$$$$$$$$#$$$$$$##$$#$$$$##$##$$$$$$$$#$$$$$##$##$$$$##$#$##$$##$",
"#$$$##$$$$$$$$#####$$#$$#$$$$$$$##$$$$##$$#$##$$$##$$$$$$$$$$$$$$$$$$#$$#$$$##$$$$$$$$#####$$#$$#$$$$$$$##$$$$##$$#$##$$$##$$$$$",
"$$$$##$$##$$$##$$$$$$$#$$$#$$$$$##$$##$$$$$$$$$$$$$#$$#$$####$#$##$$$#$$$$$$##$$##$$$##$$$$$$$#$$$#$$$$$##$$##$$$$$$$$$$$$$#$$#$",
"$#$$$$##$$$##$$$$$$$#####$$$##$$$$$$##$$##$$$$$$$$####$$$##$#$$$$$$$$$$#$#$$$$##$$$##$$$$$$$#####$$$##$$$$$$##$$##$$$$$$$$####$$",
"$$$##$$$$$###$$$##$$$$$###$$$$$##$$$$$$$##$##$$#$$#$$#$$$$$$$$#$$##$$$##$$$##$$$$$###$$$##$$$$$###$$$$$##$$$$$$$##$##$$#$$#$$#$$",
"$$$##$$$$#$###$$$$$$$$$$#$###$$##$$$$$$$$$$$#$$$$$$$#####$##$$#$$$$$$$$$$$$##$$$$#$###$$$$$$$$$$#$###$$##$$$$$$$$$$$#$$$$$$$####",
"##$$$$$$##$$$$$$$$$$##$$$$$##$#$$$$#$$$#$$$$$$$$$##$#$###$###$$$$##$$##$##$$$$$$##$$$$$$$$$$##$$$$$##$#$$$$#$$$#$$$$$$$$$##$#$##",
"$$$$$$$#$##$$$$#$$$$##$$$$$$$$####$$$$$#$$$##$##$$$$$$$$#####$##$##$$##$$$$$$$$#$##$$$$#$$$$##$$$$$$$$####$$$$$#$$$##$##$$$$$$$$",
"$$$###$$$$$$$$$$$$$$$$$$#$$$$$$#$$#$#$##$$$$$$$$$$$$#$$#$##$#$$$$$$$$$$$$$$###$$$$$$$$$$$$$$$$$$#$$$$$$#$$#$#$##$$$$$$$$$$$$#$$#",
"%%%%%%%%%%%%%%%%%%%%%%%%%%%%%%%%%%%%%%%%%%%%%%%%%%%%%%%%%%%%%%%%%%%%%%%%%%%%%%%%%%%%%%%%%%%%%%%%%%%%%%%%%%%%%%%%%%%%%%%%%%%%%%%%",
"&&&&&&&&&&&&&&&&&&&&&&&&&&&&&&&&&&&&&&&&&&&&&&&&&&&&&&&&&&&&&&&&&&&&&&&&&&&&&&&&&&&&&&&&&&&&&&&&&&&&&&&&&&&&&&&&&&&&&&&&&&&&&&&&",
"&&&&&&&&&&&&&&&&&&&&&&&&&&&&&&&&&&&&&&&&&&&&&&&&&&&&&&&&&&&&&&&&&&&&&&&&&&&&&&&&&&&&&&&&&&&&&&&&&&&&&&&&&&&&&&&&&&&&&&&&&&&&&&&&",
"&&&&&&&&&&&&&&&&&&&&&&&&&&&&&&&&&&&&&&&&&&&&&&&&&&&&&&&&&&&&&&&&&&&&&&&&&&&&&&&&&&&&&&&&&&&&&&&&&&&&&&&&&&&&&&&&&&&&&&&&&&&&&&&&",
"&&&&&&&&&&&&&&&&&&&&&&&&&&&&&&&&&&&&&&&&&&&&&&&&&&&&&&&&&&&&&&&&&&&&&&&&&&&&&&&&&&&&&&&&&&&&&&&&&&&&&&&&&&&&&&&&&&&&&&&&&&&&&&&&",
"&&&&&&&&&&&&&&&&&&&&&&&&&&&&&&&&&&&&&&&&&&&&&&&&&&&&&&&&&&&&&&&&&&&&&&&&&&&&&&&&&&&&&&&&&&&&&&&&&&&&&&&&&&&&&&&&&&&&&&&&&&&&&&&&",
"&&&&&&&&&&&&&&&&&&&&&&&&&&&&&&&&&&&&&&&&&&&&&&&&&&&&&&&&&&&&&&&&&&&&&&&&&&&&&&&&&&&&&&&&&&&&&&&&&&&&&&&&&&&&&&&&&&&&&&&&&&&&&&&&",
"&&&&&&&&&&&&&&&&&&&&&&&&&&&&&&&&&&&&&&&&&&&&&&&&&&&&&&&&&&&&&&&&&&&&&&&&&&&&&&&&&&&&&&&&&&&&&&&&&&&&&&&&&&&&&&&&&&&&&&&&&&&&&&&&"};
