/* XPM */
static char * W_WH_NO_xpm[] = {
"128 128 22 1",
" 	c #B3AFAF",
".	c #B2AFAF",
"+	c #C4C4C4",
"@	c #C3C3C3",
"#	c #D4D4D4",
"$	c #C4C3C3",
"%	c #C5C5C5",
"&	c #C5C4C4",
"*	c #B2B1B1",
"=	c #B0AFAF",
"-	c #AFAEAE",
";	c #B1B0B0",
">	c #000000",
",	c #633535",
"'	c #593231",
")	c #683737",
"!	c #5E3333",
"~	c #5B3131",
"{	c #512E2E",
"]	c #603333",
"^	c #56302F",
"/	c #371C1C",
" .............................................................................................................................. ",
"+@@@@@@@@@@@@@@@@@@@@@@@@@@@@@@@@@@@@@@@@@@@@@@@@@@@@@@@@@@@@@@@@@@@@@@@@@@@@@@@@@@@@@@@@@@@@@@@@@@@@@@@@@@@@@@@@@@@@@@@@@@@@@@+",
"+@@@@@@@@@@@@@@@@@@@@@@@@@@@@@@@@@@@@@@@@@@@@@@@@@@@@@@@@@@@@@@@@@@@@@@@@@@@@@@@@@@@@@@@@@@@@@@@@@@@@@@@@@@@@@@@@@@@@@@@@@@@@@@+",
"+@@@@@@@@@@@@@@@@@@@@@@@@@@@@@@@@@@@@@@@@@@@@@@@@@@@@@@@@@@@@@@@@@@@@@@@@@@@@@@@@@@@@@@@@@@@@@@@@@@@@@@@@@@@@@@@@@@@@@@@@@@@@@@+",
"+@@@@@@@@@@@@@@@@@@@@@@@@@@@@@@@@@@@@@@@@@@@@@@@@@@@@@@@@@@@@@@@@@@@@@@@@@@@@@@@@@@@@@@@@@@@@@@@@@@@@@@@@@@@@@@@@@@@@@@@@@@@@@@+",
"+@@@@@@@@@@@@@@@@@@@@@@@@@@@@@@@@@@@@@@@@@@@@@@@@@@@@@@@@@@@@@@@@@@@@@@@@@@@@@@@@@@@@@@@@@@@@@@@@@@@@@@@@@@@@@@@@@@@@@@@@@@@@@@+",
"################################################################################################################################",
"+@@@@@@@@@@@@@@@@@@@@@@@@@@@@@@@@@@@@@@@@@@@@@@@@@@@@@@@@@@@@@@@@@@@@@@@@@@@@@@@@@@@@@@@@@@@@@@@@@@@@@@@@@@@@@@@@@@@@@@@@@@@@@@+",
"$$$%%&$$&%$&$$$$$&$%&$$&%%%%&&%%&$%$%$&%&&&$&&&$%&$$&%%&$$&%$&$$$$$&$%&$$&%%%%&&%%&$%$%$&%&&&$&&&$%&$$&%%&$$&%$&$$$$$&$%&$$&%%%%",
"*=-**=-;**---=-=---**;-=*******;--*-*--=-=--*=--***=-**=-;**---=-=---**;-=*******;--*-*--=-=--*=--***=-**=-;**---=-=---**;-=****",
"=*-**-;==*--=---=--*==--****==*--=*-*=---==-*=--*==*=**-;==*--=---=--*==--****==*--=*-*=---==-*=--*==*=**-;==*--=---=--*==--****",
"=**==;*===--;;-;;--==---==**===--=*-*;---;*-*=--;==**==;*===--;;-;;--==---==**===--=*-*;---;*-*=--;==**==;*===--;;-;;--==---==**",
"=**==**==---=;-;=-------==**==---=*-**---**-=-=-=-=**==**==---=;-;=-------==**==---=*-**---**-=-=-=-=**==**==---=;-;=-------==**",
"-=****;----;=---=;-----=****==--;**-**---**--=*--=-=****;----;=---=;-----=****==--;**-**---**--=*--=-=****;----;=---=;-----=****",
"--****=-=--*=---=*--=--=****==-;***-**==-**--;*-==--****=-=--*=---=*--=--=****==-;***-**==-**--;*-==--****=-=--*=---=*--=--=****",
"--===;--=;-*;---;*-;=--;==**==;*==*-****;;;--==-*=--;==;--=;-*;---;*-;=--;==**==;*==*-****;;;--==-*=--;==;--=;-*;---;*-;=--;==**",
"=--===--=*-=-----=-*=--===**==**==*-****=-=-=---*==-====--=*-=-----=-*=--===**==**==*-****=-=-=---*==-====--=*-=-----=-*=--===**",
"==-**=-==*---=-=---*==-=****==****;-;**;----*---*===-**=-==*---=-=---*==-=****==****;-;**;----*---*===-**=-==*---=-=---*==-=****",
"**-**-;***--=---=--***--**********=-=**--==-*=--****=**-;***--=---=--***--**********=-=**--==-*=--****=**-;***--=---=--***--****",
"=****;*===--;;-;;--===-;****==***;---;=--;*-*=--===****;*===--;;-;;--===-;****==***;---;=--;*-*=--===****;*===--;;-;;--===-;****",
"=**==**==---=;-;=---==-*==**==**==---;---**-=-----=**==**==---=;-;=---==-*==**==**==---;---**-=-----=**==**==---=;-;=---==-*==**",
"-=*==*;-=--;=---=;--=--*==******===-=*--;**--==--=-=*==*;-=--;=---=;--=--*==******===-=*--;**--==--=-=*==*;-=--;=---=;--=--*==**",
"--****=-=--*=---=*--=--***********=-=*-;***--;*--;--****=-=--*=---=*--=--***********=-=*-;***--;*--;--****=-=--*=---=*--=--*****",
"--=**;--=;-*;---;*-;=--;=;**==****;=;*;***;--;*-;=--;**;--=;-*;---;*-;=--;=;**==****;=;*;***;--;*-;=--;**;--=;-*;---;*-;=--;=;**",
"=--===--=*-==---==-----=--**==**==********=-===-*==-====--=*-==---==-----=--**==**==********=-===-*==-====--=*-==---==-----=--**",
"*=-===-;**--==-==---=;-==-=*****==********--;==-***=-===-;**--==-==---=;-==-=*****==********--;==-***=-===-;**--==-==---=;-==-=*",
"**-**-;***--=---=---;*--;--;**************--=**-****=**-;***--=---=---;*--;--;**************--=**-****=**-;***--=---=---;*--;--;",
"*****;***;--;;-;;---**-;*=-=***********=*;---;*-*;*****;***;--;;-;;---**-;*=-=***********=*;---;*-*;*****;***;--;;-;;---**-;*=-=",
"=******===-==;-;=--===-**;-===*********-*;---=*-*-=******===-==;-;=--===-**;-===*********-*;---=*-*-=******===-==;-;=--===-**;-=",
"-=*==*;----*=---=------*===-==**==*****-**=--==-*=-=*==*;----*=---=------*===-==**==*****-**=--==-*=-=*==*;----*=---=------*===-",
"--*==*=-==-*=---=;-==--*==*;****==*****-**=--==-*;--*==*=-==-*=---=;-==--*==*;****==*****-**=--==-*;--*==*=-==-*=---=;-==--*==*;",
"--=**;--;*-*;---;*-;=--;=;*************-**=--;*-*;--;**;--;*-*;---;*-;=--;=;*************-**=--;*-*;--;**;--;*-*;---;*-;=--;=;**",
"=--**=--=*-==---==-----==-**==*********-**=-=**-*==-=**=--=*-==---==-----==-**==*********-**=-=**-*==-=**=--=*-==---==-----==-**",
"==-===-==*--==-==---==-==-=*==**==*****-**-=*==-*===-===-==*--==-==---==-==-=*==**==*****-**-=*==-*===-===-==*--==-==---==-==-=*",
"**-==-;***--=---=---;*--=--;****==*****-**=**==-****===-;***--=---=---;*--=--;****==*****-**=**==-****===-;***--=---=---;*--=--;",
"*****;***;--;;-;;---**-;*=-=*********;*-*;***;*-*;*****;***;--;;-;;---**-;*=-=*********;*-*;***;*-*;*****;***;--;;-;;---**-;*=-=",
"=******;==-==;-;=--==;-**;-=********==*-*==*==*-*==******;==-==;-;=--==;-**;-=********==*-*==*==*-*==******;==-==;-;=--==;-**;-=",
"-=****;----*=---=------***=-==*****=-=*-*=-=-=*-*=-=****;----*=---=------***=-==*****=-=*-*=-=-=*-*=-=****;----*=---=------***=-",
"--*==*=-==-*=---=;-==--*==*;==**==*--;*-*;---==-*=--*==*=-==-*=---=;-==--*==*;==**==*--;*-*;---==-*=--*==*=-==-*=---=;-==--*==*;",
"--===;--;*-*;---;*-;=--;==******==;--;*-*;---==-*;--;==;--;*-*;---;*-;=--;==******==;--;*-*;---==-*;--;==;--;*-*;---;*-;=--;==**",
"=--**=-=**-==---==--==-==-********=-=**-**=-=**-**=-=**=-=**-==---==--==-==-********=-=**-**=-=**-**=-=**=-=**-==---==--==-==-**",
"==-**=-==*--==-==---==-==-=*==****-=***-**---**-*===-**=-==*--==-==---==-==-=*==****-=***-**---**-*===-**=-==*--==-==---==-==-=*",
"=*-==-;==*--=---=---==--=--;==**===****-**=-===-*==*===-;==*--=---=---==--=--;==**===****-**=-===-*==*===-;==*--=---=---==--=--;",
"***==;***;--;;-;;---**-;=--=****==***;*-*;*-*==-*;***==;***;--;;-;;---**-;=--=****==***;*-*;*-*==-*;***==;***;--;;-;;---**-;=--=",
"=********=-=**-**--=**-**;-=********==*-*==-==*-*==********=-=**-**--=**-**;-=********==*-*==-==*-*==********=-=**-**--=**-**;-=",
"-=*******--;**-**---**-***=-*******=-=*-*=---=*-*=-=*******--;**-**---**-***=-*******=-=*-*=---=*-*=-=*******--;**-**---**-***=-",
"--*****==--=**-**=--==-****;==*****--;*-*=---;*-*=--*****==--=**-**=--==-****;==*****--;*-*=---;*-*=--*****==--=**-**=--==-****;",
"--===**==---;*-*;---==-*==**==**==;--;*-*;---==-*=--;==**==---;*-*;---==-*==**==**==;--;*-*;---==-*=--;==**==---;*-*;---==-*==**",
"=--==***;---=*-*=---=*-*--******===-=**-===-=-=-**=-===***;---=*-*=---=*-*--******===-=**-===-=-=-**=-===***;---=*-*=---=*-*--**",
"*=-*****;=--=*-*=---=*-*=-=*******--***--=--;=--***=-*****;=--=*-*=---=*-*=-=*******--***--=--;=--***=-*****;=--=*-*=---=*-*=-=*",
"=*-****===--=*-*=---==-*;--;==****=-***--==-*=--*==*=****===--=*-*=---==-*;--;==****=-***--==-*=--*==*=****===--=*-*=---==-*;--;",
"=**==**===--;*-*;---==-*=--===**==*-*;;--;*-*=--;==**==**===--;*-*;---==-*=--===**==*-*;;--;*-*=--;==**==**===--;*-*;---==-*=--=",
"=**==****=-=**-**--=**-*==-=****==*-===-===-=-=-===**==****=-=**-**--=**-*==-=****==*-===-===-=-=-===**==****=-=**-**--=**-*==-=",
"-=*******--***-**---**-***=-*******--=--*=---=*--=-=*******--***-**---**-***=-*******--=--*=---=*--=-=*******--***-**---**-***=-",
"--*******=;***-**;;=**-****;*******--;=-*;---;*-=;--*******=;***-**;;=**-****;*******--;=-*;---;*-=;--*******=;***-**;;=**-****;",
"--=****==***;*-*;**;==-*=;**==***;;--;*-*;---;*-*=--;****==***;*-*;**;==-*=;**==***;;--;*-*;---;*-*=--;****==***;*-*;**;==-*=;**",
"=--==**==**==*-*==*--=-*--**==**=-=-===-===-=-=-*==-===**==**==*-*==*--=-*--**==**=-=-===-===-=-=-*==-===**==**==*-*==*--=-*--**",
"*=-==*****;-=*-*=-=-=*-*=-=****;----*=---=------***=-==*****;-=*-*=-=-=*-*=-=****;----*=---=------***=-==*****;-=*-*=-=-=*-*=-=*",
"**-*******--=*-*=---;*-*;--;***--==-*=---==-==--****=*******--=*-*=---;*-*;--;***--==-*=---==-==--****=*******--=*-*=---;*-*;--;",
"=******==;--;*-*;---==-**=-===;--;*-*;---;*-*;--;==******==;--;*-*;---==-**=-===;--;*-*;---;*-*;--;==******==;--;*-*;---==-**=-=",
"=**==**===-=**-**--===-*==-====-==*-==---==-=-=-=-=**==**===-=**-**--===-*==-====-==*-==---==-=-=-=-=**==**===-=**-**--===-*==-=",
"-=*==****--***-**---**-*===-**--==*--=---=---==--=-=*==****--***-**---**-*===-**--==*--=---=---==--=-=*==****--***-**---**-*===-",
"--*******=;***-**;;=**-****;**=;***--;=-=;---;*-=;--*******=;***-**;;=**-****;**=;***--;=-=;---;*-=;--*******=;***-**;;=**-****;",
"--===*******;*-*;**;=*-*==******==;--;*-*;---==-*;--;==*******;*-*;**;=*-*==******==;--;*-*;---==-*;--;==*******;*-*;**;=*-*==**",
"=--==**==**==*-*==*--=-*--**==**=-=-===-===-=-=-*==-===**==**==*-*==*--=-*--**==**=-=-===-===-=-=-*==-===**==**==*-*==*--=-*--**",
"==-==**==*;-=*-*=-=-==-*=-=*==*;----*=---=------*===-==**==*;-=*-*=-=-==-*=-=*==*;----*=---=------*===-==**==*;-=*-*=-=-==-*=-=*",
"**-==*****--=*-*=---;*-*=--;***--==-*=---==-==--****===*****--=*-*=---;*-*=--;***--==-*=---==-==--****===*****--=*-*=---;*-*=--;",
"********=;--=*-*=---=*-**=-=**;--;*-*=---=*-*;--;;********=;--=*-*=---=*-**=-=**;--;*-*=---=*-*;--;;********=;--=*-*=---=*-**=-=",
"=**==**--=-===-==--=---*==-====-==*---------=-=-=-=**==**--=-===-==--=---*==-====-==*---------=-=-=-=**==**--=-===-==--=---*==-=",
"-=*==*=-=--*=---=---=--*===-==--==*-----------=--=-=*==*=-=--*=---=---=--*===-==--==*-----------=--=-=*==*=-=--*=---=---=--*===-",
"--*==;--;=-*;---;;-=;--;==*;**=;==;--==-==---==-=;--*==;--;=-*;---;;-=;--;==*;**=;==;--==-==---==-=;--*==;--;=-*;---;;-=;--;==*;",
"--=**=--**-**---**-;=--==;*******;=--;*-*;---;*-*;--;**=--**-**---**-;=--==;*******;=--;*-*;---;*-*;--;**=--**-**---**-;=--==;**",
"=--===-;**-**=-=**--=;-=--******=---===-==----=-**=-====-;**-**=-=**--=;-=--******=---===-==----=-**=-====-;**-**=-=**--=;-=--**",
"==-==-===*-**---**--==--=-=*==*;----*=---=------*===-==-===*-**---**--==--=-=*==*;----*=---=------*===-==-===*-**---**--==--=-=*",
"=*-===*==*-**=-=*;--==-==--;==*--=--*=---==--=--*==*====*==*-**=-=*;--==-==--;==*--=--*=---==--=--*==*====*==*-**=-=*;--==-==--;",
"***==***=*-*=---==-==*-*=--=**;--=*-*=---=*-*=--;;***==***=*-*=---==-==*-*=--=**;--=*-*=---=*-*=--;;***==***=*-*=---==-==*-*=--=",
"=******--*-*----==-;==-**;-=**=-=**---------===-===******--*-*----==-;==-**;-=**=-=**---------===-===******--*-*----==-;==-**;-=",
"-=*==*=--*-*----=--*=--*===-==--==*----------==--=-=*==*=--*-*----=--*=--*===-==--==*----------==--=-=*==*=--*-*----=--*=--*===-",
"--*==;--=*-*=---;;-*=--;==*;===;==;--==-==----=-==--*==;--=*-*=---;;-*=--;==*;===;==;--==-==----=-==--*==;--=*-*=---;;-*=--;==*;",
"--====--;*-*;---**-;=--===******===--;*-*;---==-*;--;===--;*-*;---**-;=--===******===--;*-*;---==-*;--;===--;*-*;---**-;=--===**",
"=--**--=**-**---**--=;-==-******==--===-==---==-**=-=**--=**-**---**--=;-==-******==--===-==---==-**=-=**--=**-**---**--=;-==-**",
"*=-==--***-**---**--=*--=-=****;----*=---=------***=-==--***-**---**--=*--=-=****;----*=---=------***=-==--***-**---**--=*--=-=*",
"=*-==-*==*-**=*-*;--==-==--;==*--=--*=---==--=--*==*===-*==*-**=*-*;--==-==--;==*--=--*=---==--=--*==*===-*==*-**=*-*;--==-==--;",
"=**==**==*-*=***==-===-*=--===;--=*-*=---=*-*=--;==**==**==*-*=***==-===-*=--===;--=*-*=---=*-*=--;==**==**==*-*=***==-===-*=--=",
"***==**--*-*--;===-;==-*==-=**=-==*---------*==-=****==**--*-*--;===-;==-*==-=**=-==*---------*==-=****==**--*-*--;===-;==-*==-=",
"******=--*-*----=--*=--***=-**--***---------**;--*******=--*-*----=--*=--***=-**--***---------**;--*******=--*-*----=--*=--***=-",
"=**==;--=*-*=---;;-*=--;==*;===;==;--==-==--;=---==**==;--=*-*=---;;-*=--;==*;===;==;--==-==--;=---==**==;--=*-*=---;;-*=--;==*;",
"=**===--=*-*;---**-;=--=-=**==**===--;*-*;--=----==**===--=*-*;---**-;=--=-=**==**===--;*-*;--=----==**===--=*-*;---**-;=--=-=**",
"***==--=**-**---**--=;-=--******=---===-===------;***==--=**-**---**--=;-=--******=---===-===------;***==--=**-**---**--=;-=--**",
"*****--***-**---**--=*--=-=****;-=--*=---=*--=--;******--***-**---**--=*--=-=****;-=--*=---=*--=--;******--***-**---**--=*--=-=*",
"***==-****-**=*-*;--;*-==--;***--=--*=---=*--=--;****==-****-**=*-*;--;*-==--;***--=--*=---=*--=--;****==-****-**=*-*;--;*-==--;",
"=**==**==*-*****==-===-*=--===;--=*-*=---=*-*=--;==**==**==*-*****==-===-*=--===;--=*-*=---=*-*=--;==**==**==*-*****==-===-*=--=",
"=**==**==*-****--=-;---*==-====-==*---------*==-===**==**==*-****--=-;---*==-====-==*---------*==-===**==**==*-****--=-;---*==-=",
"***==****;-;**=----*---*===-**--==*---------*==--****==****;-;**=----*---*===-**--==*---------*==--****==****;-;**=----*---*===-",
"*********---*;--=;-*=--;***;**=;**;--==-==--;**-=**********---*;--=;-*=--;***;**=;**;--==-==--;**-=**********---*;--=;-*=--;***;",
"=**==**==---;=--;*-;=--===**==**===--;*-*;--===-*==**==**==---;=--;*-;=--===**==**===--;*-*;--===-*==**==**==---;=--;*-;=--===**",
"=**==**===-=;--=**--------**==**=---===-===---=-*==**==**===-=;--=**--------**==**=---===-===---=-*==**==**===-=;--=**--------**",
"*********=-=*--***--=*--=-=****;-=--*=---=*--=--***********=-=*--***--=*--=-=****;-=--*=---=*--=--***********=-=*--***--=*--=-=*",
"*********;-;*-***;--;*--;--;***--=--*=---=*--=--*;*********;-;*-***;--;*--;--;***--=--*=---=*--=--*;*********;-;*-***;--;*--;--;",
";**==*****;******=-=**-*=--=**;--=*-*=---=*-;---;=;**==*****;******=-=**-*=--=**;--=*-*=---=*-;---;=;**==*****;******=-=**-*=--=",
"-;*==**==********=-;==-*==-====-==*-==---==---=-=--;*==**==********=-;==-*==-====-==*-==---==---=-=--;*==**==********=-;==-*==-=",
"-=*****==********--;==-***=-==--***--=---=---=*--=-=*****==********--;==-***=-==--***--=---=---=*--=-=*****==********--;==-***=-",
"--;**************---**-****;**=;**;--;=-=;---;*-=;--;**************---**-****;**=;**;--;=-=;---;*-=;--;**************---**-****;",
"=-=***********-*;---=*-*=;*******;=--;*-*;--=;*-**=-=***********-*;---=*-*=;*******;=--;*-*;--=;*-**=-=***********-*;---=*-*=;**",
"=--==**==*****-*;=---=-*--**==**=-=-;==-==--=-=-*==-===**==*****-*;=---=-*--**==**=-=-;==-==--=-=-*==-===**==*****-*;=---=-*--**",
"=;-==**==*****-**=--==-*=-=*==*;----*=---=------*==;-==**==*****-**=--==-*=-=*==*;----*=---=------*==;-==**==*****-**=--==-*=-=*",
"**;***********-**=--;*-*;--;***--==-*=---=;-==--*;**;***********-**=--;*-*;--;***--==-*=---=;-==--*;**;***********-**=--;*-*;--;",
";*************-**=-=**-**=-=**;--;*-*=---=*-;=--;=;*************-**=-=**-**=-=**;--;*-*=---=*-;=--;=;*************-**=-=**-**=-=",
"-;*==*********-**=-;**-*==-=**=-==*-==---==---=-==-;*==*********-**=-;**-*==-=**=-==*-==---==---=-==-;*==*********-**=-;**-*==-=",
"-=*==**==*****-**-=*==-*===-==--==*--=---=---==--=-=*==**==*****-**-=*==-*===-==--==*--=---=---==--=-=*==**==*****-**-=*==-*===-",
"--;****==*****-**;**==-****;===;**;--;=-=;---;*-==--;****==*****-**;**==-****;===;**;--;=-=;---;*-==--;****==*****-**;**==-****;",
"=-=********;=*-*=;*;=*-*=;*******;=--;*-*;--=;*-**=-=********;=*-*=;*;=*-*=;*******;=--;*-*;--=;*-**=-=********;=*-*=;*;=*-*=;**",
";--********-=*-*=-;-=*-*=-******===-;==-==--===-**;-=********-=*-*=-;-=*-*=-******===-;==-==--===-**;-=********-=*-*=-;-=*-*=-**",
"=;-==**==*=-=*-*=---==-*=-=*==*;----*=---=------*==;-==**==*=-=*-*=---==-*=-=*==*;----*=---=------*==;-==**==*=-=*-*=---==-*=-=*",
"=*;==**==;--;*-*;---==-*=--;==*--==-*=---=;-==--*==*;==**==;--;*-*;---==-*=--;==*--==-*=---=;-==--*==*;==**==;--;*-*;---==-*=--;",
";********=-=**-**---**-**=-=**;--;*-*=---=*-;=--;=;********=-=**-**---**-**=-=**;--;*-*=---=*-;=--;=;********=-=**-**---**-**=-=",
"-;*******=-;**-**=-=**-**;-=**=-=**-==---==--==-==-;*******=-;**-**=-=**-**;-=**=-=**-==---==--==-==-;*******=-;**-**=-=**-**;-=",
"==*==****==***=**===**=*====**====*==============;==*==****==***=**===**=*====**====*==============;==*==****==***=**===**=*====",
">>>>>>>>>>>>>>>>>>>>>>>>>>>>>>>>>>>>>>>>>>>>>>>>>>>>>>>>>>>>>>>>>>>>>>>>>>>>>>>>>>>>>>>>>>>>>>>>>>>>>>>>>>>>>>>>>>>>>>>>>>>>>>>>",
",',')')',!!,')')',!!,')')',!!,')')',!!,')')',!!,')')',!!,')')',!!,')')',!!,')')',!!,')')',!!,')')',!!,')')',!!,')')',!!,')')',!!",
"~{~{]{]{~^^~{]{]{~^^~{]{]{~^^~{]{]{~^^~{]{]{~^^~{]{]{~^^~{]{]{~^^~{]{]{~^^~{]{]{~^^~{]{]{~^^~{]{]{~^^~{]{]{~^^~{]{]{~^^~{]{]{~^^",
"////////////////////////////////////////////////////////////////////////////////////////////////////////////////////////////////",
"////////////////////////////////////////////////////////////////////////////////////////////////////////////////////////////////",
"////////////////////////////////////////////////////////////////////////////////////////////////////////////////////////////////",
"////////////////////////////////////////////////////////////////////////////////////////////////////////////////////////////////",
"////////////////////////////////////////////////////////////////////////////////////////////////////////////////////////////////",
"////////////////////////////////////////////////////////////////////////////////////////////////////////////////////////////////",
"////////////////////////////////////////////////////////////////////////////////////////////////////////////////////////////////"};
