/* XPM */
static char * W_WH_SO_xpm[] = {
"128 128 20 1",
" 	c #C7C1C1",
".	c #DCD9D9",
"+	c #DBD8D8",
"@	c #E6E3E3",
"#	c #DDDADA",
"$	c #CDCACA",
"%	c #D1CDCD",
"&	c #CECACA",
"*	c #D0CCCC",
"=	c #CFCBCB",
"-	c #000000",
";	c #633535",
">	c #593231",
",	c #683737",
"'	c #5E3333",
")	c #5B3131",
"!	c #512E2E",
"~	c #603333",
"{	c #56302F",
"]	c #371C1C",
"                                                                                                                                ",
".++++++++++++++++++++++++++++++++++++++++++++++++++++++++++++++++++++++++++++++++++++++++++++++++++++++++++++++++++++++++++++++.",
".++++++++++++++++++++++++++++++++++++++++++++++++++++++++++++++++++++++++++++++++++++++++++++++++++++++++++++++++++++++++++++++.",
".++++++++++++++++++++++++++++++++++++++++++++++++++++++++++++++++++++++++++++++++++++++++++++++++++++++++++++++++++++++++++++++.",
".++++++++++++++++++++++++++++++++++++++++++++++++++++++++++++++++++++++++++++++++++++++++++++++++++++++++++++++++++++++++++++++.",
".++++++++++++++++++++++++++++++++++++++++++++++++++++++++++++++++++++++++++++++++++++++++++++++++++++++++++++++++++++++++++++++.",
"@@@@@@@@@@@@@@@@@@@@@@@@@@@@@@@@@@@@@@@@@@@@@@@@@@@@@@@@@@@@@@@@@@@@@@@@@@@@@@@@@@@@@@@@@@@@@@@@@@@@@@@@@@@@@@@@@@@@@@@@@@@@@@@@",
".++++++++++++++++++++++++++++++++++++++++++++++++++++++++++++++++++++++++++++++++++++++++++++++++++++++++++++++++++++++++++++++.",
"+##.++.#+.+++++.+#.++.####..##.+#+#+.#...+...+#.++.##.++.#+.+++++.+#.++.####..##.+#+#+.#...+...+#.++.##.++.#+.+++++.+#.++.####..",
"$%%&$*%%$$$&$&$$$%%*$&%%%%%%%*$$%$%$$=$&$$%&$$%%%&$%%&$*%%$$$&$&$$$%%*$&%%%%%%%*$$%$%$$=$&$$%&$$%%%&$%%&$*%%$$$&$&$$$%%*$&%%%%%%",
"$%%$*==%$$&$$$&$$%=&$$%%%%==%$$&%$%&$$$=&$%=$$%==%&%%$*==%$$&$$$&$$%=&$$%%%%==%$$&%$%&$$$=&$%=$$%==%&%%$*==%$$&$$$&$$%=&$$%%%%==",
"%==*%===$$**$**$$==$$$==%%===$$&%$%*$$$*%$%&$$*&=%%==*%===$$**$**$$==$$$==%%===$$&%$%*$$$*%$%&$$*&=%%==*%===$$**$**$$==$$$==%%==",
"%==%%=&$$$=*$*=$$$$$$$&=%%==$$$=%$%%$$$%%$=$&$&$&%%==%%=&$$$=*$*=$$$$$$$&=%%==$$$=%$%%$$$%%$=$&$&$&%%==%%=&$$$=*$*=$$$$$$$&=%%==",
"%%%%*$$$$*&$$$&*$$$$$=%%%%==$$*%%$%%$$$%%$$=%$$&$=%%%%*$$$$*&$$$&*$$$$$=%%%%==$$*%%$%%$$$%%$$=%$$&$=%%%%*$$$$*&$$$&*$$$$$=%%%%==",
"%%%%&$&$$%=$$$=%$$&$$=%%%%==$*%%%$%%&=$%%$$*%$&&$$%%%%&$&$$%=$$$=%$$&$$=%%%%==$*%%%$%%&=$%%$$*%$&&$$%%%%&$&$$%=$$$=%$$&$$=%%%%==",
"===*$$&*$%*$$$*%$*&$$*==%%==*%==%$%%%%***$$&=$%=$$*==*$$&*$%*$$$*%$*&$$*==%%==*%==%$%%%%***$$&=$%=$$*==*$$&*$%*$$$*%$*&$$*==%%==",
"$===$$=%$&$$$$$&$%=$$===%%==%%==%$%%%%&$&$=$$$%=&$&===$$=%$&$$$$$&$%=$$===%%==%%==%$%%%%&$&$=$$$%=&$&===$$=%$&$$$$$&$%=$$===%%==",
"$%%&$&=%$$$&$&$$$%=&$&%%%%==%%%%*$*%%*$$$$%$$$%==&$%%&$&=%$$$&$&$$$%=&$&%%%%==%%%%*$*%%*$$$$%$$$%==&$%%&$&=%$$$&$&$$$%=&$&%%%%==",
"$%%$*%%%$$&$$$&$$%%%$$%%%%%%%%%%&$&%%$$&&$%&$$%%%%&%%$*%%%$$&$$$&$$%%%$$%%%%%%%%%%&$&%%$$&&$%&$$%%%%&%%$*%%%$$&$$$&$$%%%$$%%%%%%",
"%%%*%===$$**$**$$===$*%%%%==%%%*$$$*=$$*%$%=$$=&=%%%%*%===$$**$**$$===$*%%%%==%%%*$$$*=$$*%$%=$$=&=%%%%*%===$$**$**$$===$*%%%%==",
"%==%%=&$$$=*$*=$$$&=$%==%%==%%=&$$$*$$$%%$=$$$$$&%%==%%=&$$$=*$*=$$$&=$%==%%==%%=&$$$*$$$%%$=$$$$$&%%==%%=&$$$=*$*=$$$&=$%==%%==",
"%==%*$&$$*&$$$&*$$&$$%==%%%%%%===$=%$$*%%$$&&$$=$=%==%*$&$$*&$$$&*$$&$$%==%%%%%%===$=%$$*%%$$&&$$=$=%==%*$&$$*&$$$&*$$&$$%==%%%%",
"%%%%&$=$$%=$$$=%$$=$$%%%%%%%%%%%=$=%$*%%%$$*%$$*$$%%%%&$=$$%=$$$=%$$=$$%%%%%%%%%%%=$=%$*%%%$$*%$$*$$%%%%&$=$$%=$$$=%$$=$$%%%%%%%",
"=%%*$$&*$%*$$$*%$*&$$*=*%%==%%%%*&*%*%%%*$$*%$*=$$*%%*$$&*$%*$$$*%$*&$$*=*%%==%%%%*&*%*%%%*$$*%$*=$$*%%*$$&*$%*$$$*%$*&$$*=*%%==",
"$===$$=%$=&$$$&=$$$$$=$$%%==%%==%%%%%%%%&$===$%=&$&===$$=%$=&$$$&=$$$$$=$$%%==%%==%%%%%%%%&$===$%=&$&===$$=%$=&$$$&=$$$$$=$$%%==",
"$==&$*%%$$&&$&&$$$=*$&&$=%%%%%==%%%%%%%%$$*==$%%%&$==&$*%%$$&&$&&$$$=*$&&$=%%%%%==%%%%%%%%$$*==$%%%&$==&$*%%$$&&$&&$$$=*$&&$=%%%",
"$%%$*%%%$$=$$$=$$$*%$$*$$*%%%%%%%%%%%%%%$$&%%$%%%%&%%$*%%%$$=$$$=$$$*%$$*$$*%%%%%%%%%%%%%%$$&%%$%%%%&%%$*%%%$$=$$$=$$$*%$$*$$*%%",
"%%%*%%%*$$**$**$$$%%$*%&$=%%%%%%%%%%%=%*$$$*%$%*%%%%%*%%%*$$**$**$$$%%$*%&$=%%%%%%%%%%%=%*$$$*%$%*%%%%%*%%%*$$**$**$$$%%$*%&$=%%",
"%%%%%=&&$==*$*=$$&&=$%%*$&==%%%%%%%%%$%*$$$&%$%$&%%%%%%=&&$==*$*=$$&&=$%%*$&==%%%%%%%%%$%*$$$&%$%$&%%%%%%=&&$==*$*=$$&&=$%%*$&==",
"%==%*$$$$%&$$$&$$$$$$%===$==%%==%%%%%$%%=$$&=$%&$=%==%*$$$$%&$$$&$$$$$$%===$==%%==%%%%%$%%=$$&=$%&$=%==%*$$$$%&$$$&$$$$$$%===$==",
"%==%&$=&$%=$$$=*$&=$$%==%*%%%%==%%%%%$%%=$$&=$%*$$%==%&$=&$%=$$$=*$&=$$%==%*%%%%==%%%%%$%%=$$&=$%*$$%==%&$=&$%=$$$=*$&=$$%==%*%%",
"=%%*$$*%$%*$$$*%$*&$$*=*%%%%%%%%%%%%%$%%=$$*%$%*$$*%%*$$*%$%*$$$*%$*&$$*=*%%%%%%%%%%%%%$%%=$$*%$%*$$*%%*$$*%$%*$$$*%$*&$$*=*%%%%",
"$%%=$$=%$=&$$$&=$$$$$=&$%%==%%%%%%%%%$%%&$=%%$%=&$&%%=$$=%$=&$$$&=$$$$$=&$%%==%%%%%%%%%$%%&$=%%$%=&$&%%=$$=%$=&$$$&=$$$$$=&$%%==",
"$==&$&=%$$&&$&&$$$&&$&&$=%==%%==%%%%%$%%$&%==$%==&$==&$&=%$$&&$&&$$$&&$&&$=%==%%==%%%%%$%%$&%==$%==&$==&$&=%$$&&$&&$$$&&$&&$=%==",
"$==$*%%%$$=$$$=$$$*%$$&$$*%%%%==%%%%%$%%&%%==$%%%%&==$*%%%$$=$$$=$$$*%$$&$$*%%%%==%%%%%$%%&%%==$%%%%&==$*%%%$$=$$$=$$$*%$$&$$*%%",
"%%%*%%%*$$**$**$$$%%$*%&$=%%%%%%%%%*%$%*%%%*%$%*%%%%%*%%%*$$**$**$$$%%$*%&$=%%%%%%%%%*%$%*%%%*%$%*%%%%%*%%%*$$**$**$$$%%$*%&$=%%",
"%%%%%*=&$==*$*=$$&=*$%%*$&%%%%%%%%=&%$%&=%=&%$%&=%%%%%%*=&$==*$*=$$&=*$%%*$&%%%%%%%%=&%$%&=%=&%$%&=%%%%%%*=&$==*$*=$$&=*$%%*$&%%",
"%%%%*$$$$%&$$$&$$$$$$%%%=$==%%%%%=$=%$%=$&$=%$%&$=%%%%*$$$$%&$$$&$$$$$$%%%=$==%%%%%=$=%$%=$&$=%$%&$=%%%%*$$$$%&$$$&$$$$$$%%%=$==",
"%==%&$&&$%=$$$=*$&&$$%==%*==%%==%$$*%$%*$$$&=$%&$$%==%&$&&$%=$$$=*$&&$$%==%*==%%==%$$*%$%*$$$&=$%&$$%==%&$&&$%=$$$=*$&&$$%==%*==",
"===*$$*%$%*$$$*%$*&$$*&=%%%%%%==*$$*%$%*$$$==$%*$$*==*$$*%$%*$$$*%$*&$$*&=%%%%%%==*$$*%$%*$$$==$%*$$*==*$$*%$%*$$$*%$*&$$*&=%%%%",
"$%%=$&%%$=&$$$&=$$&&$=&$%%%%%%%%&$=%%$%%&$&%%$%%=$&%%=$&%%$=&$$$&=$$&&$=&$%%%%%%%%&$=%%$%%&$&%%$%%=$&%%=$&%%$=&$$$&=$$&&$=&$%%%%",
"$%%&$&=%$$&&$&&$$$&&$&=$=%==%%%%$&%%%$%%$$$%%$%==&$%%&$&=%$$&&$&&$$$&&$&=$=%==%%%%$&%%%$%%$$$%%$%==&$%%&$&=%$$&&$&&$$$&&$&=$=%==",
"$==$*==%$$=$$$=$$$&=$$&$$*==%%==&%%%%$%%&$&==$%==%&==$*==%$$=$$$=$$$&=$$&$$*==%%==&%%%%$%%&$&==$%==%&==$*==%$$=$$$=$$$&=$$&$$*==",
"%==*%%%*$$**$**$$$%%$*=$$=%%%%==%%%*%$%*%$%&=$%*%%%==*%%%*$$**$**$$$%%$*=$$=%%%%==%%%*%$%*%$%&=$%*%%%==*%%%*$$**$**$$$%%$*=$$=%%",
"%%%%%%%&$=%%$%%$$&%%$%%*$&%%%%%%%%=&%$%&=$=&%$%&=%%%%%%%%&$=%%$%%$$&%%$%%*$&%%%%%%%%=&%$%&=$=&%$%&=%%%%%%%%&$=%%$%%$$&%%$%%*$&%%",
"%%%%%%%$$*%%$%%$$$%%$%%%=$%%%%%%%=$=%$%&$$$=%$%=$=%%%%%%%$$*%%$%%$$$%%$%%%=$%%%%%%%=$=%$%&$$$=%$%=$=%%%%%%%$$*%%$%%$$$%%$%%%=$%%",
"%%%%%==$$=%%$%%&$$==$%%%%*==%%%%%$$*%$%=$$$*%$%&$$%%%%%==$$=%%$%%&$$==$%%%%*==%%%%%$$*%$%=$$$*%$%&$$%%%%%==$$=%%$%%&$$==$%%%%*==",
"===%%==$$$*%$%*$$$&=$%&=%%==%%==*$$*%$%*$$$&=$%=$$*==%%==$$$*%$%*$$$&=$%&=%%==%%==*$$*%$%*$$$&=$%=$$*==%%==$$$*%$%*$$$&=$%&=%%==",
"$==%%%*$$$&%$%&$$$&%$%$$%%%%%%==&$=%%$=&&$=$&$%%=$&==%%%*$$$&%$%&$$$&%$%$$%%%%%%==&$=%%$=&&$=$&$%%=$&==%%%*$$$&%$%&$$$&%$%$$%%%%",
"$%%%%%*=$$&%$%&$$$=%$%=$=%%%%%%%$$%%%$$&$$*&$$%%%&$%%%%%*=$$&%$%&$$$=%$%=$=%%%%%%%$$%%%$$&$$*&$$%%%&$%%%%%*=$$&%$%&$$$=%$%=$=%%%",
"$%%%%===$$=%$%=$$$&=$%*$$*==%%%%&$%%%$$=&$%=$$%==%&%%%%===$$=%$%=$$$&=$%*$$*==%%%%&$%%%$$=&$%=$$%==%&%%%%===$$=%$%=$$$&=$%*$$*==",
"%==%%===$$*%$%*$$$==$%=$$===%%==%$%**$$*%$%&$$*&=%%==%%===$$*%$%*$$$==$%=$$===%%==%$%**$$*%$%&$$*&=%%==%%===$$*%$%*$$$==$%=$$===",
"%==%%%%&$=%%$%%$$&%%$%=&$&%%%%==%$=&&$=&=$=$&$&&=%%==%%%%&$=%%$%%$$&%%$%=&$&%%%%==%$=&&$=&=$=$&$&&=%%==%%%%&$=%%$%%$$&%%$%=&$&%%",
"%%%%%%%$$%%%$%%$$$%%$%%%=$%%%%%%%$$=$$%=$$$=%$$=$=%%%%%%%$$%%%$%%$$$%%$%%%=$%%%%%%%$$=$$%=$$$=%$$=$=%%%%%%%$$%%%$%%$$$%%$%%%=$%%",
"%%%%%%%&*%%%$%%**&%%$%%%%*%%%%%%%$$*&$%*$$$*%$&*$$%%%%%%%&*%%%$%%**&%%$%%%%*%%%%%%%$$*&$%*$$$*%$&*$$%%%%%%%&*%%%$%%**&%%$%%%%*%%",
"=%%%%==%%%*%$%*%%*&=$%=*%%==%%%**$$*%$%*$$$*%$%=$$*%%%%==%%%*%$%*%%*&=$%=*%%==%%%**$$*%$%*$$$*%$%=$$*%%%%==%%%*%$%*%%*&=$%=*%%==",
"$==%%==%%=&%$%&=%$$=$%$$%%==%%&$&$=&=$=&&$&$&$%=&$&==%%==%%=&%$%&=%$$=$%$$%%==%%&$&$=&=$=&&$&$&$%=&$&==%%==%%=&%$%&=%$$=$%$$%%==",
"$==%%%%%*$&%$%&$&$=%$%&$=%%%%*$$$$%&$$$&$$$$$$%%%&$==%%%%%*$&%$%&$&$=%$%&$=%%%%*$$$$%&$$$&$$$$$$%%%&$==%%%%%*$&%$%&$&$=%$%&$=%%%",
"$%%%%%%%$$=%$%=$$$*%$%*$$*%%%$$=&$%=$$$=&$&=$$%%%%&%%%%%%%$$=%$%=$$$*%$%*$$*%%%$$=&$%=$$$=&$&=$$%%%%&%%%%%%%$$=%$%=$$$*%$%*$$*%%",
"%%%%%==*$$*%$%*$$$==$%%&$===*$$*%$%*$$$*%$%*$$*&=%%%%%%==*$$*%$%*$$$==$%%&$===*$$*%$%*$$$*%$%*$$*&=%%%%%%==*$$*%$%*$$$==$%%&$===",
"%==%%==&$=%%$%%$$&==$%=&$&==&$&=%$=&$$$&=$=$&$&$&%%==%%==&$=%%$%%$$&==$%=&$&==&$&=%$=&$$$&=$=$&$&$&%%==%%==&$=%%$%%$$&==$%=&$&==",
"%==%%%%$$%%%$%%$$$%%$%===$%%$$==%$$=$$$=$$$&=$$=$=%==%%%%$$%%%$%%$$$%%$%===$%%$$==%$$=$$$=$$$&=$$=$=%==%%%%$$%%%$%%$$$%%$%===$%%",
"%%%%%%%&*%%%$%%**&%%$%%%%*%%&*%%%$$*&$&*$$$*%$&*$$%%%%%%%&*%%%$%%**&%%$%%%%*%%&*%%%$$*&$&*$$$*%$&*$$%%%%%%%&*%%%$%%**&%%$%%%%*%%",
"===%%%%%%%*%$%*%%*=%$%&=%%%%%%==*$$*%$%*$$$&=$%*$$*==%%%%%%%*%$%*%%*=%$%&=%%%%%%==*$$*%$%*$$$&=$%*$$*==%%%%%%%*%$%*%%*=%$%&=%%%%",
"$==%%==%%=&%$%&=%$$=$%$$%%==%%&$&$=&=$=&&$&$&$%=&$&==%%==%%=&%$%&=%$$=$%$$%%==%%&$&$=&=$=&&$&$&$%=&$&==%%==%%=&%$%&=%$$=$%$$%%==",
"$==%%==%*$&%$%&$&$&=$%&$=%==%*$$$$%&$$$&$$$$$$%==&$==%%==%*$&%$%&$&$&=$%&$=%==%*$$$$%&$$$&$$$$$$%==&$==%%==%*$&%$%&$&$&=$%&$=%==",
"$==%%%%%$$=%$%=$$$*%$%&$$*%%%$$&&$%=$$$=&$&&$$%%%%&==%%%%%$$=%$%=$$$*%$%&$$*%%%$$&&$%=$$$=&$&&$$%%%%&==%%%%%$$=%$%=$$$*%$%&$$*%%",
"%%%%%%=*$$=%$%=$$$=%$%%&$=%%*$$*%$%&$$$&%$%*$$**%%%%%%%%=*$$=%$%=$$$=%$%%&$=%%*$$*%$%&$$$&%$%*$$**%%%%%%%%=*$$=%$%=$$$=%$%%&$=%%",
"%==%%$$&$=&&$&&$$&$$$%=&$&==&$&=%$$$$$$$$$=$&$&$&%%==%%$$&$=&&$&&$$&$$$%=&$&==&$&=%$$$$$$$$$=$&$&$&%%==%%$$&$=&&$&&$$&$$$%=&$&==",
"%&&%=$&$$%=$$$=$$$&$$%&&=$==$$&&%$$$$$$$$$$$&$$&$=%&&%=$&$$%=$$$=$$$&$$%&&=$==$$&&%$$$$$$$$$$$&$$&$=%&&%=$&$$%=$$$=$$$&$$%&&=$==",
"%==*$$*&$%*$$$**$&*$$*==%*%%&*==*$$=&$&=$$$&=$&*$$%==*$$*&$%*$$$**$&*$$*==%*%%&*==*$$=&$&=$$$&=$&*$$%==*$$*&$%*$$$**$&*$$*==%*%%",
"=%%=$$%%$%%$$$%%$*=$$==*%%%%%%%*&$$*%$%*$$$*%$%*$$*%%=$$%%$%%$$$%%$*=$$==*%%%%%%%*&$$*%$%*$$$*%$%*$$*%%=$$%%$%%$$$%%$*=$$==*%%%%",
"$==&$*%%$%%&$&%%$$&*$&$$%%%%%%&$$$&&=$=&$$$$&$%%=$&==&$*%%$%%&$&%%$$&*$&$$%%%%%%&$$$&&=$=&$$$$&$%%=$&==&$*%%$%%&$&%%$$&*$&$$%%%%",
"$==$===%$%%$$$%%$$&=$$&$=%==%*$$$$%&$$$&$$$$$$%==&$==$===%$%%$$$%%$$&=$$&$=%==%*$$$$%&$$$&$$$$$$%==&$==$===%$%%$$$%%$$&=$$&$=%==",
"$===%==%$%%&$&%*$$&=$=&$$*==%$$&$$%=$$$=&$$&$$%==%&===%==%$%%&$&%*$$&=$=&$$*==%$$&$$%=$$$=&$$&$$%==%&===%==%$%%&$&%*$$&=$=&$$*==",
"%==%%%=%$%&$$$==$&=%$%=$$=%%*$$=%$%&$$$&%$%&$$**%%%==%%%=%$%&$$$==$&=%$%=$$=%%*$$=%$%&$$$&%$%&$$**%%%==%%%=%$%&$$$==$&=%$%=$$=%%",
"%%%%%$$%$%$$$$&&$*&&$%%*$&%%&$=%%$$$$$$$$$=&=$&&=%%%%%%$$%$%$$$$&&$*&&$%%*$&%%&$=%%$$$$$$$$$=&=$&&=%%%%%%$$%$%$$$$&&$*&&$%%*$&%%",
"%==%&$$%$%$$$$=$$%&$$%===$==$$==%$$$$$$$$$$&=$$&$=%==%&$$%$%$$$$=$$%&$$%===$==$$==%$$$$$$$$$$&=$$&$=%==%&$$%$%$$$$=$$%&$$%===$==",
"%&&*$$&%$%=$$$**$%&$$*&&%*==&*&&*$$=&$&=$$$$&$&&$$%&&*$$&%$%=$$$**$%&$$*&&%*==&*&&*$$=&$&=$$$$&$&&$$%&&*$$&%$%=$$$**$%&$$*&&%*==",
"===&$$*%$%*$$$%%$*=$$=&=%%%%%%==&$$*%$%*$$$&=$%*$$*==&$$*%$%*$$$%%$*=$$=&=%%%%%%==&$$*%$%*$$$&=$%*$$*==&$$*%$%*$$$%%$*=$$=&=%%%%",
"$%%$$&%%$%%$$$%%$$&*$&&$%%%%%%=&$$&&=$=&$$$&=$%%=$&%%$$&%%$%%$$$%%$$&*$&&$%%%%%%=&$$&&=$=&$$$&=$%%=$&%%$$&%%$%%$$$%%$$&*$&&$%%%%",
"$==$$%%%$%%$$$%%$$=%$$&$=%%%%*$$$$%&$$$&$$$$$$%%%&$==$$%%%$%%$$$%%$$=%$$&$=%%%%*$$$$%&$$$&$$$$$$%%%&$==$$%%%$%%$$$%%$$=%$$&$=%%%",
"$==$%==%$%%=%$%*$$&=$=&$$*==%$$&$$%=$$$=&$$&$$%==%&==$%==%$%%=%$%*$$&=$=&$$*==%$$&$$%=$$$=&$$&$$%==%&==$%==%$%%=%$%*$$&=$=&$$*==",
"%==%%=&%$%=%%%==$&&=$%=$$===*$$=%$%&$$$&%$%=$$*==%%==%%=&%$%=%%%==$&&=$%=$$===*$$=%$%&$$$&%$%=$$*==%%==%%=&%$%=%%%==$&&=$%=$$===",
"%==%%$$%$%$$*&&&$*&&$%=&$&%%&$&=%$$$$$$$$$%=&$&%%%%==%%$$%$%$$*&&&$*&&$%=&$&%%&$&=%$$$$$$$$$%=&$&%%%%==%%$$%$%$$*&&&$*&&$%=&$&%%",
"%%%%&$$%$%$$$$=$$%=$$%%%=$%%$$%%%$$$$$$$$$%%*$$%%%%%%%&$$%$%$$$$=$$%=$$%%%=$%%$$%%%$$$$$$$$$%%*$$%%%%%%%&$$%$%$$$$=$$%=$$%%%=$%%",
"%==*$$&%$%=$$$**$%&$$*==%*==&*==*$$=&$&=$$*=$$$==%%==*$$&%$%=$$$**$%&$$*==%*==&*==*$$=&$&=$$*=$$$==%%==*$$&%$%=$$$**$%&$$*==%*==",
"%&&&$$=%$%*$$$%%$*&$$=$&%%==%%&&&$$*%$%*$$&$$$$&=%%&&&$$=%$%*$$$%%$*&$$=$&%%==%%&&&$$*%$%*$$&$$$$&=%%&&&$$=%$%*$$$%%$*&$$=$&%%==",
"%==$$&%%$%%$$$%%$$&*$&$$%%%%%%&$$$&&=$=&&$$$$$$*%%%==$$&%%$%%$$$%%$$&*$&$$%%%%%%&$$$&&=$=&&$$$$$$*%%%==$$&%%$%%$$$%%$$&*$&$$%%%%",
"%%%$$%%%$%%$$$%%$$=%$$=$=%%%%*$&$$%&$$$&%$$&$$*%%%%%%$$%%%$%%$$$%%$$=%$$=$=%%%%*$&$$%&$$$&%$$&$$*%%%%%%$$%%%$%%$$$%%$$=%$$=$=%%%",
"%==$%%%%$%%=%$%*$$*%$=&$$*%%%$$&$$%=$$$=%$$&$$*%%%%==$%%%%$%%=%$%*$$*%$=&$$*%%%$$&$$%=$$$=%$$&$$*%%%%==$%%%%$%%=%$%*$$*%$=&$$*%%",
"%==%%==%$%%%%%==$&&=$%=$$===*$$=%$%&$$$&%$%=$$*==%%==%%==%$%%%%%==$&&=$%=$$===*$$=%$%&$$$&%$%=$$*==%%==%%==%$%%%%%==$&&=$%=$$===",
"%==%%==%$%%%%$$&$*$$$%=&$&==&$&=%$$$$$$$$$%=&$&==%%==%%==%$%%%%$$&$*$$$%=&$&==&$&=%$$$$$$$$$%=&$&==%%==%%==%$%%%%$$&$*$$$%=&$&==",
"%==%%%%*$*%%&$$$$%$$$%===$%%$$==%$$$$$$$$$%==$$%%%%==%%%%*$*%%&$$$$%$$$%===$%%$$==%$$$$$$$$$%==$$%%%%==%%%%*$*%%&$$$$%$$$%===$%%",
"%%%%%%%$$$%*$$=*$%=$$*%%%*%%&*%%*$$=&$&=$$*%%$&%%%%%%%%%%$$$%*$$=*$%=$$*%%%*%%&*%%*$$=&$&=$$*%%$&%%%%%%%%%%$$$%*$$=*$%=$$*%%%*%%",
"%==%%=&$$$*&$$*%$*&$$&&=%%==%%==&$$*%$%*$$&==$%==%%==%%=&$$$*&$$*%$*&$$&&=%%==%%==&$$*%$%*$$&==$%==%%==%%=&$$$*&$$*%$*&$$&&=%%==",
"%==%%=&&$&*$$&%%$$$$$$$$%%==%%&$$$&&=$=&&$$$&$%==%%==%%=&&$&*$$&%%$$$$$$$$%%==%%&$$$&&=$=&&$$$&$%==%%==%%=&&$&*$$&%%$$$$$$$$%%==",
"%%%%%%%=$=%$$%%%$$=%$$=$=%%%%*$&$$%&$$$&%$$&$$%%%%%%%%%%%=$=%$$%%%$$=%$$=$=%%%%*$&$$%&$$$&%$$&$$%%%%%%%%%%%=$=%$$%%%$$=%$$=$=%%%",
"%%%%%%%*$*%$%%%*$$*%$$*$$*%%%$$=$$%=$$$=%$$=$$%*%%%%%%%%%*$*%$%%%*$$*%$$*$$*%%%$$=$$%=$$$=%$$=$$%*%%%%%%%%%*$*%$%%%*$$*%$$*$$*%%",
"%==%%%%%*%%%%%%=$&%%$%=$$=%%*$$=%$%=$$$=%$*$$$*&*%%==%%%%%*%%%%%%=$&%%$%=$$=%%*$$=%$%=$$$=%$*$$$*&*%%==%%%%%*%%%%%%=$&%%$%=$$=%%",
"%==%%==%%%%%%%%&$*==$%=&$&==&$&=%$&&$$$&&$$$&$&$$*%==%%==%%%%%%%%&$*==$%=&$&==&$&=%$&&$$$&&$$$&$&$$*%==%%==%%%%%%%%&$*==$%=&$&==",
"%%%%%==%%%%%%%%$$*==$%%%=$==$$%%%$$=$$$=$$$=%$$&$&%%%%%==%%%%%%%%$$*==$%%%=$==$$%%%$$=$$$=$$$=%$$&$&%%%%%==%%%%%%%%$$*==$%%%=$==",
"*%%%%%%%%%%%%%%$$$%%$%%%%*%%&*%%*$$*&$&*$$$*%$&*$$*%%%%%%%%%%%%%%$$$%%$%%%%*%%&*%%*$$*&$&*$$$*%$&*$$*%%%%%%%%%%%%%%$$$%%$%%%%*%%",
"&%%%%%%%%%%%$%*$$$&%$%=*%%%%%%%*=$$*%$%*$$&*%$%%&$=%%%%%%%%%%%$%*$$$&%$%=*%%%%%%%*=$$*%$%*$$&*%$%%&$=%%%%%%%%%%%$%*$$$&%$%=*%%%%",
"$==%%==%%%%%$%*&$$$=$%$$%%==%%&$&$*&=$=&$$&$&$%==$&==%%==%%%%%$%*&$$$=$%$$%%==%%&$&$*&=$=&$$&$&$%==$&==%%==%%%%%$%*&$$$=$%$$%%==",
"$==%%==%%%%%$%%=$$&=$%&$=%==%*$$$$%&$$$&$$$$$$%==*$==%%==%%%%%$%%=$$&=$%&$=%==%*$$$$%&$$$&$$$$$$%==*$==%%==%%%%%$%%=$$&=$%&$=%==",
"*%%%%%%%%%%%$%%=$$*%$%*$$*%%%$$==$%=$$$=*$==$$%*%%*%%%%%%%%%%%$%%=$$*%$%*$$*%%%$$==$%=$$$=*$==$$%*%%*%%%%%%%%%%%$%%=$$*%$%*$$*%%",
"%%%%%%%%%%%%$%%=$&%%$%%&$=%%*$$*%$%=$$$=%$*&$$*&*%%%%%%%%%%%%%$%%=$&%%$%%&$=%%*$$*%$%=$$$=%$*&$$*&*%%%%%%%%%%%%%$%%=$&%%$%%&$=%%",
"%==%%%%%%%%%$%%&$*%%$%=&$&%%&$&=%$&&$$$&&$$$&$&&$*%==%%%%%%%%%$%%&$*%%$%=&$&%%&$&=%$&&$$$&&$$$&$&&$*%==%%%%%%%%%$%%&$*%%$%=&$&%%",
"%==%%==%%%%%$%%$=%==$%===$==$$==%$$=$$$=$$$&=$$&$&%==%%==%%%%%$%%$=%==$%===$==$$==%$$=$$$=$$$&=$$&$&%==%%==%%%%%$%%$=%==$%===$==",
"*%%%%==%%%%%$%%*%%==$%%%%*==&*%%*$$*&$&*$$$*%$&=$$*%%%%==%%%%%$%%*%%==$%%%%*==&*%%*$$*&$&*$$$*%$&=$$*%%%%==%%%%%$%%*%%==$%%%%*==",
"&%%%%%%%%*=%$%=*%*=%$%=*%%%%%%%*=$$*%$%*$$&*%$%%&$=%%%%%%%%*=%$%=*%*=%$%=*%%%%%%%*=$$*%$%*$$&*%$%%&$=%%%%%%%%*=%$%=*%*=%$%=*%%%%",
"$%%%%%%%%$&%$%&$*$&%$%&$%%%%%%=&&$*&=$=&$$&&=$%%*$&%%%%%%%%$&%$%&$*$&%$%&$%%%%%%=&&$*&=$=&$$&&=$%%*$&%%%%%%%%$&%$%&$*$&%$%&$%%%%",
"$==%%==%=$=%$%=$$$&=$%&$=%==%*$$$$%&$$$&$$$$$$%==*$==%%==%=$=%$%=$$$&=$%&$=%==%*$$$$%&$$$&$$$$$$%==*$==%%==%=$=%$%=$$$&=$%&$=%==",
"*==%%==*$$*%$%*$$$&=$%&$$*==%$$&=$%=$$$=*$=&$$%==%*==%%==*$$*%$%*$$$&=$%&$$*==%$$&=$%=$$$=*$=&$$%==%*==%%==*$$*%$%*$$$&=$%&$$*==",
"%%%%%%%=$&%%$%%$$$%%$%%&$=%%*$$*%$%=$$$=%$*&$$*&*%%%%%%%%=$&%%$%%$$$%%$%%&$=%%*$$*%$%=$$$=%$*&$$*&*%%%%%%%%=$&%%$%%$$$%%$%%&$=%%",
"%%%%%%%&$*%%$%%&$&%%$%%*$&%%&$=%%$&&$$$&&$$&=$&&$*%%%%%%%&$*%%$%%&$&%%$%%*$&%%&$=%%$&&$$$&&$$&=$&&$*%%%%%%%&$*%%$%%&$&%%$%%*$&%%",
"%==%%%%&=%%%&%%&&&%%&%===&%%&&==%&&=&&&=&&&==&&*&&%==%%%%&=%%%&%%&&&%%&%===&%%&&==%&&=&&&=&&&==&&*&&%==%%%%&=%%%&%%&&&%%&%===&%%",
"--------------------------------------------------------------------------------------------------------------------------------",
";>;>,>,>;'';>,>,>;'';>,>,>;'';>,>,>;'';>,>,>;'';>,>,>;'';>,>,>;'';>,>,>;'';>,>,>;'';>,>,>;'';>,>,>;'';>,>,>;'';>,>,>;'';>,>,>;''",
")!)!~!~!){{)!~!~!){{)!~!~!){{)!~!~!){{)!~!~!){{)!~!~!){{)!~!~!){{)!~!~!){{)!~!~!){{)!~!~!){{)!~!~!){{)!~!~!){{)!~!~!){{)!~!~!){{",
"]]]]]]]]]]]]]]]]]]]]]]]]]]]]]]]]]]]]]]]]]]]]]]]]]]]]]]]]]]]]]]]]]]]]]]]]]]]]]]]]]]]]]]]]]]]]]]]]]]]]]]]]]]]]]]]]]]]]]]]]]]]]]]]]",
"]]]]]]]]]]]]]]]]]]]]]]]]]]]]]]]]]]]]]]]]]]]]]]]]]]]]]]]]]]]]]]]]]]]]]]]]]]]]]]]]]]]]]]]]]]]]]]]]]]]]]]]]]]]]]]]]]]]]]]]]]]]]]]]]",
"]]]]]]]]]]]]]]]]]]]]]]]]]]]]]]]]]]]]]]]]]]]]]]]]]]]]]]]]]]]]]]]]]]]]]]]]]]]]]]]]]]]]]]]]]]]]]]]]]]]]]]]]]]]]]]]]]]]]]]]]]]]]]]]]",
"]]]]]]]]]]]]]]]]]]]]]]]]]]]]]]]]]]]]]]]]]]]]]]]]]]]]]]]]]]]]]]]]]]]]]]]]]]]]]]]]]]]]]]]]]]]]]]]]]]]]]]]]]]]]]]]]]]]]]]]]]]]]]]]]",
"]]]]]]]]]]]]]]]]]]]]]]]]]]]]]]]]]]]]]]]]]]]]]]]]]]]]]]]]]]]]]]]]]]]]]]]]]]]]]]]]]]]]]]]]]]]]]]]]]]]]]]]]]]]]]]]]]]]]]]]]]]]]]]]]",
"]]]]]]]]]]]]]]]]]]]]]]]]]]]]]]]]]]]]]]]]]]]]]]]]]]]]]]]]]]]]]]]]]]]]]]]]]]]]]]]]]]]]]]]]]]]]]]]]]]]]]]]]]]]]]]]]]]]]]]]]]]]]]]]]",
"]]]]]]]]]]]]]]]]]]]]]]]]]]]]]]]]]]]]]]]]]]]]]]]]]]]]]]]]]]]]]]]]]]]]]]]]]]]]]]]]]]]]]]]]]]]]]]]]]]]]]]]]]]]]]]]]]]]]]]]]]]]]]]]]"};
