/* XPM */
static char * DO_destruct_N_S_02_xpm[] = {
"128 128 78 1",
" 	c None",
".	c #0E0707",
"+	c #1B0E0E",
"@	c #371C1C",
"#	c #452323",
"$	c #522B2B",
"%	c #603232",
"&	c #512B2B",
"*	c #532B2B",
"=	c #6D3939",
"-	c #5B3030",
";	c #361C1C",
">	c #351C1C",
",	c #341C1C",
"'	c #331C1C",
")	c #321C1B",
"!	c #50352D",
"~	c #7A5947",
"{	c #87654F",
"]	c #795947",
"^	c #51352D",
"/	c #4C2F29",
"(	c #53352E",
"_	c #331C1B",
":	c #604136",
"<	c #A58061",
"[	c #B89068",
"}	c #BD946A",
"|	c #BA9269",
"1	c #A78262",
"2	c #5F4136",
"3	c #5E4136",
"4	c #A07C5F",
"5	c #3B2220",
"6	c #9D795C",
"7	c #C49A6C",
"8	c #C69C6D",
"9	c #4E322B",
"0	c #3E2220",
"a	c #9A775B",
"b	c #A17D5F",
"c	c #AC8663",
"d	c #AF8965",
"e	c #AD8764",
"f	c #442825",
"g	c #B18A65",
"h	c #B38C66",
"i	c #755544",
"j	c #593B32",
"k	c #B58D67",
"l	c #6D4D3E",
"m	c #735443",
"n	c #65473A",
"o	c #A47F60",
"p	c #B78F67",
"q	c #C0966B",
"r	c #C2986C",
"s	c #C0976B",
"t	c #A68161",
"u	c #6B4D3E",
"v	c #AA8463",
"w	c #604236",
"x	c #AB8563",
"y	c #C59B6D",
"z	c #AE8864",
"A	c #B58E67",
"B	c #8D6B53",
"C	c #AC8561",
"D	c #B28A64",
"E	c #8F6B4E",
"F	c #936F51",
"G	c #54392E",
"H	c #74533E",
"I	c #856249",
"J	c #967152",
"K	c #4E3129",
"L	c #684A39",
"M	c #52352B",
".++++++++++++++++++++++++++++++++++++++++++++++++++++++++++++++++++++++++++++++++++++++++++++++++++++++++++++++++++++++++++++++.",
"+@@@@@@@@@@@@@@@@@@@@@@@@@@@@@@@@@@@@@@@@@@@@@@@@@@@@@@@@@@@@@@@@@@@@@@@@@@@@@@@@@@@@@@@@@@@@@@@@@@@@@@@@@@@@@@@@@@@@@@@@@@@@@@+",
"+@@@@@@@@@@@@@@@@@@@@@@@@@@@@@@@@@@@@@@@@@@@@@@@@@@@@@@@@@@@@@@@@@@@@@@@@@@@@@@@@@@@@@@@@@@@@@@@@@@@@@@@@@@@@@@@@@@@@@@@@@@@@@@+",
"+@@@@@@@@@@@@@@@@@@@@@@@@@@@@@@@@@@@@@@@@@@@@@@@@@@@@@@@@@@@@@@@@@@@@@@@@@@@@@@@@@@@@@@@@@@@@@@@@@@@@@@@@@@@@@@@@@@@@@@@@@@@@@@+",
"+@@@@@@@@@@@@@@@@@@@@@@@@@@@@@@@@@@@@@@@@@@@@@@@@@@@@@@@@@@@@@@@@@@@@@@@@@@@@@@@@@@@@@@@@@@@@@@@@@@@@@@@@@@@@@@@@@@@@@@@@@@@@@@+",
"+@@@@@@@@@@@@@@@@@@@@@@@@@@@@@@@@@@@@@@@@@@@@@@@@@@@@@@@@@@@@@@@@@@@@@@@@@@@@@@@@@@@@@@@@@@@@@@@@@@@@@@@@@@@@@@@@@@@@@@@@@@@@@@+",
"+@@@@@@@@@@@@@@@@@@@@@@@@@@@@@@@@@@@@@@@@@@@@@@@@@@@@@@@@@@@@@@@@@@@@@@@@@@@@@@@@@@@@@@@@@@@@@@@@@@@@@@@@@@@@@@@@@@@@@@@@@@@@@@+",
"+@@@@@@@@@@@@@@@@@@@@@@@@@@@@@@@@@@@@@@@@@@@@@@@@@@@@@@@@@@@@@@@@@@@@@@@@@@@@@@@@@@@@@@@@@@@@@@@@@@@@@@@@@@@@@@@@@@@@@@@@@@@@@@+",
"+@@@@@@@@@@@@@@@@@@@@@@@@@@@@@@@@@@@@@@@@@@@@@@@@@@@@@@@@@@@@@@@@@@@@@@@@@@@@@@@@@@@@@@@@@@@@@@@@@@@@@@@@@@@@@@@@@@@@@@@@@@@@@@+",
"+@@@@@@@@#$$$$$$$$$$$$$$$$$$$$$$$$$$$$$$$$$$$$$$$$$$$$$$$$$$$$$$$$$$$$$$$$$$$$$$$$$$$$$$$$$$$$$$$$$$$$$$$$$$$$$$$$$$$$#@@@@@@@@+",
"+@@@@@@@@$%&$**$$***&$**$$*$$****&$******&$***&****&***&*****&$**$&**$&**======-***&$**$$***&$**$$*$$****&$******&$**%$@@@@@@@@+",
"+@@@@@@@@$&;@@>,@;>@,;@@;;@;;@@,;@,;@@@@@@,>@@,@@@@,@@@@@@@@@;>@@@,@,,@@>       @@';@@>,@;>@,;@@;;@;;@@,;@,;@@@@@@,>@*$@@@@@@@@+",
"+@@@@@@@@$$@@;,@@;,@,;@@;;@;;@@@,,@,@@@@@@@,>@;@@@@@@;@,,>@@@@;@@@,,)@@;,       @';@@;,@@;,@,;@@;;@;;@@@,,@,@@@@@@@,>*$@@@@@@@@+",
"+@@@@@@@@$*@@'@@@;,@>;@@;;@;;@@@@;>;,@@@@@@@,>@@@@;>@;';@>,,,;@@@@>'@@;'@      @';@@@'@@@;,@>;@@;;@;;@@@@;>;,@@@@@@@,$$@@@@@@@@+",
"+@@@@@@@@$*@'@;>@;,@;;@@;;@;;@@,,;@@>,@@@@@@@,>@,@@>,@@,,@@@;,,,@;,@@@,@@      ';@@@'@;>@;,@;;@@;;@;;@@,,;@@>,@@@@@@@&$@@@@@@@@+",
"+@@@@@@@@$*,;@;,@;,@;;@@;;@;;@@@;,,;@,>@@@@,@@@@@';@;,;@;,,@@@@@;,@@@';@@      ;@@@,;@;,@;,@;;@@;;@;;@@@;,,;@,>@@@@,@*$@@@@@@@@+",
"+@@@@@@@@$&>@@;,@;;@;;@@;;@;;@@@@@;,;@,@@@@>>;;@,@,>@@,,@@>,;@@;,@@@';@@'      @@@,>@@;,@;;@;;@@;;@;;@@@@@;,;@,@@@@>>$$@@@@@@@@+",
"+@@@@@@@@$&@@@;,@;;@;;@@;;@;;@@;,,,;@@@@@@@@,@'@>,@,,@@>,@@@,>;'@@@),@@';      @@>,@@@;,@;;@;;@@;;@;;@@;,,,;@@@@@@@@,*$@@@@@@@@+",
"+@@@@@@@@$*@@@;>@;;@;;@@;;@;;@@@@@;,,,,>;@@@,;;,@,>@>,@@;,>@@;'@@@,,@@';@      @;,@@@@;>@;;@;;@@;;@;;@@@@@;,,,,>;@@@,$$@@@@@@@@+",
"+@@@@@@@@$*@@@;;@;;@;;@@;;@;;@@@@@@@@@@;,,,,;,@,;@,;@;'@@@,>;'@@@>,@@';@@      ;,@@@@@;;@;;@;;@@;;@;;@@@@@@@@@@;,,,,;&$@@@@@@@@+",
"+@@@@@@@@$$>@@;;@;;@;;@@;;@;;@@@;@@@@@@@@@@;@,@@,@@,@@;,;@@;'@@@;,@;);@@@      '@@;>@@;;@;;@;;@@;;@;;@@@;@@@@@@@@@@;@&$@@@@@@@@+",
"+@@@@@@@@$$;@@;;@;;@;;@@;;@;;@@@;,,,>;@@@@@@@>>@,>@;,@@@,;@'@@@;,@@'>@@@'      ;@@;;@@;;@;;@;;@@;;@;;@@@;,,,>;@@@@@@@$$@@@@@@@@+",
"+@@@@@@@@$$;@@;;@;;@;;@@;;@;;@@@@@@@;,,,,;@@@@,@@,@@>,@@@,>@@@@'@@,@@@@';      ;@@>;@@;;@;;@;;@@;;@;;@@@@@@@;,,,,;@@@*$@@@@@@@@+",
"+@@@@@@@@$&;@@;;@;;@;;@@;;@;;@@@@@@@@@@@;,,,,;,;@;,@@,;@@@;@@@'@@,@@@@';@      ,@@,;@@;;@;;@;;@@;;@;;@@@@@@@@@@@;,,,,$$@@@@@@@@+",
"+@@@@@@@@$&@@@;;@;;@;>@@;;@;;@@,,;@@@@@@@@@@;;;,@@,;@@,;@@@@@,;@,@@@@';@@      ,@@,@@@;;@;;@;>@@;;@;;@@,,;@@@@@@@@@@;$$@@@@@@@@+",
"+@@@@@@@@$&@@@;;@;;@;,@@;;@;;@@@;,,,,;@@@@@@@@@,@@@,@@@'@@@@,;@,@@@;);@@@      ,@@,@@@;;@;;@;,@@;;@;;@@@;,,,,;@@@@@@@*$@@@@@@@@+",
"+@@@@@@@@$&@@@;;@;;@;,@@;;@;;@@@@@@@;>,,,>;@@@@;>@@>,@@;,@@,>@,@@@@)>@@@@      >@@'@@@;;@;;@;,@@;;@;;@@@@@@@;>,,,>;@@*$@@@@@@@@+",
"+@@@@@@@@$&@@@;;@;;@;,@@;;@;;@@@@@@@@@@@@;,,,,;@,@@@,@@@;@>,@,@@@@';@@@@@,     ;@@,@@@;;@;;@;,@@;;@;;@@@@@@@@@@@@;,,,&$@@@@@@@@+",
"+@@@@@@@@$&@@@;;@;;@@,@@,;@,;@@;,,,;@@@@@@@@@;>;,;@@;,@@@>,@,@@@@';@@,;@';     >@@,@@@;;@;;@@,@@,;@,;@@;,,,;@@@@@@@@@$$@@@@@@@@+",
"+@@@@@@@@$&@@@;;@;;@@,@@,;@,;@@@@@;,,,,;@@@@@@@@@'@@@,;@;,@,@@@@',,@@@'';@     ;@@,@@@;;@;;@@,@@,;@,;@@@@@;,,,,;@@@@@*$@@@@@@@@+",
"+@@@@@@@@$&@@@;;@;;@@,@@,;@,;@@;;@@@@@;>,,,>@@@@@,@@@@'@;;,@@@@';@>';@@,,@     @@@,@@@;;@;;@@,@@,;@,;@@;;@@@@@;>,,,>@*$@@@@@@@@+",
"+@@@@@@@@$&@@@;;@;;@@,@@,;@,;@@;,,,,;@@@@@@>,,,@@>>@@@;,@,@@@@';@@@>)@@@>,     @@@,@@@;;@;;@@,@@,;@,;@@;,,,,;@@@@@@>,&$@@@@@@@@+",
"+@@@@@@@@$&@@@;;@;;@@,@@,;@,;@@@@@@;,,,>@@@@@@@@@@,@@@@',@@@@';@;@@@>,;@@;     @@@,@@@;;@;;@@,@@,;@,;@@@@@@;,,,>@@@@@*$@@@@@@@@+",
"+@@@@@@@@$$@@@;;@;;@@;@@;@@@@@@;;@@,;@@;,,,>@@;,;@,;@@;'@@@@';@@,,@@@@';@@     @@;>@@@;;@;;@@;@@;@@@@@@;;@@,;@@;,,,>@*$@@@@@@@@+",
"+@@@@@@@@$*@@@@@@@@@@@@@@@@@@@@@,,;;,,>@@@@>;;'@@@;,@;'@@@@';;@@@;'@@@@,>@     @@@@@@@@@@@@@@@@@@@@@@@@@,,;;,,>@@@@>;$$@@@@@@@@+",
"+@@@@@@@@$*@@@@@@@@@@@@@@@@@@@@@@;,,@@>,,>@@>,@;@@;,;'@@@@';@,,;@@;),@@@,>     @@@@@@@@@@@@@@@@@@@@@@@@@@;,,@@>,,>@@>&$@@@@@@@@+",
"+@@@@@@@@$*@@@@@@@@@@@@@@@@@@@;,@@@;,,@@@>;,,@;'@>,;'@@@@;;@@@;,,@@@',@@@,     @@@@@@@@@@@@@@@@@@@@@@@;,@@@;,,@@@>;,,*$@@@@@@@@+",
"+@@@@@@@@$&,,,,,,,,,,'',,,,,@@@;,;@@@;,,@@,>@;,@>,;'@@@@@@@,,@@@;';@@>,@@@     ;;,,,,,,,,,,,,'',,,,,@@@;,;@@@;,,@@,>@$$@@@@@@@@+",
"+@@@@@@@@$$;@@@@@@@@@@@@@@@@@@@@@';@@@@;;';@>,@>,;'@@@;@@@@@;';@@@,);@;,;@     ;;;;;@@@@@@@@@@@@@@@@@@@@@';@@@@;;';@>&$@@@@@@@@+",
"+@@@@@@@@$*@@@@@@@@@@@@@@@@@@@;@@@,>@@@;,;@>,@>,;'@@@@,,,;@@@@,,;@@;),@@,@     @@@@@@@@@@@@@@@@@@@@@@@;@@@,>@@@;,;@>,*$@@@@@@@@+",
"+@@@@@@@@$*@@@@@@@@@@@@@@@@@@@,>@@@>,@;'@@>,@>,;'@@@@@@@;,,,;@@;,,@@@;';@@     @@@@@@@@@@@@@@@@@@@@@@@,>@@@>,@;'@@>,@$$@@@@@@@@+",
"+@@@@@@@@$&,,,''''',,,,,,,,,,>@,,@@@;,;@@,>@>,;'@@@@;@@@@@@;,,,;@;',@@@,;@     ,,,,,,,''''',,,,,,,,,,>@,,@@@;,;@@,>@>&$@@@@@@@@+",
"+@@@@@@@@$*@@@@@@@@@@@@@@@@@@,@@;,;@@;,;@>@>,;'@@@@@>,,,>;@@@@;,,,;,);@@@@     @@@@@@@@@@@@@@@@@@@@@@,@@;,;@@;,;@>@>,$$@@@@@@@@+",
"+@@@@@@@@$*@@@@@@@@@@@@@@@@@@>,@@@,,@@@,>@>,;'@@@@>@@@@@;,,,,;@@@;,),';@@@     @@@@@@@@@@@@@@@@@@@@@@>,@@@,,@@@,>@>,;&$@@@@@@@@+",
"+@@@@@@@@$&,,,,,,,,,,,,,,,,,>@;'@@@;';@@>>,;'@@@@>,@>@@@@@@@;>,,,>;@;>@@;,     ,,,,,,,,,,,,,,,,,,,,,>@;'@@@;';@@>>,;'*$@@@@@@@@+",
"+@@@@@@@@$*@@@@@@@@@@@@@@@@@@@@;'@@@@,>@@@;'@@@@>,@;,;,,,,;;@@@@@;,)',;@@@     @@@@@@@@@@@@@@@@@@@@@@@@;'@@@@,>@@@;'@*$@@@@@@@@+",
"+@@@@@@@@$*;@@@@@@@@@@@@@@@@@;;@@,;@@@,,@@;@@@@>>@@,@@@@@;>,,,,,;;@@@;>@@@     @@@@;@@@@@@@@@@@@@@@@@;;@@,;@@@,,@@;@@*$@@@@@@@@+",
"+@@@@@@@@$*,>@@@>@@@@@;@@@;@@@';@@';@@@;';@@@@,>@@;,@@,@@@@@@@@;>,,'',;>,;     >@@@,>@@@>@@@@@;@@@ @@@';@@';@@@;';@@@*$@@@@@@@@+",
"+@@@@@@@@$*@,>@@>,@@@@,>@@;'@@@';@@,;@@@@,,@@,>@@@'@@,;@@@@@@@@@@@@@@>',@@     ;,@@@,>@@>,@@@@,>@@ '@@@';@@,;@@@@,,@@&$@@@@@@@@+",
"+@@@@@@@@$*@@,>@@>,@@@@,>@@;'@@@'@@@,>@@@@;,;>@@@,;@;,@@@@@@@@@@@@@@,,@@@>'    @;,@@@,>@@>,@@@@,>@ ;'@@@'@@@,>@@@@;,;$$@@@@@@@@+",
"+@@@@@@@@$&@@@,>@@;,@@@@,;@@;'@@@,@@@,>@@@@@,,@@@,@@,;@@;,,;;;@@@@;),@@;,,     @@;,@@@,>@@;,@@@@,; @;'@@@,@@@,>@@@@@,&$@@@@@@@@+",
"+@@@@@@@@$$,@@@,>@@;'@@@@,;@@;'@@@,@@@>,@@@@@>,@,;@;,@@@@@;;;,,;@,,@@@,,;@@    '@@;,@@@,>@@;'@@@@ ;@@;'@@@,@@@>,@@@@@$$@@@@@@@@+",
"+@@@@@@@@$*>,@@@,;@@;'@@@@';@@;,@@@'@@@>@@@;@@@@>@@,@@@@@@@@@@@;,;@@>'>@@@@    @@@@>,@@@,;@@;'@@@ ';@@;,@@@'@@@>@@@;@*$@@@@@@@@+",
"+@@@@@@@@$&;>,@@@,;@@;'@@@@';@@@,@@;'@@@@@@,@@@@@@@@@@@@@@@@@@,,@@@''@@@@@@    @@@,;>,@@@,;@@;'@@ @';@@@,@@;'@@@@@@,@*$@@@@@@@@+",
"+@@@@@@@@$$@@>,@@@,;@@;,@@@@';@@@,@@;'@@@@@,@@@>;@@;@@@;@@@@>,;@@;,>@@@@@@,    @;,>@@>,@@@,;@@;,  @@';@@@,@@;'@@@@@,@*$@@@@@@@@+",
"+@@@@@@@@$*@>@>,@@@,;@@@,;@@@';@@@,@@;;@@@@,;@@;;@@,@@@,@@@,>@@@,,@@@@@@;,;    >,@@@>@>,@@@,;@@@  @@@';@@@,@@;;@@@@,;*$@@@@@@@@+",
"+@@@@@@@@$$,;@@>,@@@,;@@@';@@@,@@@@,;@@@;;@>;@@;,@@,@@@,@@@@@@>,;@@@@@@,,@@    ,@@;,;@@>,@@@,;@@ ';@@@,@@@@,;@@@;;@>;*$@@@@@@@@+",
"+@@@@@@@@$&@@@;@>,@@@';@@@';@@@,@@@@';@@>;@;;@@@,@@,@@@>;@@@;,>@@@@@@;'>@@@    @@,,@@@;@>,@@@';@ @';@@@,@@@@';@@>;@;;*$@@@@@@@@+",
"+@@@@@@@@$*@;';@@>,@@@';@@@';@@;'@@@@';@;;@;,@@@,@@,;@@;,@@,,@@@@@@@,,@@@@@    @,>@@;';@@>,@@@'  @@';@@;'@@@@';@;;@;,*$@@@@@@@@+",
"+@@@@@@@@$*,,@@@@@>,@@@';@@@,;@@;'@@@@';;>@@,@@@,@@;>@@@,@';@@@@@@;),@@@@;,    ';@@,,@@@@@>,@@@  @@@,;@@;'@@@@';;>@@,*$@@@@@@@@+",
"+@@@@@@@@$&>@@@@;@@>,@@@';@@@,;@@;'@@@@'>,@@,@@@,@@;,@@@,@@@@@@@@,,;@@@@,,@   ,@@@,>@@@@;@@>,@@  ;@@@,;@@;'@@@@'>,@@,*$@@@@@@@@+",
"+@@@@@@@@$$;;;;@>,@@>,@@@';@@@,>@@;,@@@@@,@@,@@@,@@@,@@@,;@@@@@;,>@@;,>,>@@    @;';;;;;@>,@@>,@  ';@@@,>@@;,@@@@@,@@,*$@@@@@@@@+",
"+@@@@@@@@$*;;>,;@,;@@>,@@@';@@@,>@@;,@@@@,@@,@@@>;@@,@@@;,@@@@;,;@;))@;@@@,    ,,@@;;>,;@,;@@>,  @';@@@,>@@;,@@@@,@@,*$@@@@@@@@+",
"+@@@@@@@@$&,,,>;;@';@@>,@@@';@@@,>@@;,@@@,@@,@@@;>@@,@@@@,@@,@@@@'';>>@@@,>   '>@;,,,,>;;@';@@> @@@';@@@,>@@;,@@@,@@,*$@@@@@@@@+",
"+@@@@@@@@$*@;;;;;@@'@@@>,@@@';@@@,>@@>,@@,@@,@@@;,@@,@@@@,@@>;@@;,)@@>>@,;@    @@@@@;;;;;@@'@@  ,@@@';@@@,>@@>,@@,@@,*$@@@@@@@@+",
"+@@@@@@@@$&,,,,,>;@;,@@@>,@@@';@@@>,@@>;@,@@,@@@@,@@>;@@@,;@;,@@>@,)@@>>@@@    @>,,,,,,,>;@;,@  >,@@@';@@@>,@@>;@,@@,*$@@@@@@@@+",
"+@@@@@@@@$*@@@@;;;@@>,@@@>,@@@';@@@>,@@@@,@@,@@@@,@@;>@@@;>@@,@@,;@,,@@>,@,    @@@@@@@@;;;@@>,  @>,@@@';@@@>,@@@@,@@,*$@@@@@@@@+",
"+@@@@@@@@$*@@@@@@@@@@),@@@,)@@@);@@@,)@@@)@@,,@@@'@@@,@@@@'@@';@,)@@),@@,,@    @@@@@@@@@@@@@@)  @@,)@@@);@@@,)@@@)@@,&$@@@@@@@@+",
"+@@@@@@@@$*@@@@@@@@@@@);@@@,)@@;);@@@,)@@'@@,,@@@'@@@)@@@@)@@>,@@),@@)>@@,,    @@@@@@@@@@@@@@@  @@@,)@@;);@@@,)@@'@@,&$@@@@@@@@+",
"+@@@@@@@@$*@@@@@@@@@@@;'@@@@>,@@;,@@@@>,@,@@>,@@@,@@@,@@@@,@@@,@@,,,@;,@@@,    @@@@@@@@@@@@@@@ '@@@@>,@@;,@@@@>,@,@@>&$@@@@@@@@+",
"+@@@@@@@@$&,,,,,,,,;;;@;,@@@@>>@@@,@@@@;;,;@@,@@@>;@@,@@@@>>@@,@@@,'>@;'@@@    >,,',,,,,,,,;;; ;,@@@@>>@@@,@@@@;;,;@@&$@@@@@@@@+",
"+@@@@@@@@$*@@@@@@;;;;;@@>,@@@@>>@@@,@@@@@>;@@,@@@;>@@,@@@@@,@@>>@@,;)@@;,@@    @@@@@@@@@@;;;;; @>,@@@@>>@@@,@@@@@>;@@&$@@@@@@@@+",
"+@@@@@@@@$*@@@@@@@@@@@@@@,;@@@@>>@@;'@@@@;;@@,@@@@,@@>;@@@@,@@@,@@;,;!~{]^@    @@/~{~(@@@@@@@  @@,;@@@@>>@@;'@@@@;;@@&$@@@@@@@@+",
"+@@@@@@@@$&,,,,>;;;;;;@@@@';@@@@>>@@;'@@@;>@@,@@@@,@@;>@@@@,@@@,@@@_:<[}|12   ,'3444443>;;;;;  @@@';@@@@>>@@;'@@@;>@@&$@@@@@@@@+",
"+@@@@@@@@$*@@@;;;;;;>,,,,@@,@@@@@>>@@;'@@;,@@,@@@@,@@@,@@@@>;@@,;@@5678887<9   0abcdeb4f;;;;> ,,,@@,@@@@@>>@@;'@@;,@@&$@@@@@@@@+",
"+@@@@@@@@$*@@@@@@@@@@@@@@@@;,@@@@@>>@@;'@@,@@,@@@@,@@@,@@@@;,@@;,@@2g88888hi  @j4dkkkg4l@@@@@ @@@@@;,@@@@@>>@@;'@@,@@&$@@@@@@@@+",
"+@@@@@@@@$&,',,,,,,>;;;;;@@@>,@@@@@>>@@;,@,@@,@@@@,@@@,@@@@@,@@@,@@lh88888hm  'nopqrs[tu,,,>; ;;;@@@>,@@@@@>>@@;,@,@@&$@@@@@@@@+",
"+@@@@@@@@$*@@@@@@@;;;;;>,,,>@,;@@@@@,>@@@@,@@,@@@@,;@@,@@@@@,@@@,@@/v88888cw  @/xy888yzj@@;;; ;>,,,>@,;@@@@@,>@@@@,@@&$@@@@@@@@+",
"+@@@@@@@@$*@@@@@@@@@@@@@@@@@@@,;@@@@@,>@@@,@@,;@@@>;@@,;@@@@,;@@>>@@{A888AB@  @@C88888D@@@@@@ @@@@@@@@,;@@@@@,>@@@,@@&$@@@@@@@@+",
"+@@@@@@@@$*@@@;@@@@@@@@@@@@@@@@,@@@@@@,>@@,@@;;@@@;>@@>;@@@@;,@@@,@@0]<v<{0@  @@E88888F@@@@@  @@@@@@@@@,@@@@@@,>@@,@@$$@@@@@@@@+",
"+@@@@@@@@$*@@';@@,;@,@@@;;@;;@@;,@@@@@@,>@;@@;>@@@@,@@;,@@@@@,@@@,@@@@5^5@@,  @@G88888H@@,;@ @@@;;@;;@@;,@@@@@@,>@;@@$$@@@@@@@@+",
"+@@@@@@@@$*@';@@,>@@,@@@;;@;;@@@>,@@@@@@,>@@@;,@@@@,@@@,@@@@@,@@@>;@@@,,@@,>  @';I888J@@,>@@ @@@;;@;;@@@>,@@@@@@,>@@@$$@@@@@@@@+",
"+@@@@@@@@$*';@@>>@@@,;@@;;@;;@@@@,;@@@@@@,>@@@,@@@@,@@@,@@@@@,;@@;,@@>,@@>>@  ';@@KLM@@>>@@@ ;@@;;@;;@@@@,;@@@@@@,>@@*$@@@@@@@@+",
"+@@@@@@@@$&;@@>,@;>@,;@@;;@;;@@,;@,;@@@@@@,>@@,@@@@,@@@@@@@@@;>@@@,@,,@@>,@@  ;@@@';@@>,@;>@ ;@@;;@;;@@,;@,;@@@@@@,>@*$@@@@@@@@+",
"+@@@@@@@@$$@@;,@@;,@,;@@;;@;;@@@,,@,@@@@@@@,>@;@@@@@@;@,,>@@@@;@@@,,)@@;,@@@  @@@';@@;,@@;,@ ;@@;;@;;@@@,,@,@@@@@@@,>*$@@@@@@@@+",
"+@@@@@@@@$*@@'@@@;,@>;@@;;@;;@@@@;>;,@@@@@@@,>@@@@;>@;';@>,,,;@@@@>'@@;'@@@'  @@';@@@'@@@;,@ ;@@;;@;;@@@@;>;,@@@@@@@,$$@@@@@@@@+",
"+@@@@@@@@$*@'@;>@;,@;;@@;;@;;@@,,;@@>,@@@@@@@,>@,@@>,@@,,@@@;,,,@;,@@@,@@@';  @';@@@'@;>@;, ;;@@;;@;;@@,,;@@>,@@@@@@@&$@@@@@@@@+",
"+@@@@@@@@$*,;@;,@;,@;;@@;;@;;@@@;,,;@,>@@@@,@@@@@';@;,;@;,,@@@@@;,@@@';@@';@  ';@@@,;@;,@;, ;;@@;;@;;@@@;,,;@,>@@@@,@*$@@@@@@@@+",
"+@@@@@@@@$&>@@;,@;;@;;@@;;@;;@@@@@;,;@,@@@@>>;;@,@,>@@,,@@>,;@@;,@@@';@@';@@  ;@@@,>@@;,@;; ;;@@;;@;;@@@@@;,;@,@@@@>>$$@@@@@@@@+",
"+@@@@@@@@$&@@@;,@;;@;;@@;;@;;@@;,,,;@@@@@@@@,@'@>,@,,@@>,@@@,>;'@@@),@@';@@@  @@@>,@@@;,@;; ;;@@;;@;;@@;,,,;@@@@@@@@,*$@@@@@@@@+",
"+@@@@@@@@$*@@@;>@;;@;;@@;;@;;@@@@@;,,,,>;@@@,;;,@,>@>,@@;,>@@;'@@@,,@@';@@@'  @@;,@@@@;>@;; ;;@@;;@;;@@@@@;,,,,>;@@@,$$@@@@@@@@+",
"+@@@@@@@@$*@@@;;@;;@;;@@;;@;;@@@@@@@@@@;,,,,;,@,;@,;@;'@@@,>;'@@@>,@@';@@@';  @;,@@@@@;;@;; ;;@@;;@;;@@@@@@@@@@;,,,,;&$@@@@@@@@+",
"+@@@@@@@@$$>@@;;@;;@;;@@;;@;;@@@;@@@@@@@@@@;@,@@,@@,@@;,;@@;'@@@;,@;);@@@';@  @,@@;>@@;;@;;@;;@@;;@;;@@@;@@@@@@@@@@;@&$@@@@@@@@+",
"+@@@@@@@@$$;@@;;@;;@;;@@;;@;;@@@;,,,>;@@@@@@@>>@,>@;,@@@,;@'@@@;,@@'>@@@';@@  ';@@;;@@;;@; @;;@@;;@;;@@@;,,,>;@@@@@@@$$@@@@@@@@+",
"+@@@@@@@@$$;@@;;@;;@;;@@;;@;;@@@@@@@;,,,,;@@@@,@@,@@>,@@@,>@@@@'@@,@@@@';@@@  ;;@@>;@@;;@; @;;@@;;@;;@@@@@@@;,,,,;@@@*$@@@@@@@@+",
"+@@@@@@@@$&;@@;;@;;@;;@@;;@;;@@@@@@@@@@@;,,,,;,;@;,@@,;@@@;@@@'@@,@@@@';@@@@, @,@@,;@@;;@; @;;@@;;@;;@@@@@@@@@@@;,,,,$$@@@@@@@@+",
"+@@@@@@@@$&@@@;;@;;@;>@@;;@;;@@,,;@@@@@@@@@@;;;,@@,;@@,;@@@@@,;@,@@@@';@@@@>, @,@@,@@@;;@; @;>@@;;@;;@@,,;@@@@@@@@@@;$$@@@@@@@@+",
"+@@@@@@@@$&@@@;;@;;@;,@@;;@;;@@@;,,,,;@@@@@@@@@,@@@,@@@'@@@@,;@,@@@;);@@@@;,  ;,@@,@@@;;@; @;,@@;;@;;@@@;,,,,;@@@@@@@*$@@@@@@@@+",
"+@@@@@@@@$&@@@;;@;;@;,@@;;@;;@@@@@@@;>,,,>;@@@@;>@@>,@@;,@@,>@,@@@@)>@@@@;'@  ;>@@'@@@;;@>;@;,@@;;@;;@@@@@@@;>,,,>;@@*$@@@@@@@@+",
"+@@@@@@@@$&@@@;;@;;@;,@@;;@;;@@@@@@@@@@@@;,,,,;@,@@@,@@@;@>,@,@@@@';@@@@@,@;> ;;@@,@@@;;@;;@;,@@;;@;;@@@@@@@@@@@@;,,,&$@@@@@@@@+",
"+@@@@@@@@$&@@@;;@;;@@,@@,;@,;@@;,,,;@@@@@@@@@;>;,;@@;,@@@>,@,@@@@';@@,;@';@,; >;@@,@@@;;@;;@@,@@,;@,;@@;,,,;@@@@@@@@@$$@@@@@@@@+",
"+@@@@@@@@$&@@@;;@;;@@,@@,;@,;@@@@@;,,,,;@@@@@@@@@'@@@,;@;,@,@@@@',,@@@'';@@,@ ,;@@,@@@;;@;;@@,@@,;@,;@@@@@;,,,,;@@@@@*$@@@@@@@@+",
"+@@@@@@@@$&@@@;;@;;@@,@@,;@,;@@;;@@@@@;>,,,>@@@@@,@@@@'@;;,@@@@';@>';@@,,@@,@ ,@@@,@@@;;@;;@@,@@,;@,;@@;;@@@@@;>,,,>@*$@@@@@@@@+",
"+@@@@@@@@$&@@@;;@;;@@,@@,;@,;@@;,,,,;@@@@@@>,,,@@>>@@@;,@,@@@@';@@@>)@@@>,@>@ ,@@@,@@@;;@;;@@,@@,;@,;@@;,,,,;@@@@@@>,&$@@@@@@@@+",
"+@@@@@@@@$&@@@;;@;;@@,@@,;@,;@@@@@@;,,,>@@@@@@@@@@,@@@@',@@@@';@;@@@>,;@@;,;@ ,@@@,@@@;;@;;@@,@@,;@,;@@@@@@;,,,>@@@@@*$@@@@@@@@+",
"+@@@@@@@@$$@@@;;@;;@@;@@;@@@@@@;;@@,;@@;,,,>@@;,;@,;@@;'@@@@';@@,,@@@@';@@@,> ,@@;>@@@;;@;;@@;@@;@@@@@@;;@@,;@@;,,,>@*$@@@@@@@@+",
"+@@@@@@@@$*@@@@@@@@@@@@@@@@@@@@@,,;;,,>@@@@>;;'@@@;,@;'@@@@';;@@@;'@@@@,>@@@> ;@@@@@@@@@@@@@@@@@@@@@@@@@,,;;,,>@@@@>;$$@@@@@@@@+",
"+@@@@@@@@$*@@@@@@@@@@@@@@@@@@@@@@;,,@@>,,>@@>,@;@@;,;'@@@@';@,,;@@;),@@@,>@@@ @@@@@@@@@@@@@@@@@@@@@@@@@@@;,,@@>,,>@@>&$@@@@@@@@+",
"+@@@@@@@@$*@@@@@@@@@@@@@@@@@@@;,@@@;,,@@@>;,,@;'@>,;'@@@@;;@@@;,,@@@',@@@,,@@ @@@@@@@@@@@@@@@@@@@@@@@@;,@@@;,,@@@>;,,*$@@@@@@@@+",
"+@@@@@@@@$&,,,,,,,,,,'',,,,,@@@;,;@@@;,,@@,>@;,@>,;'@@@@@@@,,@@@;';@@>,@@@>@; ;;;,,,,,,,,,,,,'',,,,,@@@;,;@@@;,,@@,>@$$@@@@@@@@+",
"+@@@@@@@@$$;@@@@@@@@@@@@@@@@@@@@@';@@@@;;';@>,@>,;'@@@;@@@@@;';@@@,);@;,;@@@; ;;;;;;@@@@@@@@@@@@@@@@@@@@@';@@@@;;';@>&$@@@@@@@@+",
"+@@@@@@@@$*@@@@@@@@@@@@@@@@@@@;@@@,>@@@;,;@>,@>,;'@@@@,,,;@@@@,,;@@;),@@,@@@@ @@@@@@@@@@@@@@@@@@@@@@@@;@@@,>@@@;,;@>,*$@@@@@@@@+",
"+@@@@@@@@$*@@@@@@@@@@@@@@@@@@@,>@@@>,@;'@@>,@>,;'@@@@@@@;,,,;@@;,,@@@;';@@@@@ @@@@@@@@@@@@@@@@@@@@@@@@,>@@@>,@;'@@>,@$$@@@@@@@@+",
"+@@@@@@@@$&,,,''''',,,,,,,,,,>@,,@@@;,;@@,>@>,;'@@@@;@@@@@@;,,,;@;',@@@,;@@;, ,,,,,,,,''''',,,,,,,,,,>@,,@@@;,;@@,>@>&$@@@@@@@@+",
"+@@@@@@@@$*@@@@@@@@@@@@@@@@@@,@@;,;@@;,;@>@>,;'@@@@@>,,,>;@@@@;,,,;,);@@@@@@@ @@@@@@@@@@@@@@@@@@@@@@@,@@;,;@@;,;@>@>,$$@@@@@@@@+",
"+@@@@@@@@$*@@@@@@@@@@@@@@@@@@>,@@@,,@@@,>@>,;'@@@@>@@@@@;,,,,;@@@;,),';@@@@@@ @@@@@@@@@@@@@@@@@@@@@@@>,@@@,,@@@,>@>,;&$@@@@@@@@+",
"+@@@@@@@@$&,,,,,,,,,,,,,,,,,>@;'@@@;';@@>>,;'@@@@>,@>@@@@@@@;>,,,>;@;>@@;,,,, ,,,,,,,,,,,,,,,,,,,,,,>@;'@@@;';@@>>,;'*$@@@@@@@@+",
"+@@@@@@@@$*@@@@@@@@@@@@@@@@@@@@;'@@@@,>@@@;'@@@@>,@;,;,,,,;;@@@@@;,)',;@@@@@@ @@@@@@@@@@@@@@@@@@@@@@@@@;'@@@@,>@@@;'@*$@@@@@@@@+",
"+@@@@@@@@$*;@@@@@@@@@@@@@@@@@;;@@,;@@@,,@@;@@@@>>@@,@@@@@;>,,,,,;;@@@;>@@@@@@@@@@@@;@@@@@@@@@@@@@@@@@;;@@,;@@@,,@@;@@*$@@@@@@@@+",
"@@@@@@@@@$*,>@@@>@@@@@;@@@;@@@';@@';@@@;';@@@@,>@@;,@@,@@@@@@@@;>,,'',;>,;@@@@@>@@@,>@@@>@@@@@;@@@;@@@';@@';@@@;';@@@*$@@@@@@@@@",
"@@@@@@@@@$*@,>@@>,@@@@,>@@;'@@@';@@,;@@@@,,@@,>@@@'@@,;@@@@@@@@@@@@@@>',@@@,>@@;,@@@,>@@>,@@@@,>@@;'@@@';@@,;@@@@,,@@&$@@@@@@@@@",
"@@@@@@@@@$*@@,>@@>,@@@@,>@@;'@@@'@@@,>@@@@;,;>@@@,;@;,@@@@@@@@@@@@@@,,@@@>,;@@@@;,@@@,>@@>,@@@@,>@@;'@@@'@@@,>@@@@;,;$$@@@@@@@@@",
"@@@@@@@@@$&@@@,>@@;,@@@@,;@@;'@@@,@@@,>@@@@@,,@@@,@@,;@@;,,;;;@@@@;),@@;,,@@@@@@@;,@@@,>@@;,@@@@,;@@;'@@@,@@@,>@@@@@,&$@@@@@@@@@",
"@@@@@@@@@$$,@@@,>@@;'@@@@,;@@;'@@@,@@@>,@@@@@>,@,;@;,@@@@@;;;,,;@,,@@@,,;@@@@@;'@@;,@@@,>@@;'@@@@,;@@;'@@@,@@@>,@@@@@$$@@@@@@@@@",
"@@@@@@@@@$*>,@@@,;@@;'@@@@';@@;,@@@'@@@>@@@;@@@@>@@,@@@@@@@@@@@;,;@@>'>@@@@@@,,@@@@>,@@@,;@@;'@@@@';@@;,@@@'@@@>@@@;@*$@@@@@@@@@",
"@@@@@@@@@$&;>,@@@,;@@;'@@@@';@@@,@@;'@@@@@@,@@@@@@@@@@@@@@@@@@,,@@@''@@@@@@;,>@@@@,;>,@@@,;@@;'@@@@';@@@,@@;'@@@@@@,@*$@@@@@@@@@",
"@@@@@@@@@$$@@>,@@@,;@@;,@@@@';@@@,@@;'@@@@@,@@@>;@@;@@@;@@@@>,;@@;,>@@@@@@,,@@@@;,>@@>,@@@,;@@;,@@@@';@@@,@@;'@@@@@,@*$@@@@@@@@@",
"@@@@@@@@@$*@>@>,@@@,;@@@,;@@@';@@@,@@;;@@@@,;@@;;@@,@@@,@@@,>@@@,,@@@@@@;,;@@@@>,@@@>@>,@@@,;@@@,;@@@';@@@,@@;;@@@@,;*$@@@@@@@@@"};
