/* XPM */
static char * DO_destruct_N_S_03_xpm[] = {
"128 128 53 1",
" 	c None",
".	c #0E0707",
"+	c #1B0E0E",
"@	c #371C1C",
"#	c #452323",
"$	c #522B2B",
"%	c #603232",
"&	c #532B2B",
"*	c #512B2B",
"=	c #633434",
"-	c #6D3939",
";	c #5B2F2F",
">	c #341C1C",
",	c #361C1C",
"'	c #351C1C",
")	c #331C1C",
"!	c #321C1C",
"~	c #3C211F",
"{	c #644536",
"]	c #72523E",
"^	c #694939",
"/	c #3B211F",
"(	c #73523E",
"_	c #866349",
":	c #785641",
"<	c #432A25",
"[	c #856349",
"}	c #4E332A",
"|	c #5A3C30",
"1	c #5F4033",
"2	c #C69C6D",
"3	c #50332A",
"4	c #805F46",
"5	c #402522",
"6	c #4F332A",
"7	c #825F46",
"8	c #54372D",
"9	c #3F2522",
"0	c #4A2D26",
"a	c #926E50",
"b	c #9B7655",
"c	c #52352C",
"d	c #402521",
"e	c #BE9569",
"f	c #472D26",
"g	c #6F4E3B",
"h	c #805E46",
"i	c #53352C",
"j	c #6E4E3B",
"k	c #775641",
"l	c #492D26",
"m	c #5B3D31",
"n	c #7F5E46",
".++++++++++++++++++++++++++++++++++++++++++++++++++++++++++++++++++++++++++++++++++++++++++++++++++++++++++++++++++++++++++++++.",
"+@@@@@@@@@@@@@@@@@@@@@@@@@@@@@@@@@@@@@@@@@@@@@@@@@@@@@@@@@@@@@@@@@@@@@@@@@@@@@@@@@@@@@@@@@@@@@@@@@@@@@@@@@@@@@@@@@@@@@@@@@@@@@@+",
"+@@@@@@@@@@@@@@@@@@@@@@@@@@@@@@@@@@@@@@@@@@@@@@@@@@@@@@@@@@@@@@@@@@@@@@@@@@@@@@@@@@@@@@@@@@@@@@@@@@@@@@@@@@@@@@@@@@@@@@@@@@@@@@+",
"+@@@@@@@@@@@@@@@@@@@@@@@@@@@@@@@@@@@@@@@@@@@@@@@@@@@@@@@@@@@@@@@@@@@@@@@@@@@@@@@@@@@@@@@@@@@@@@@@@@@@@@@@@@@@@@@@@@@@@@@@@@@@@@+",
"+@@@@@@@@@@@@@@@@@@@@@@@@@@@@@@@@@@@@@@@@@@@@@@@@@@@@@@@@@@@@@@@@@@@@@@@@@@@@@@@@@@@@@@@@@@@@@@@@@@@@@@@@@@@@@@@@@@@@@@@@@@@@@@+",
"+@@@@@@@@@@@@@@@@@@@@@@@@@@@@@@@@@@@@@@@@@@@@@@@@@@@@@@@@@@@@@@@@@@@@@@@@@@@@@@@@@@@@@@@@@@@@@@@@@@@@@@@@@@@@@@@@@@@@@@@@@@@@@@+",
"+@@@@@@@@@@@@@@@@@@@@@@@@@@@@@@@@@@@@@@@@@@@@@@@@@@@@@@@@@@@@@@@@@@@@@@@@@@@@@@@@@@@@@@@@@@@@@@@@@@@@@@@@@@@@@@@@@@@@@@@@@@@@@@+",
"+@@@@@@@@@@@@@@@@@@@@@@@@@@@@@@@@@@@@@@@@@@@@@@@@@@@@@@@@@@@@@@@@@@@@@@@@@@@@@@@@@@@@@@@@@@@@@@@@@@@@@@@@@@@@@@@@@@@@@@@@@@@@@@+",
"+@@@@@@@@@@@@@@@@@@@@@@@@@@@@@@@@@@@@@@@@@@@@@@@@@@@@@@@@@@@@@@@@@@@@@@@@@@@@@@@@@@@@@@@@@@@@@@@@@@@@@@@@@@@@@@@@@@@@@@@@@@@@@@+",
"+@@@@@@@@#$$$$$$$$$$$$$$$$$$$$$$$$$$$$$$$$$$$$$$$$$$$$$$$$$$$$$$$$$$$$$$$$$$$$$$$$$$$$$$$$$$$$$$$$$$$$$$$$$$$$$$$$$$$$#@@@@@@@@+",
"+@@@@@@@@$%$$&&&*$&&$$&$$&&&&*$&&&&&&*$&&&*&&&&*&&&*&&&&&*$&=----------------------;$&&&*$&&$$&$$&&&&*$&&&&&&*$&&&*&&%$@@@@@@@@+",
"+@@@@@@@@$$>@,'@>,@@,,@,,@@),@),@@@@@@>'@@>@@@@>@@@@@@@@@,'@                       >@,'@>,@@,,@,,@@),@),@@@@@@>'@@>@@&$@@@@@@@@+",
"+@@@@@@@@$*@@,>@>,@@,,@,,@@@>>@)@@@@@@@>'@,@@@@@@,@'>'@@@@,@                       @@,>@>,@@,,@,,@@@>>@)@@@@@@@>'@,@@&$@@@@@@@@+",
"+@@@@@@@@$&@@,>@',@@,,@,,@@@@,',>@@@@@@@>'@@@@,'@,),@'>)',@@@                      @@,>@',@@,,@,,@@@@,',>@@@@@@@>'@@@&$@@@@@@@@+",
"+@@@@@@@@$$'@,>@,,@@,,@,,@@'>,@@'>@@@@@@@>'@>@@'>@@>)@@@,'>>@                      '@,>@,,@@,,@,,@@'>,@@'>@@@@@@@>'@>&$@@@@@@@@+",
"+@@@@@@@@$$>@,>@,,@@,,@,,@@@,>>,@>'@@@@'@@@@@),@,),@,)'@@@@@,                      >@,>@,,@@,,@,,@@@,>>,@>'@@@@'@@@@@*$@@@@@@@@+",
"+@@@@@@@@$$>@,,@,,@@,,@,,@@@@@,>,@>@@@@'',,@)@>'@@>>@@'),@@,>                      >@,,@,,@@,,@,,@@@@@,>,@>@@@@'',,@)&$@@@@@@@@+",
"+@@@@@@@@$$>@,,@,,@@,,@,,@@,>>',@@@@@@@@>@)@'>@>'@@')@@@>',)@                      >@,,@,,@@,,@,,@@,>>',@@@@@@@@>@)@'*$@@@@@@@@+",
"+@@@@@@@@$$'@,,@,,@@,,@,,@@@@@,'>>>',@@@>,,>@>'@'>@@,)'@@,)@@                      '@,,@,,@@,,@,,@@@@@,'>>>',@@@>,,>@*$@@@@@@@@+",
"+@@@@@@@@$$,@,,@,, @,,@,,@@@@@@@@@@,>>>',>@>,@>,@,)@@@>',)@@@                      ,@,,@,,@@,,@,,@@@@@@@@@@,>>>',>@>,&$@@@@@@@@+",
"+@@@@@@@@$$,@,,@,, @,,@,,@@@,@@@@@@@@@@,@>@@)@@)@@,>,@@,)@@@,>                     ,@,,@,,@@,,@,,@@@,@@@@@@@@@@,@>@@)&$@@@@@@@@+",
"+@@@@@@@@$$,@,,@,,  ,,@,,@@@,>>>',@@@@@@@''@''@,>@@@),@)@@@,)@                     ,@,,@,,@@,,@,,@@@,>>>',@@@@@@@''@'$$@@@@@@@@+",
"+@@@@@@@@$$,@,,@,,  ,,@,,@@@@@@@,>>>',@@@@)@@)@@'>@@@>'@@@@)@@                     ,@,,@,,@@,,@,,@@@@@@@,>>>',@@@@)@@*$@@@@@@@@+",
"+@@@@@@@@$$,@,,@,,   ,@,,@@@@@@@@@@@,'>>>,>,@,>@@>,@@@,@@@)@@>                     ,@,,@,,@@,,@,,@@@@@@@@@@@,'>>>,>,@$$@@@@@@@@+",
"+@@@@@@@@$$,@,,@,'@  ,@,,@@'',@@@@@@@@@@,,,>@@>,@@),@@@@@),@>@                     ,@,,@,'@@,,@,,@@'',@@@@@@@@@@,,,>@&$@@@@@@@@+",
"+@@@@@@@@$$,@,,@,>@   @,,@@@,'>>>,@@@@@@@@@>@@@)@@@)@@@@>,@>@@                     ,@,,@,>@@,,@,,@@@,'>>>,@@@@@@@@@>@&$@@@@@@@@+",
"+@@@@@@@@$$,@,,@,>@   @,,@@@@@@@,'>>>',@@@@,'@@''@@,>@@>'@>@@@                     ,@,,@,>@@,,@,,@@@@@@@,'>>>',@@@@,'&$@@@@@@@@+",
"+@@@@@@@@$$,@,,@,>@    ,,@@@@@@@@@@@@,'>>>,@)@@@)@@@,@''@>@@@@)                    ,@,,@,>@@,,@,,@@@@@@@@@ @@,'>>>,@)&$@@@@@@@@+",
"+@@@@@@@@$$,@,,@@>@    >,@@,>>',@@@@@@@@@,',',@@,>@@@'>@>@@@@!,                    ,@,,@@>@@>,@>,@@,>>',@@ @@@@@@,','$$@@@@@@@@+",
"+@@@@@@@@$$,@,,@@>@     ,@@@@@,'>>>,@@@@@@@@@)@@@>,@,>@>@@@@)>>                   ,,@,,@@>@@>,@>,@@@@@,'> >,@@@@@@@@@*$@@@@@@@@+",
"+@@@@@@@@$$,@,,@@>@     ,@ ,,@@@@@,'>>>'@@@@@>@@@@)@,,>@@@@),@'                   ,,@,,@@>@@>,@>,@@,,@@@@ ,'>>>'@@@@@*$@@@@@@@@+",
"+@@@@@@@@$$,@,,@@>@@     @@ '>>',@@@@@@'>>'@@''@@@,>@>@@@@),@@@                   ,,@,,@@>@@>,@>,@@,'>>'  @@@@@'>>'@@$$@@@@@@@@+",
"+@@@@@@@@$$,@,,@@>@@     @@ @@@,>>>'@@@@@@@@@@)@@@@)>@@@@),@,@@                   ,,@,,@@>@@>,@>,@@@@@@,  >'@@@@@@@@@&$@@@@@@@@+",
"+@@@@@@@@$$,@,,@@,@@      @  @@',@@,>>>'@@,),@>,@@,)@@@@),@@'>@                   ,,@,,@@,@@,@@@@@@,,@@'  @,>>>'@@,),&$@@@@@@@@+",
"+@@@@@@@@$&@@@@@@@@@       @ >,,>>'@@@@',,)@@@,>@,)@@@@),,@@@,)@                  @@@@@@@@@@@@@@@@@@>>,  >'@@@@',,)@@&$@@@@@@@@+",
"+@@@@@@@@$&@@@@@@@@@       @  >>@@'>>'@@'>@,@@,>,)@@@@),@'>,@@,!                  @@@@@@@@@@@@@@@@@@@,>  @'>>'@@'>@,@&$@@@@@@@@+",
"+@@@@@@@@$&@@@@@@@@@       )@ @,)>@@@',>>@,)@'>,)@@@@,,@@@,>>@@@                  @@@@@@@@@@@@@@@@,)@@   >@@@',>>@,)@$$@@@@@@@@+",
"+@@@@@@@@$*>>>>>>))>>       )  @@,)>@@>'@,>@'>,)@@@@@@@>>@@@,),@                  >>>>>>>))>>>>>@@@,),   ,)>@@>'@,>@'*$@@@@@@@@+",
"+@@@@@@@@$&@@@@@@@@@@          @@@@,,),@'>@'>,)@@@,@@@@@,),@@@>!                  @@@@@@@@@@@@@@@@@@@    @@,,),@'>@'>$$@@@@@@@@+",
"+@@@@@@@@$&@@@@@@@@@@@@      @  @@@,>,@'>@'>,)@@@@>)',@@@@>>,@@,)                 @@@@@@@@@@@@@@@@,@@    @@,>,@'>@'>,*$@@@@@@@@+",
"+@@@@@@@@$&@@@@@@@@@@@@@        >@,)@@'>@'>,)@@@@@@@,>)',@@,>>@@@                 @@@@@@@@@@@@@@@@)'    >@,)@@'>@'>,)&$@@@@@@@@+",
"+@@@@@@@@$*))))>>>>>>>>>>     @  ),@@>'@'>,)@@@@,@@@@@@,>)',@,)>@                 )))))>>>>>>>>>>'@'    ,),@@>'@'>,)@&$@@@@@@@@+",
"+@@@@@@@@$&@@@@@@@@@@@@@@'       ,>,@'@'>,)@@@@@'>>>',@@@@,>)',)!                 @@@@@@@@@@@@@@@'@@    @,>,@'@'>,)@@&$@@@@@@@@+",
"+@@@@@@@@$&@@@@@@@@@@@@@@'>       @)'@'>,)@@@@'@@@@@,>>>',@@@,>!)                 @@@@@@@@@@@@@@@'>     @@@)'@'>,)@@@&$@@@@@@@@+",
"+@@@@@@@@$*>>>>>>>>>>>>>'@,)      @@''>,)@@@@'>@'@@@@@@@,'>>>',@,                >>>>>>>>>>>>>>>'@,     ),@@''>,)@@@@$$@@@@@@@@+",
"+@@@@@@@@$&@@@@@@@@@@@@@@@@,)      @@@,)@@@@'>@,>,)>>>,,@@@@@,>!)                 @@@@@@@@@@@@@@@@     @@>'@@@,)@@@@'*$@@@@@@@@+",
"+@@@@@@@@$&@@@@@@@@@@@@@@,,@@)     >@@,@@@@''@@)@@@@@,'>)>>>,,@@@                 @@@@@@@@@@@@@@@,     @@@'>@@,@@@@''&$@@@@@@@@+",
"+@@@@@@@@$&@'@@@@@,@@@,@@@),@@)     ),@@@@>'@@,'@@>@@@@@@@@,'>)))>               @@@'@@@@@,@@@,@@      ,@@@,),@@@@>'@&$@@@@@@@@+",
"+@@@@@@@@$&@'>@@@@>'@@,)@@@),@@>    @>>@@>'@@@)@@>,@@@@@@@@@@@@@@,               '@@'>@@@@>'@@,)@      >,@@@@>>@@>'@@&$@@@@@@@@+",
"+@@@@@@@@$$@@'>@@@@>'@@,)@@@)@@@>    @,),'@@@',@,>@@@@@@@@@@@@@@>>               >'@@'>@@@@>'@@,)      @>'@@@@,),'@@@$$@@@@@@@@+",
"+@@@@@@@@$*'@@,>@@@@>,@@,)@@@>@@@>   @@@)'@@@)@@>,@@,>',,,@@@@,!>@               @>'@@,>@@@@>,@@      @@@>'@@@@@)'@@@*$@@@@@@@@+",
"+@@@@@@@@$&>'@@,)@@@@>,@@,)@@@>@@@'  @@@@'>@>,@,>@@@@@,,,>>,@>>@@@               @@>'@@,)@@@@>,@      >@@@'>@@@@@'>@>$$@@@@@@@@+",
"+@@@@@@@@$&@>,@@,)@@@@),@@,>@@@)@@@   @,@@@@'@@'@@@@@@@@@@@,),@@')               @@@>,@@,)@@@@),      @)@@@'@@@,@@@@'&$@@@@@@@@+",
"+@@@@@@@@$&@@>,@@,)@@@@),@@@>@@,)@@   @>@@@@@@@@@@@@@@@@@@)>@@@))@               >@@@>,@@,)@@@@)      @,)@@@@@@>@@@@@&$@@@@@@@@+",
"+@@@@@@@@$*@@@>,@@,)@@@@),@@@>@@,)@@   >@@@',@@,@@@,@@@@'),@@,)'@@@              '>@@@>,@@,)@@@      >@@,)@@@@@>@@@',&$@@@@@@@@+",
"+@@@@@@@@$$>@@@>,@@@>,@@@),@@@>@@,,@   >,@@,,@@>@@@>@@@)'@@@)>@@@@@              @'>@@@>,@@@>,@      @>@@,,@@@@>,@@,,&$@@@@@@@@+",
"+@@@@@@@@$&'>@@@>,@@@),@@@>@@@@),@@@,  ',@@,>@@>@@@>@@@@@@'),@@@@@@              @@'>@@@>,@@@),      @@),@@@,,@',@@,>&$@@@@@@@@+",
"+@@@@@@@@$$@'>@@@),@@@),@@@)@@@@),@@'   ,@@@>@@>@@@',@@@,)'@@@@@@,)              @,@'>@@@),@@@)      @@@),@@',@,,@@@>&$@@@@@@@@+",
"+@@@@@@@@$$@@'>@@@),@@@),@@,)@@@@),@,   '@@@>@@',@@,>@@>>@@@@@@@>>@              ),@@'>@@@),@@@      @@@@),@,,@,'@@@>&$@@@@@@@@+",
"+@@@@@@@@$&@@@'>@@@),@@@),@@,)@@@@),,'   @@@>@@,'@@@>@),@@@@@@,!>@@              @@@@@'>@@@),@@      )@@@@),,'@@>@@@>&$@@@@@@@@+",
"+@@@@@@@@$&@,@@'>@@@),@@@>,@@,)@@@@)'>   @@@>@@,>@@@>@@@@@@@@'>,@@@              @@@,@@'>@@@),@     @,)@@@@)'>@@>@@@>&$@@@@@@@@+",
"+@@@@@@@@$$@''@@'>@@@),@@@>'@@,)@@@@@>@  @@@>@@@>@@@',@@@@@,)'@@,)')             ,,@''@@'>@@@),     @@,)@@@@@>@@)@@@>&$@@@@@@@@+",
"+@@@@@@@@$*,@>,@@'>@@@),@@@>'@@,>@@@@>@   @@',@@>@@@,'@@@@,),@,!!@,@             '>,@>,@@'>@@@)     '@@,>@@@@>@@>@@@'$$@@@@@@@@+",
"+@@@@@@@@$$,,@),@@'>@@@),@@@>'@@,>@@@)@   @@,'@@>@@@@>@@'@@@@)),''@@            >>',,@),@@'>@@@     >'@@,>@@@)@@>@@@,$$@@@@@@@@+",
"+@@@@@@@@$$,,@@)@@@'>@@@),@@@>'@@'>@@>@@  @@,>@@>@@@@>@@',@@,>!@@''@             ,,,,@@)@@@'>@      @>'@@'>@@>@@)@@@,*$@@@@@@@@+",
"+@@@@@@@@$*>',@,>@@@'>@@@),@@@''@@',@>@@   @@>@@',@@@>,@,>@@'@'!@@''            >>>>',@,>@@@'>     @@@''@@',@>@@>@@@@*$@@@@@@@@+",
"+@@@@@@@@$&,,,@@''@@@'>@@@),@@@'>@@@@>@@>  @@>@@,'@@@,'@@>@@>,@>)@@'            @@@,,,@@''@@@'     ,@@@'>@@@@>@@>@@@@*$@@@@@@@@+",
"+@@@@@@@@$&@@@@@@!'@@@>!@@@!,@@@>!@@@!@@>   @)@@@)@@@@)@@),@'!@@!>@@>           @@@@@@@@@!'@@@     !,@@@>!@@@!@@>'@@@*$@@@@@@@@+",
"+@@@@@@@@$&@@@@@@@!,@@@>!@@,!,@@@>!@@)@@'   @)@@@!@@@@!@@'>@@!>@@!'@@           @@@@@@@@@@!,@@     ,!,@@@>!@@)@@''@@@*$@@@@@@@@+",
"+@@@@@@@@$&@@@@@@@,)@@@@'>@@,>@@@@'>@>@@''  @>@@@>@@@@>@@@>@@>>'@,)@@           @@@@@@@@@@,)@@    @@,>@@@@'>@>@@''@@@*$@@@@@@@@+",
"+@@@@@@@@$*>>>>,,,@,>@@@@''@@@>@@@@,,>,@@>   ',@@)@@@@''@@>@@@>)'@,)@           >>>>>>>,,,@,>@    '@@@>@@@@,,>,@@>@@@$$@@@@@@@@+",
"+@@@@@@@@$&@@,,,,,@@''@@@@''@@@)@@@@@',@@>@  ,'@@>@@@@@>@@''@@>,!@@,>           @@@@@,,,,,@@''    ''@@@)@@@@@',@@>@@@$$@@@@@@@@+",
"+@@@@@@@@$&@@@@@@@@@@>,@@@@''@@,)@@@@,,@@)@  ,>@@',@@@@>@@@>@@,',>@@'           @@@@@@@@@@@@@>    @''@@,)@@@@,,@@)@@@&$@@@@@@@@+",
"+@@@@@@@@$*',,,,,,@@@@),@@@@''@@,)@@@,'@@>@   >@@,'@@@@>@@@>@@@!@>'@@           >>>',,,,,,@@@@    @@''@@,)@@@,'@@>@@@&$@@@@@@@@+",
"+@@@@@@@@$$,,,,,'>>>>@@)@@@@@''@@,)@@,>@@>@@  >@@@>@@@@',@@',@@>>@)@@           @~{]^/,,'>>>>@   @@@@''@@,)@@,>@@>@@@&$@@@@@@@@+",
"+@@@@@@@@$&@@@@@@@@@@@@,>@@@@@''@@,)@@>@@)@@   @@@>@@@@,>@@,'@@,!@,)@@          @(___:@@@@@@@@   @@@@@''@@,)@@>@@)@@@&$@@@@@@@@+",
"+@@@@@@@@$*>>>>',,,,,@@@''@@@@@''@@,>@>@@>@@@  @@@>@@@@@>@ @>@@@),@'>@          <[[[[[}',,,,,    '@@@@@''@@,>@>@@>@@@&$@@@@@@@@+",
"+@@@@@@@@$&@@@,,,,,'>>>'@>,@@@ @''@@@@)@@>@@@  ,@@>@@@@@>@ @>@@@,>@@,@          |_____1,,,,'>>   >,@@@@@''@@@@)@@>@@@&$@@@@@@@@+",
"+@@@@@@@@$&@@@@@@@@@@@@@@@),@@ @@>'@@@>@@',@@   @@>,@@@@',@ ''@@@>@@@@          1__2__1@@@@@@    @),@@@@@>'@@@>@@',@@&$@@@@@@@@+",
"+@@@@@@@@$$@@@@@@@@@@@@@@@@)@@ @@@>'@@>@@,,@@@  @@',@@@@,'@ @>@@@''@',          3__2__|@@@@@@   @@@)@@@@@@>'@@>@@,,@@&$@@@@@@@@+",
"+@@@@@@@@$$@@>,@>@@@,,@,,@@,>@ @@@@>'@,@@,'@@@   @,'@@@@@>@ @>@@@@)''@          ~4_2_[5@>@@@,   ,@@,>@@@@@@>'@,@@,'@@&$@@@@@@@@+",
"+@@@@@@@@$&@>'@@>@@@,,@,,@@@'' @@@@@>'@@@,>@@@@  @@>@@@@@>@@ ',@@@>>@@>         )672[8@@>@@@,   ,@@@''@@@@@@>'@@@,>@@&$@@@@@@@@+",
"+@@@@@@@@$&''@@@>,@@,,@,,@@@@>, @@@@@>'@@@>@@@@  @@>@@@@@>,@ ,>@@'>@@''        ),@~29@@@>,@@,   ,@@@@>,@@@@@@>'@@@>@@&$@@@@@@@@+",
"+@@@@@@@@$$>@,'@>,@@,,@,,@@),@) @@@@@@>'@@>@@@@   @@@@@@@,'@  >@>>@@'>@        ,@@'2@,'@>,@@,   ,@@),@),@@@@@@>'@@>@@&$@@@@@@@@+",
"+@@@@@@@@$*@@,>@>,@@,,@,,@@@>>@ @@@@@@@>'@,@@@@@  @'>'@@@@,@@ >)!@@,>@@        @@,>2@,>@>,@@,  ,,@@@>>@)@@@@@@@>'@,@@&$@@@@@@@@+",
"+@@@@@@@@$&@@,>@',@@,,@,,@@@@,' >@@@@@@@>'@@@@,'  ),@'>)',@@@ ')@@,)@@@        @@)@2@,>@',@@,  ,,@@@@,',>@@@@@@@>'@@@&$@@@@@@@@+",
"+@@@@@@@@$$'@,>@,,@@,,@,,@@'>,@ '>@@@@@@@>'@>@@'> @>)@@@,'>>@ >@@@>@@@)        @)0a2bc>@,,@@,  ,,@@'>,@@'>@@@@@@@>'@>&$@@@@@@@@+",
"+@@@@@@@@$$>@,>@,,@@,,@,,@@@,>>  >'@@@@'@@@@@),@,  @,)'@@@@@,>@@@),@@),        >de222ef@,,@@   ,,@@@,>>,@>'@@@@'@@@@@*$@@@@@@@@+",
"+@@@@@@@@$$>@,,@,,@@,,@,,@@@@@,  @>@@@@'',,@)@>'@  >@@'),@@,>@@@),@@),@        'g22222h@,,@@   ,,@@@@@,>,@>@@@@'',,@)&$@@@@@@@@+",
"+@@@@@@@@$$>@,,@,,@@,,@,,@@,>>'  @@@@@@@>@)@'>@>'@ ')@@@>',)@@@!>@@),@@@       @h22222h@,,@@  @,,@@,>>',@@@@@@@@>@)@'*$@@@@@@@@+",
"+@@@@@@@@$$'@,,@,,@@,,@,,@@@@@,' >>',@@@>,,>@>'@'> @,)'@@,)@@@''@@),@@@)       @i22222j@,,@@  @,,@@@@@,'>>>',@@@>,,>@*$@@@@@@@@+",
"+@@@@@@@@$$,@,,@,,@@,,@,,@@@@@@@ @@,>>>',>@>,@>,@,) @@>',)@@@'>@@),@@@),       @@k222a,@,,@@  @,,@@@@@@@@@@,>>>',>@>,&$@@@@@@@@+",
"+@@@@@@@@$$,@,,@,,@@,,@,,@@@,@@@  @@@@@,@>@@)@@)@@, ,@@,)@@@,>@,!,@@@),@       '@@lm0,,@,,@@  @,,@@@,@@@@@@@@@@,@>@@)&$@@@@@@@@+",
"+@@@@@@@@$$,@,,@,,@@,,@,,@@@,>>>  @@@@@@@''@''@,>@@ ),@)@@@,)@@)'@@@),@@       ,@@,,@,,@,,@@  @,,@@@,>>>',@@@@@@@''@'$$@@@@@@@@+",
"+@@@@@@@@$$,@,,@,,@@,,@,,@@@@@@@  >>',@@@@)@@)@@'>@@ >'@@@@)@@>@@@@),@@@       ,@@,,@,,@,,@@ ,@,,@@@@@@@,>>>',@@@@)@@*$@@@@@@@@+",
"+@@@@@@@@$$,@,,@,,@@,,@,,@@@@@@@  @@,'>>>,>,@,>@@>,@ @,@@@)@@>@@@@),@@@@>      ,@@,,@,,@,,@@ ,@,,@@@@@@@@@@@,'>>>,>,@$$@@@@@@@@+",
"+@@@@@@@@$$,@,,@,'@@,,@,,@@'',@@  @@@@@@,,,>@@>,@@),@@@@@),@>@@@@),@@@@''      @@@,,@,,@,'@@ ,@,,@@'',@@@@@@@@@@,,,>@&$@@@@@@@@+",
"+@@@@@@@@$$,@,,@,>@@,,@,,@@@,'>>> ,@@@@@@@@>@@@)@@@)@@@@>,@>@@@,!,@@@@,>@     >@@@,,@,,@,>@@ ,@,,@@@,'>>>,@@@@@@@@@>@&$@@@@@@@@+",
"+@@@@@@@@$$,@,,@,>@@,,@,,@@@@@@@,  >>',@@@@,'@@''@@,>@@>'@>@@@@!'@@@@,)@@     )@@@,,@,,@,>@  ,@,,@@@@@@@,'>>>',@@@@,'&$@@@@@@@@+",
"+@@@@@@@@$$,@,,@,>@@,,@,,@@@@@@@@  @@,'>>>,@)@@@)@@@,@''@>@@@@),@@@@@>@,'     >@@@,,@,,@,>@ ,,@,,@@@@@@@@@@@@,'>>>,@)&$@@@@@@@@+",
"+@@@@@@@@$$,@,,@@>@@>,@>,@@,>>',@  @@@@@@,',',@@,>@@@'>@>@@@@!,@@>,@),@',     >@@@,,@,,@@>@ >,@>,@@,>>',@@@@@@@@@,','$$@@@@@@@@+",
"+@@@@@@@@$$,@,,@@>@@>,@>,@@@@@,'>  ,@@@@@@@@@)@@@>,@,>@>@@@@)>>@@@)),@@>@     >@@@,,@,,@@>@ >,@>,@@@@@,'>>>,@@@@@@@@@*$@@@@@@@@+",
"+@@@@@@@@$$,@,,@@>@@>,@>,@@,,@@@@  '>>>'@@@@@>@@@@)@,,>@@@@),@'),@@>>@@>@     >@@@,,@,,@@>@ >,@>,@@,,@@@@@,'>>>'@@@@@*$@@@@@@@@+",
"+@@@@@@@@$$,@,,@@>@@>,@>,@@,'>>',  @@@@'>>'@@''@@@,>@>@@@@),@@@'!@@@'>@'@@    >@@@,,@,,@@>@ >,@>,@@,'>>',@@@@@@'>>'@@$$@@@@@@@@+",
"+@@@@@@@@$$,@,,@@>@@>,@>,@@@@@@,>  '@@@@@@@@@@)@@@@)>@@@@),@,@@@'>,@@,),@@    >@@@,,@,,@@>@@>,@>,@@@@@@,>>>'@@@@@@@@@&$@@@@@@@@+",
"+@@@@@@@@$$,@,,@@,@@,@@@@@@,,@@',  ,>>>'@@,),@>,@@,)@@@@),@@'>@@@@),@@@>'@    '@@@,,@,,@@,@@,@@@@@@,,@@',@@,>>>'@@,),&$@@@@@@@@+",
"+@@@@@@@@$&@@@@@@@@@@@@@@@@@>>,,>> @@@@',,)@@@,>@,)@@@@),,@@@,)@@@@>'@@@'@    @@@@@@@@@@@@@@@@@@@@@@>>,,>>'@@@@',,)@@&$@@@@@@@@+",
"+@@@@@@@@$&@@@@@@@@@@@@@@@@@@,>>@@ >>'@@'>@,@@,>,)@@@@),@'>,@@,!'@@@>'@@@@    @@@@@@@@@@@@@@@@@@@@@@@,>>@@'>>'@@'>@,@&$@@@@@@@@+",
"+@@@@@@@@$&@@@@@@@@@@@@@@@,)@@@,)> @@',>>@,)@'>,)@@@@,,@@@,>>@@@)>@@@'>@@@    @@@@@@@@@@@@@@@@@@@@,)@@@,)>@@@',>>@,)@$$@@@@@@@@+",
"+@@@@@@@@$*>>>>>>))>>>>>@@@,),@@@, >@@>'@,>@'>,)@@@@@@@>>@@@,),@@')@@@'@,,    >>>>>>>>>>>))>>>>>@@@,),@@@,)>@@>'@,>@'*$@@@@@@@@+",
"+@@@@@@@@$&@@@@@@@@@@@@@@@@@@),@@@ ,,),@'>@'>,)@@@,@@@@@,),@@@>!,@,),@@@,,,   ,,@@@@@@@@@@@@@@@@@@@@@),@@@@,,),@'>@'>$$@@@@@@@@+",
"+@@@@@@@@$&@@@@@@@@@@@@@@@,@@@>'@@ ,>,@'>@'>,)@@@@>)',@@@@>>,@@,!>@@>@@@@@@   @@@@@@@@@@@@@@@@@@@@,@@@>'@@@,>,@'>@'>,*$@@@@@@@@+",
"+@@@@@@@@$&@@@@@@@@@@@@@@@)'@@@'>@ )@@'>@'>,)@@@@@@@,>)',@@,>>@@@,),@@@@@@@   @@@@@@@@@@@@@@@@@@@@)'@@@'>@,)@@'>@'>,)&$@@@@@@@@+",
"+@@@@@@@@$*))))>>>>>>>>>>'@'>@@@,) @@>'@'>,)@@@@,@@@@@@,>)',@,)>@@@>,@@,>>>   >>>>)))))>>>>>>>>>>'@'>@@@,),@@>'@'>,)@&$@@@@@@@@+",
"+@@@@@@@@$&@@@@@@@@@@@@@@'@@,),@@,>,@'@'>,)@@@@@'>>>',@@@@,>)',)!,@@@@@@@@@   @@@@@@@@@@@@@@@@@@@'@@,),@@,>,@'@'>,)@@&$@@@@@@@@+",
"+@@@@@@@@$&@@@@@@@@@@@@@@'>@@@>>@@@)'@'>,)@@@@'@@@@@,>>>',@@@,>!)),@@@@@@@@   @@@@@@@@@@@@@@@@@@@'>@@@>>@@@)'@'>,)@@@&$@@@@@@@@+",
"+@@@@@@@@$*>>>>>>>>>>>>>'@,)@@@,),@@''>,)@@@@'>@'@@@@@@@,'>>>',@,'@@,>>>>>>> >>>>>>>>>>>>>>>>>>>'@,)@@@,),@@''>,)@@@@$$@@@@@@@@+",
"+@@@@@@@@$&@@@@@@@@@@@@@@@@,)@@@@>'@@@,)@@@@'>@,>,)>>>,,@@@@@,>!)>,@@@@@@@@@  @@@@@@@@@@@@@@@@@@@@@,)@@@@>'@@@,)@@@@'*$@@@@@@@@+",
"+@@@@@@@@$&@@@@@@@@@@@@@@,,@@),@@@'>@@,@@@@''@@)@@@@@,'>)>>>,,@@@,'@@@@@@@@@  @,@@@@@@@@@@@@@@@@@,,@@),@@@'>@@,@@@@''&$@@@@@@@@+",
"@@@@@@@@@$&@'@@@@@,@@@,@@@),@@),@@@,),@@@@>'@@,'@@>@@@@@@@@,'>)))>,'),@@@@@' @@>'@@@'@@@@@,@@@,@@@),@@),@@@,),@@@@>'@&$@@@@@@@@@",
"@@@@@@@@@$&@'>@@@@>'@@,)@@@),@@>,@@@@>>@@>'@@@)@@>,@@@@@@@@@@@@@@')'@@@>'@@, @@@>'@@'>@@@@>'@@,)@@@),@@>,@@@@>>@@>'@@&$@@@@@@@@@",
"@@@@@@@@@$$@@'>@@@@>'@@,)@@@)@@@>'@@@@,),'@@@',@,>@@@@@@@@@@@@@@>>@@@'),@@@@ >@@@>'@@'>@@@@>'@@,)@@@)@@@>'@@@@,),'@@@$$@@@@@@@@@",
"@@@@@@@@@$*'@@,>@@@@>,@@,)@@@>@@@>'@@@@@)'@@@)@@>,@@,>',,,@@@@,!>@@h222222h@ ,>@@@>'@@,>@@@@>,@@,)@@@>@@@>'@@@@@)'@@@*$@@@@@@@@@",
"@@@@@@@@@$&>'@@,)@@@@>,@@,)@@@>@@@'>@@@@@'>@>,@,>@@@@@,,,>>,@>>@@@'n222222h) @,>@@@>'@@,)@@@@>,@@,)@@@>@@@'>@@@@@'>@>$$@@@@@@@@@",
"@@@@@@@@@$&@>,@@,)@@@@),@@,>@@@)@@@'@@@,@@@@'@@'@@@@@@@@@@@,),@@')'h222222n@@@@'>@@@>,@@,)@@@@),@@,>@@@)@@@'@@@,@@@@'&$@@@@@@@@@",
"@@@@@@@@@$&@@>,@@,)@@@@),@@@>@@,)@@@@@@>@@@@@@@@@@@@@@@@@@)>@@@))@@h222222h@@@','>@@@>,@@,)@@@@),@@@>@@,)@@@@@@>@@@@@&$@@@@@@@@@",
"@@@@@@@@@$*@@@>,@@,)@@@@),@@@>@@,)@@@@@>@@@',@@,@@@,@@@@'),@@,)'@@@h222222h@,)'@@'>@@@>,@@,)@@@@),@@@>@@,)@@@@@>@@@',&$@@@@@@@@@",
"@@@@@@@@@$$>@@@>,@@@>,@@@),@@@>@@,,@@@@>,@@,,@@>@@@>@@@)'@@@)>@@@@@h222222h')@@@'@'>@@@>,@@@>,@@@),@@@>@@,,@@@@>,@@,,&$@@@@@@@@@"};
