/* XPM */
static char * DO_destruct_N_S_04_xpm[] = {
"128 128 32 1",
" 	c None",
".	c #0E0707",
"+	c #1B0E0E",
"@	c #371C1C",
"#	c #452323",
"$	c #522B2B",
"%	c #603232",
"&	c #532B2B",
"*	c #623333",
"=	c #5B3030",
"-	c #5F3131",
";	c #6D3939",
">	c #5C3030",
",	c #512B2B",
"'	c #341C1C",
")	c #361C1C",
"!	c #331C1C",
"~	c #351C1C",
"{	c #321C1C",
"]	c #502B2B",
"^	c #532C2C",
"/	c #5E3131",
"(	c #633434",
"_	c #5D3131",
":	c #5A2F2F",
"<	c #572D2D",
"[	c #562D2D",
"}	c #C69C6D",
"|	c #5A3D31",
"1	c #5D3E31",
"2	c #593D31",
"3	c #5B3D31",
".++++++++++++++++++++++++++++++++++++++++++++++++++++++++++++++++++++++++++++++++++++++++++++++++++++++++++++++++++++++++++++++.",
"+@@@@@@@@@@@@@@@@@@@@@@@@@@@@@@@@@@@@@@@@@@@@@@@@@@@@@@@@@@@@@@@@@@@@@@@@@@@@@@@@@@@@@@@@@@@@@@@@@@@@@@@@@@@@@@@@@@@@@@@@@@@@@@+",
"+@@@@@@@@@@@@@@@@@@@@@@@@@@@@@@@@@@@@@@@@@@@@@@@@@@@@@@@@@@@@@@@@@@@@@@@@@@@@@@@@@@@@@@@@@@@@@@@@@@@@@@@@@@@@@@@@@@@@@@@@@@@@@@+",
"+@@@@@@@@@@@@@@@@@@@@@@@@@@@@@@@@@@@@@@@@@@@@@@@@@@@@@@@@@@@@@@@@@@@@@@@@@@@@@@@@@@@@@@@@@@@@@@@@@@@@@@@@@@@@@@@@@@@@@@@@@@@@@@+",
"+@@@@@@@@@@@@@@@@@@@@@@@@@@@@@@@@@@@@@@@@@@@@@@@@@@@@@@@@@@@@@@@@@@@@@@@@@@@@@@@@@@@@@@@@@@@@@@@@@@@@@@@@@@@@@@@@@@@@@@@@@@@@@@+",
"+@@@@@@@@@@@@@@@@@@@@@@@@@@@@@@@@@@@@@@@@@@@@@@@@@@@@@@@@@@@@@@@@@@@@@@@@@@@@@@@@@@@@@@@@@@@@@@@@@@@@@@@@@@@@@@@@@@@@@@@@@@@@@@+",
"+@@@@@@@@@@@@@@@@@@@@@@@@@@@@@@@@@@@@@@@@@@@@@@@@@@@@@@@@@@@@@@@@@@@@@@@@@@@@@@@@@@@@@@@@@@@@@@@@@@@@@@@@@@@@@@@@@@@@@@@@@@@@@@+",
"+@@@@@@@@@@@@@@@@@@@@@@@@@@@@@@@@@@@@@@@@@@@@@@@@@@@@@@@@@@@@@@@@@@@@@@@@@@@@@@@@@@@@@@@@@@@@@@@@@@@@@@@@@@@@@@@@@@@@@@@@@@@@@@+",
"+@@@@@@@@@@@@@@@@@@@@@@@@@@@@@@@@@@@@@@@@@@@@@@@@@@@@@@@@@@@@@@@@@@@@@@@@@@@@@@@@@@@@@@@@@@@@@@@@@@@@@@@@@@@@@@@@@@@@@@@@@@@@@@+",
"+@@@@@@@@#$$$$$$$$$$$$$$$$$$$$$$$$$$$$$$$$$$$$$$$$$$$$$$$$$$$$$$$$$$$$$$$$$$$$$$$$$$$$$$$$$$$$$$$$$$$$$$$$$$$$$$$$$$$$#@@@@@@@@+",
"+@@@@@@@@$%&*=&&$$&$$&&-;;;;;;;;;;;;;;;;;;;;;;;;;;;;;;;;;;;;;;;;;;;;;;;;;;;;;;;;;;;;;;;;;;;;;;;>&,$&&&&&&,$&&&,&&&&,&%$@@@@@@@@+",
"+@@@@@@@@$$@' @@))@))@@!                                                                       !)@!)@@@@@@'~@@'@@@@'@&$@@@@@@@@+",
"+@@@@@@@@$,@'  @))@))@@@                                                                       )'' !      @'~@)@@@@@@$$@@@@@@@@+",
"+@@@@@@@@$,@~  @))@))@@@@                                                                                @@@'~@@@@)~@$$@@@@@@@@+",
"+@@@@@@@@$,@)   ))@))@@~'                                                                                @@@@'~@'@@~'&$@@@@@@@@+",
"+@@@@@@@@$,@)   ))@))@@@)'                                                                             @@@@~@@@@@!)@),$@@@@@@@@+",
"+@@@@@@@@$$@)    )@))@@@@@                                                                            '@@@@~~))@!@'~@&$@@@@@@@@+",
"+@@@@@@@@$$@)    )@))@@)''~                                                                         @@@@@@@@'@!@~'@'~&$@@@@@@@@+",
"+@@@@@@@@$$@)     @))@@@@@)                                                                        ~'''~)@@@'))'@'~@~,$@@@@@@@@+",
"+@@@@@@@@$$@))     ))@@@@@@                                                                        @@@@)'''~)'@') ')@$$@@@@@@@@+",
"+@@@@@@@@$$@))     ))@@@)@@@                                                                        @@@@@@@)@'@@! @!@&$@@@@@@@@+",
"+@@@@@@@@$$@))      )@@@)'''                                                                        ~)@@@@@@@~~@~ @)'&$@@@@@@@@+",
"+@@@@@@@@$$@))      )@@@@@@@)                                                                      @)'''~)@@@@!@@!@@~,$@@@@@@@@+",
"+@@@@@@@@$$@))       @@@@@@@@                                                                      @@@@@)~''')')@ '@@,$@@@@@@@@+",
"+@@@@@@@@$$@)~       @@~~)@@@@                                                                    @@@@@@@@@@)))'  ')@&$@@@@@@@@+",
"+@@@@@@@@$$@)'@       @@)~''')                                                                   ~''')@@@@ @@@@'  @!@&$@@@@@@@@+",
"+@@@@@@@@$$@)'@       @@@@@@)~'                                                                 @@@@)~'''~ @@@@)  @~~&$@@@@@@@@+",
"+@@@@@@@@$$@)'@        @@@@@@@@                                                                 @@@@@@@@@ ~''')@  @@!&$@@@@@@@@+",
"+@@@@@@@@$$@@'@         ''~)@@@                                                                 ''~)@@@@@ @@@)~)  @@),$@@@@@@@@+",
"+@@@@@@@@$$@@'@         @@)~''')                                                                @@)~''')  @@@@@@ !@@@,$@@@@@@@@+",
"+@@@@@@@@$$@@'@          @ @@@)~                                                                )@@@@@)   '~@@@@ '@@@&$@@@@@@@@+",
"+@@@@@@@@$$@@'@          ''~)@@@@                                                               ~''~)@@  @@~''~@  ~@@&$@@@@@@@@+",
"+@@@@@@@@$$@@'@@          @ '''~@                                                              @@@@)''   @@@@@@)  !@@&$@@@@@@@@+",
"+@@@@@@@@$$@@)@@          @  @@)''                                                            @))@@~)@   ''~@@)!  ')@&$@@@@@@@@+",
"+@@@@@@@@$&@@@@@           ) '~@@@                                                           @@@''))'    @@~))!   )'@$$@@@@@@@@+",
"+@@@@@@@@$&@@@@@           '  ~''~                                                          @@@@@)'')   '~@@~'@   )'),$@@@@@@@@+",
"+@@@@@@@@$&@@@@@            ! @@@~)                                                        @@@)!@@@)    @~)''@)   ')!&$@@@@@@@@+",
"+@@@@@@@@$,''!!'               '@@'                                                        '@@@)!)@     @@'~@)'  ')!@&$@@@@@@@@+",
"+@@@@@@@@$&@@@@@@              ))!)@                                                       @@@@@@!)    ))!)@~'@  )!@@&$@@@@@@@@+",
"+@@@@@@@@$&@@@@@@               ')@~                                                       @@@)@@@     )')@~'@~  !@@@&$@@@@@@@@+",
"+@@@@@@@@$&@@@@@@               @@~'@                                                     @@@@!~@@     !@@~'@~'  @@@@&$@@@@@@@@+",
"+@@@@@@@@$,''''''                '~@~                                                     '''~@~'      @@'~@~')  @@@)&$@@@@@@@@+",
"+@@@@@@@@$&@@@@@@                ~@~')                                                    @@@~@@      ')@~@~')!  @@@~,$@@@@@@@@+",
"+@@@@@@@@$&@@@@@@@                ~')!                                                    @@@~'@      @!~@~')!   @~@@&$@@@@@@@@+",
"+@@@@@@@@$,''''''''               ')!@                                                    ''~@)       @@~~')!@   ~'@~&$@@@@@@@@+",
"+@@@@@@@@$&@@@@@@@@@               !@@@                                                   @@@@@      '~@@@)!@@   '@)'$$@@@@@@@@+",
"+@@@@@@@@$&@@@@@@@@@@              @@@@                                                  @@@@)       @~'@@)@@@  ~@@!@&$@@@@@@@@+",
"+@@@@@@@@$&@@@)@@@)@@@!             @@'~                                                 @)@@        @@)!)@@@@  @@)~@&$@@@@@@@@+",
"+@@@@@@@@$&@@@'~@@)!@@@!            @'~@                                                 @)!@        @@@@''@@'  @@!@@,$@@@@@@@@+",
"+@@@@@@@@$,@@@@'~@@)!@@@!            ~@@@                                                @@)        '~@@@@)!)~  @~)@),$@@@@@@@@+",
"+@@@@@@@@$$'@@@@')@@)!@@@'           ~@@@                                                )@@        @'~@@@@@!~  @!@@'$$@@@@@@@@+",
"+@@@@@@@@$&)!@@@@')@@)!@@@'          ~'@')                                               ')         @@~'@@@@@   ')@)'&$@@@@@@@@+",
"+@@@@@@@@$&@)!@@@@!)@@)'@@@!          @@~@                                              @@!         @@@~@@@)@   ~@@~@&$@@@@@@@@+",
"+@@@@@@@@$$@@)!@@@@!)@@@'@@)!@        @@@@                                              @@@        )!@@@@@@'@  @@@@@@&$@@@@@@@@+",
"+@@@@@@@@$,)@@)!@@@@!)@@@'@@)!@        ~)@@                                             @@@        @)!@@@@@'@  ~)@@)@&$@@@@@@@@+",
"+@@@@@@@@$&')@@@')@@@!)@@@'@@))@       ))@@                                             ')         @@))@@@@')  ))@@'@&$@@@@@@@@+",
"+@@@@@@@@$&@')@@@!)@@@'@@@@!)@@@)      )'@@'                                            @!        )!)@@@))@~)  )'@@'@&$@@@@@@@@+",
"+@@@@@@@@$&@@!)@@@!)@@@!@@@@!)@@~)      '@@'                                            @@        @@!)@@~)@))  @'@@'@&$@@@@@@@@+",
"+@@@@@@@@$,@@@!)@@@!)@@)!@@@@!)@))@     '@@~)                                          )@@        @@@!)@))@)~  @'@@~)&$@@@@@@@@+",
"+@@@@@@@@$$'@@@!)@@@!)@@)!@@@@!))~@@'    @@)~                                          !)@        @@@@!))~@@'  @'@@)~&$@@@@@@@@+",
"+@@@@@@@@$&~'@@@!)@@@')@@)!@@@@!~'@@'@   @@)'@                                         @!)       )!@@@@!~'@@' @@'@@)'&$@@@@@@@@+",
"+@@@@@@@@$&@~'@@@!)@@@'~@@)!@@@@@'@@!@@   @@'@                                         @@!       @)!@@@@@'@@  @@'@@@'&$@@@@@@@@+",
"+@@@@@@@@$$@@~'@@@!)@@@'~@@)'@@@@'@@'@@   @@'@                                         @@@       @@)'@@@@'@@  @@~)@@'&$@@@@@@@@+",
"+@@@@@@@@$,)@@~'@@@!)@@@'~@@)'@@@!@@'@@    @'@@                                        '@       '~@@)'@@@!@@  @@)~@@'&$@@@@@@@@+",
"+@@@@@@@@$&!@@@~'@@@!)@@@'~@@~'@@'@@!@@@   @'@@                                       @~'       @'~@@~'@@'@@  @@)'@@'&$@@@@@@@@+",
"+@@@@@@@@$&)'@@@~'@@@!)@@@~~@@~)@'@@'@@@   @~)@@                                      @@~       @@~~@@~)@'@   @@@'@@~$$@@@@@@@@+",
"+@@@@@@@@$&@~~@@@~'@@@!)@@@~'@@@@'@@'@@@@  @)~@@                                      @@@       @@@~'@@@@'@   @@@'@@)$$@@@@@@@@+",
"+@@@@@@@@$&@@{~@@@'{@@@{)@@@'{@@@{@@'~@@@  @@!@@@                                     ~@@      !)@@@'{@@@{@  ~@@@!@@@,$@@@@@@@@+",
"+@@@@@@@@$&@@@{)@@@'{@@){)@@@'{@@!@@~~@@@   @{@@@                                     {)@      ){)@@@'{@@!   ~@@@!@@@]$@@@@@@@@+",
"+@@@@@@@@$&@@@)!@@@@~'@@)'@@@@~'@'@@~~@@@'  @'@@@@                                   @)!@      @)'@@@@~'@'   ~@@@'@@@,$@@@@@@@@+",
"+@@@@@@@@$^)))@)'@@@@~~@@@'@@@@))')@@'@@@~   !@@@@                                   )@)'      @@@'@@@@))'   '@@@~)@@,$@@@@@@@@+",
"+@@@@@@@@$/)))@@~~@@@@~~@@@!@@@@@~)@@'@@@)~  '@@@                                    )@@      ~~@@@!@@@@@    '@@@)~@@,$@@@@@@@@+",
"+@@@@@@@@$;@@@@@@')@@@@~~@@)!@@@@))@@!@@@@'  ~)@@                                    @@@      @~~@@)!@@@@    !@@@@'@@$$@@@@@@@@+",
"+@@@@@@@@$; ))@@@@!)@@@@~~@@)!@@@)~@@'@@@@'   ~@@                                    )@@      @@~~@@)!@@@    '@@@@'@@$$@@@@@@@@+",
"+@@@@@@@@$* ~''''@@!@@@@@~~@@)!@@)'@@'@@@@'@  '@@                                    '''     @@@@~~@@)!@     '@@@@'@@&$@@@@@@@@+",
"+@@@@@@@@$(  @@@@@@)'@@@@@~~@@)!@@'@@!@@@@'@  '@@                                   @@@@     @@@@@~~@@)!     !@@@@'@@&$@@@@@@@@+",
"+@@@@@@@@$_   )))@@@~~@@@@@~~@@)'@'@@'@@@@'@@  @@                                   ))))     ~@@@@@~~@@)    @'@@@@'@@&$@@@@@@@@+",
"+@@@@@@@@$=   )~'''~@')@@@@@~~ @@@!@@'@@@@')@  @@                                   )))~     ')@@@@@~~@     @'@@@@')@&$@@@@@@@@+",
"+@@@@@@@@$:    @@@@@@@!)@@@@@' @@@'@@~)@@@~)@   @                                   @@@@    @@!)@@@@@'~     @~)@@@~)@&$@@@@@@@@+",
"+@@@@@@@@$<    @@@@@@@@!@@@@@@ ~@@'@@))@@@)~@@  @                                   @@@     @@@!@@@@@@'     @))@@@)~@&$@@@@@@@@+",
"+@@@@@@@@$[     ))@))@@)'@@@@@ '~@)@@)~@@@@'@@  @                                   '@@     )@@)'@@@@@      @)~@@@@'@&$@@@@@@@@+",
"+@@@@@@@@$&     ))@))@@@~~@@@@ @'~@@@)'@@@@'@@@                                    @'@@     )@@@~~@@@@      @)'@@@@'@&$@@@@@@@@+",
"+@@@@@@@@$&      )@))@@@@')@@@@ @'~@@@'@@@@'@@@                                    @')@    ))@@@@')@@@      @@'@@@@'@&$@@@@@@@@+",
"+@@@@@@@@$$      )@))@@!)@!)@@@ @@'~@@'@@@@'@@@                                    @')@    ))@@!)@!)@      ~@@'@@@@'@&$@@@@@@@@+",
"+@@@@@@@@$,       @))@@@''@!@@@ @@@'~@)@@@@@@)@~                                   @')@    ))@@@''@!@      '~@)@@@@@@$$@@@@@@@@+",
"+@@@@@@@@$,        ))@@@@)~)'@@ @@@@'~@@@@)~@)!)                                   @~)@   @))@@@@)~)'      @'~@@@@)~@$$@@@@@@@@+",
"+@@@@@@@@$,        ))@@~')@@~'@ @@@@@'~@'@@~'@@'!                                 '@))@   @))@@~')@@       @@'~@'@@~'&$@@@@@@@@+",
"+@@@@@@@@$,         )@@@)'')@'~  @@~@@@@@!)@)!)@)                                 '@))    @))@@@)'')       ~@@@@@!)@),$@@@@@@@@+",
"+@@@@@@@@$$@        )@@@@@)')@'  @@~~))@!@'~@@''@                                 )@))    @))@@@@@)'       ~~))@!@'~@&$@@@@@@@@+",
"+@@@@@@@@$$@         @@)''~)@@@  @@@'@!@~'@'~@@~!@                                )@))   )@))@@)''~        @'@!@~'@'~&$@@@@@@@@+",
"+@@@@@@@@$$@         @@@@@)~'''~ @@@'))'@'~@~'@@)!                                )@))   )@))@@@@@)        @'))'@'~@~,$@@@@@@@@+",
"+@@@@@@@@$$@          @@@@@@@@@) ''~)'@')@')@)!@@@                                )@))   )@))@@@@@@       '~)'@')@')@$$@@@@@@@@+",
"+@@@@@@@@$$@           @)@@@@@@@  @)@'@@!@@!@@)')@                                )@))  ))@))@@@)@        @)@'@@!@@!@&$@@@@@@@@+",
"+@@@@@@@@$$@           @)'''~)@@  @@@~~@~~@)'@@@!)                               ))@))  ))@))@@@)'        @@@~~@~~@)'&$@@@@@@@@+",
"+@@@@@@@@$$@            @@@@)'''  @@@@!@@!@@~'@@@'                               ))@))  ))@))@@@@         @@@@!@@!@@~,$@@@@@@@@+",
"+@@@@@@@@$$@            @@@@@@@@  ''')')@)'@@')@@@                               ))@)   ))@))@@@@         ''')')@)'@@,$@@@@@@@@+",
"+@@@@@@@@$$@            ~)@@@@@@  @@)))'@@')@@!)@@                               ))@)  @))@))@@~~         @@)))'@@')@&$@@@@@@@@+",
"+@@@@@@@@$$@            )~''')@@  @@@@@'@@@!@@@!@@                               ))@)  @))@))@@@)         @@@@@'@@@!@&$@@@@@@@@+",
"+@@@@@@@@$$@)           @@@@)~'''  @@@@)~@@~~@@)'@                               ))@)  @))@))@@@@        ~)@@@@)~@@~~&$@@@@@@@@+",
"+@@@@@@@@$$@)           @@@@@@@@@  ''')@!@@@!@@@)@                              @))@)  @))@))@@@@        )~''')@!@@@!&$@@@@@@@@+",
"+@@@@@@@@$$@@           ''~)@@@@@  @@)~)~)@@)'@@@~                              @))@@ @@')@')@@)'        @@@@)~)~)@@),$@@@@@@@@+",
"+@@@@@@@@$$@@            @)~''')@  @@@@@@!@@@')@)'                              @))@@ @@')@')@@@@        @@@@@@@@!@@@,$@@@@@@@@+",
"+@@@@@@@@$$@@            @@@@@)~'  ~@@@@@'@@@@!@))'                              ))@@ @@')@')@@))       '''~@@@@@'@@@&$@@@@@@@@+",
"+@@@@@@@@$$@@            ''~)@@@@  ~''~@@~~@@@)'@'                               ))@@'@@')@')@@)~       @@@~''~@@~~@@&$@@@@@@@@+",
"+@@@@@@@@$$@@            @@)'''~@  @@@@@@@!@@@@!'@                               ))@ '@@')@')@@@@       @@@@@@@@@@!@@&$@@@@@@@@+",
"+@@@@@@@@$$@@            @@~)@@)'' ~@@)!)@')@@)!@@@                               )@ )@@)@@@@@@))       '''~@@)!)@')@&$@@@@@@@@+",
"+@@@@@@@@$&@@@           '))''~@@  ~))!@@@)'@)!@@@@                            @  @@@@@@@@@@@@@@'      @@@@~))!@@@)'@$$@@@@@@@@+",
"+@@@@@@@@$&@@@           )''@@~''~ @~'@)@@)')!@@@@!                            @   @@@@@@@@@@@@@@      ''~@@~'@)@@)'),$@@@@@@@@+",
"+@@@@@@@@$&@@@           @@)!'@@@~ ''@)!@~')!@@@@))                            @   @@@@@@@@@@@)!@      @@~)''@)!@~')!&$@@@@@@@@+",
"+@@@@@@@@$,''!!           @@@)!'@@ ~@)'@~')!@@@@@@@                            ''  ''!!'''''@@@)!     !'@@'~@)'@~')!@&$@@@@@@@@+",
"+@@@@@@@@$&@@@@           )@@@@))! @~'@~')!@@@)@@@@                @          @@@   @@@@@@@@@@@@@     @))!)@~'@~')!@@&$@@@@@@@@+",
"+@@@@@@@@$&@@@@           '~@@@)') ~'@~')!@@@@'!~)@                @          @@@   @@@@@@@@@@)@@     @)')@~'@~')!@@@&$@@@@@@@@+",
"+@@@@@@@@$&@@@@           @~'@)!@@ '@~')!@@@@@@@)'!                @@         @@@    @@@@@@@@@!~@    @)!@@~'@~')!@@@@&$@@@@@@@@+",
"+@@@@@@@@$,'''''          @@)!)@@' @~')!@@@@)@@@@@@                )'         !!!    ''''''''~@~'    !)@@'~@~')!@@@@)&$@@@@@@@@+",
"+@@@@@@@@$&@@@@@          )@@)')@~ ~')!@@@@@~'''~)@                @@@        @@@@    @@@@@@@~@@)!   )')@~@~')!@@@@@~,$@@@@@@@@+",
"+@@@@@@@@$&@@@@@          ''@@@!~@~')!@@@@~@@@@@)''                @@@        @@@@    @@@@@@@~'@@   @@@!~@~')!@@@@~@@&$@@@@@@@@+",
"+@@@@@@@@$,''''''          )!)@@~~')!@@@@~'@~@@@@@@               '''''      ''''''   ''''''~@)!@   !)@@~~')!@@@@~'@~&$@@@@@@@@+",
"+@@@@@@@@$&@@@@@@          @@'~@@@)!@@@@~'@)')!''')                @@@@      @@@@@@@   @@@@@@@@)!   @'~@@@)!@@@@~'@)'$$@@@@@@@@+",
"+@@@@@@@@$&@@@@@@          @@@~'@@)@@@@~~@@!@@@@@)~                @@@@      @@@@@@@@  @@@@@@))@@! @@@~'@@)@@@@~~@@!@&$@@@@@@@@+",
"@@@@@@@@@$&@@@)@@          )@@@)!)@@@@'~@@)~@@'@@@@                @@@@~     @@@~@@@@@) @@)@@@!)@  )@@@)!)@@@@'~@@)~@&$@@@@@@@@@",
"@@@@@@@@@$&@@@'~@@         ')@@@@''@@'~@@@!@@')@@@@@@              '~@@)     ~@@~'@@@@'~@@)!@@@!)@ ')@@@@''@@'~@@@!@@,$@@@@@@@@@",
"@@@@@@@@@$,@@@@'~@         @'~@@@@)!)~@@@~)@)'@@@@@@@@@           !)@@@@)    '~@@~'@@@@'~@@)!@@@!@@@'~@@@@)!)~@@@~)@),$@@@@@@@@@",
"@@@@@@@@@$$'@@@@')         @@'~@@@@@!~@@@!@@')@@)'~)))@@@          @@@@@@   @@'~@@)'@@@@')@@)!}}}}}}}|~@@@@@!~@@@!@@'$$@@@@@@@@@",
"@@@@@@@@@$&)!@@@@')         @@~'@@@@@~'@')@)'@@@@@)))'')@''        @@@)!@@  @@@'~@@)!@@@@')@@)}}}}}}}1~'@@@@@~'@')@)'&$@@@@@@@@@",
"@@@@@@@@@$&@)!@@@@!         @@@~@@@)@@@@~@@~@@@@@@@@@@@)!)@@       @@''@@@  '@@@')@@)!@@@@!)@@}}}}}}}1@~@@@)@@@@~@@~@&$@@@@@@@@@",
"@@@@@@@@@$$@@)!@@@@         !@@@@@@'@@@@@@@@@@@@@@@@@@!'@@@!!@     )!)@@@@~ ~'@@@')@@)!@@@@!)@}}}}}}}1@@@@@'@@@@@@@@@&$@@@@@@@@@",
"@@@@@@@@@$,)@@)!@@@@!       )!@@@@@'@@@~)@@)@@@)@@@@~!)@@)!~@@@@  ''@@@@)!~ @~'@@@')@@)!@@@@!)}}}}}}}2@@@@@'@@@~)@@)@&$@@@@@@@@@",
"@@@@@@@@@$&')@@@')@@@!)@@@  @))@@@@')@@))@@'@@@'@@@!~@@@!'@@@@@@)!~@@@@~!@@@~@~'@@@')@@@')@@@!}}}}}}}3)@@@@')@@))@@'@&$@@@@@@@@@"};
