/* XPM */
static char * DO_destruct_N_S_01_xpm[] = {
"128 128 58 1",
" 	c #0E0707",
".	c #1B0E0E",
"+	c #371C1C",
"@	c #452323",
"#	c #522B2B",
"$	c #5F3232",
"%	c #532B2B",
"&	c #512B2B",
"*	c #4D2828",
"=	c #331C1C",
"-	c #361C1C",
";	c #351C1C",
">	c #341C1C",
",	c #2B1818",
"'	c #321C1C",
")	c #2D1717",
"!	c #2C1717",
"~	c #2C1817",
"{	c #2B1817",
"]	c #502B2B",
"^	c #53352E",
"/	c #7A5947",
"(	c #86654F",
"_	c #50352D",
":	c #4B2F29",
"<	c #87654F",
"[	c #604136",
"}	c #A58061",
"|	c #B89068",
"1	c #BD946A",
"2	c #BA9269",
"3	c #A78262",
"4	c #5F4136",
"5	c #5E4136",
"6	c #3C2220",
"7	c #9D795C",
"8	c #C49A6C",
"9	c #C69C6D",
"0	c #452825",
"a	c #3D2220",
"b	c #B18A65",
"c	c #B38C66",
"d	c #64473A",
"e	c #593B32",
"f	c #6D4D3E",
"g	c #6C4D3E",
"h	c #65473A",
"i	c #6B4D3E",
"j	c #4C2F29",
"k	c #AA8463",
"l	c #AC8663",
"m	c #AE8864",
"n	c #B58E67",
"o	c #8D6B53",
"p	c #3E2220",
"q	c #795947",
"r	c #3B2220",
"s	c #3A2220",
" .............................................................................................................................. ",
".++++++++++++++++++++++++++++++++++++++++++++++++++++++++++++++++++++++++++++++++++++++++++++++++++++++++++++++++++++++++++++++.",
".++++++++++++++++++++++++++++++++++++++++++++++++++++++++++++++++++++++++++++++++++++++++++++++++++++++++++++++++++++++++++++++.",
".++++++++++++++++++++++++++++++++++++++++++++++++++++++++++++++++++++++++++++++++++++++++++++++++++++++++++++++++++++++++++++++.",
".++++++++++++++++++++++++++++++++++++++++++++++++++++++++++++++++++++++++++++++++++++++++++++++++++++++++++++++++++++++++++++++.",
".++++++++++++++++++++++++++++++++++++++++++++++++++++++++++++++++++++++++++++++++++++++++++++++++++++++++++++++++++++++++++++++.",
".++++++++++++++++++++++++++++++++++++++++++++++++++++++++++++++++++++++++++++++++++++++++++++++++++++++++++++++++++++++++++++++.",
".++++++++++++++++++++++++++++++++++++++++++++++++++++++++++++++++++++++++++++++++++++++++++++++++++++++++++++++++++++++++++++++.",
".++++++++++++++++++++++++++++++++++++++++++++++++++++++++++++++++++++++++++++++++++++++++++++++++++++++++++++++++++++++++++++++.",
".++++++++@############################################################################################################@++++++++.",
".++++++++#$#%%%&#%%##%%%&#%%##%##%%%%&#%%%%%%&#%%%&%%%%&%%%&%%%%%&#%%#&%%#&%%*#%%%&#%%%&#%%##%%%&#%%##%##%%%%&#%%%%%%$#++++++++.",
".++++++++##+++=-++;>+-;+>-++--+--++=-+=-++++++>;++>++++>+++++++++-;+++>+>>++;,+++=-+++=-++;>+-;+>-++--+--++=-+=-+++++%#++++++++.",
".++++++++#%++=-++->++->+>-++--+--+++>>+=+++++++>;+-++++++-+;>;++++-+++>='++->)++=-+++=-++->++->+>-++--+--+++>>+=+++++%#++++++++.",
".++++++++#%+=-+++=+++->+;-++--+--++++-;->+++++++>;++++-;+-=-+;>=;-++++;=++-=+)+=-+++=-+++=+++->+;-++--+--++++-;->++++%#++++++++.",
".++++++++#%=-+++=+-;+->+--++--+--++;>-++;>+++++++>;+>++;>++>=+++-;>>+->+++>++)=-+++=-+++=+-;+->+--++--+--++;>-++;>+++%#++++++++.",
".++++++++#&-+++>-+->+->+--++--+--+++->>-+>;++++;+++++=-+-=-+-=;+++++->+++=-++,-+++=-+++>-+->+->+--++--+--+++->>-+>;++%#++++++++.",
".++++++++##+++>;++->+--+--++--+--+++++->-+>++++;;--+=+>;++>>++;=-++->+++=-++=!+++=-+++>;++->+--+--++--+--+++++->-+>++%#++++++++.",
".++++++++#%++;;+++->+--+--++--+--++->>;-++++++++>+=+;>+>;++;=+++>;-=+++'>++=-)++=-+++;;+++->+--+--++--+--++->>;-+++++%#++++++++.",
".++++++++#%+->++++-;+--+--++--+--+++++-;>>>;-+++>-->+>;+;>++-=;++-=+++;;++=-+)+=-+++->++++-;+--+--++--+--+++++-;>>>;-%#++++++++.",
".++++++++#%-=+++++--+--+--++--+--++++++++++->>>;->+>-+>-+-=+++>;-=+++;>++=-++)=-+++-=+++++--+--+--++--+--++++++++++->&#++++++++.",
".++++++++#%=++-;++--+--+--++--+--+++-++++++++++-+>++=++=++->-++-=+++->+-'-+++,-++++=++-;++--+--+--++--+--+++-++++++++%#++++++++.",
".++++++++#&-++--++--+--+--++--+--+++->>>;-+++++++;;+;;+->+++=-+=+++-=++=;+++=!++++=-++--++--+--+--++--+--+++->>>;-+++%#++++++++.",
".++++++++##-++;-++--+--+--++--+--+++++++->>>;-++++=++=++;>+++>;++++=++>++++=-)+++>--++;-++--+--+--++--+--+++++++->>>;##++++++++.",
".++++++++#%>++>-++--+--+--++--+--+++++++++++-;>>>->-+->++>-+++-+++=++>++++=-+)++>;+>++>-++--+--+--++--+--+++++++++++-##++++++++.",
".++++++++#%>++>+++--+--+-;++--+--++;;-++++++++++--->++>-++=-+++++=-+>++++=-++)+;;++>++>+++--+--+-;++--+--++;;-+++++++%#++++++++.",
".++++++++##>++>+++--+--+->++--+--+++-;>>>-+++++++++>+++=+++=++++>-+>+++-'-+++)->++->++>+++--+--+->++--+--+++-;>>>-+++%#++++++++.",
".++++++++##;++=+++--+--+->++--+--+++++++-;>>>;-++++-;++;;++->++>;+>++++';++++!=+++-;++=+++--+--+->++--+--+++++++-;>>>##++++++++.",
".++++++++##-++>+++--+--+->++--+--++++++++++++-;>>>-+=+++=+++-+;;+>++++=-+++++,+-;+--++>+++--+--+->++--+--++++++++++++##++++++++.",
".++++++++##-++>+++--+--++>++>-+>-++->>;-+++++++++-;-;-++->+++;>+>++++=-++>-+=!+;-+;-++>+++--+--++>++>-+>-++->>;-+++++%#++++++++.",
".++++++++#&-++>+++--+--++>++>-+>-+++++-;>>>-+++++++++=+++>-+->+>++++=>>+++==-)+>++>-++>+++--+--++>++>-+>-+++++-;>>>-+%#++++++++.",
".++++++++#&+++>+++--+--++>++>-+>-++--+++++-;>>>;+++++>++++=+-->++++=-+;=-++>>)+>++>+++>+++--+--++>++>-+>-++--+++++-;>&#++++++++.",
".++++++++#&+++>+++--+--++>++>-+>-++-;>>;-++++++;>>;++;;+++->+>++++=-+++;'+++;,+;++>+++>+++--+--++>++>-+>-++-;>>;-++++%#++++++++.",
".++++++++#&+++>+++--+--++>++>-+>-++++++->>>;++++++++++=++++=>++++=-+-+++;>-++!=-++>+++>+++--+--++>++>-+>-++++++->>>;+%#++++++++.",
".++++++++#&++-;+++--+--++-++-++++++--++;-++->>>;++-=-+>-++-=++++=-++;>++++=-+)+>;+>++-;+++--+--++-++-++++++--++;-++->&#++++++++.",
".++++++++##+++++++++++++++++++++++++>>-->>;++++;--=+++->+-=++++=--+++-=++++>;)++;+-+++++++++++++++++++++++++>>-->>;++%#++++++++.",
".++++++++#%++++++++++++++++++++++++++->>++;>>;++;>+-++->-=++++=-+;>-++-';+++>!+++++++++++++++++++++++++++++++->>++;>>##++++++++.",
".++++++++#%+++++++++++++++++++++++-=+++-=>+++;->>+-=+;>-=++++--+++->>+++=>+++~>+++++++++++++++++++++++++++-=+++-=>+++##++++++++.",
".++++++++##--;>>>>>>>>>>>==>>>>>+++-=-+++-=>++>;+->+;>-=+++++++>>+++-=-++;=++);+-----;>>>>>>>>>>>==>>>>>+++-=-+++-=>+%#++++++++.",
".++++++++##-----+++++++++++++++++++++=-++++--=-+;>+;>-=+++-+++++-=-+++>'-+-=-)++--------+++++++++++++++++++++=-++++--&#++++++++.",
".++++++++#%+++++++++++++++++++++++-+++>;+++->-+;>+;>-=++++>=;-++++>>-++-'>++>)++++++++++++++++++++++++++++-+++>;+++->##++++++++.",
".++++++++#%+++++++++++++++++++++++=;+++;>+-=++;>+;>-=+++++++->=;-++->>+++-=-+)++++++++++++++++++++++++++++=;+++;>+-=+%#++++++++.",
".++++++++#&>>>>>>>=====>>>>>>>>>>;+;>+++-=-++>;+;>-=++++-++++++->=;-+-=>+++>-)+->>>>>>>>>>=====>>>>>>>>>>;+;>+++-=-++&#++++++++.",
".++++++++#%++++++++++++++++++++++;++-=-++->-+;+;>-=+++++;>>>;-++++->=;-='-+++)+++++++++++++++++++++++++++;++-=-++->-+##++++++++.",
".++++++++#%++++++++++++++++++++++;>+++>>+++=;+;>-=++++;+++++->>>;-+++->'==-++)+++++++++++++++++++++++++++;>+++>>+++=;%#++++++++.",
".++++++++#&>>>>>>>>>>>>>>>>>>>>>;+-=+++-=-++;;>-=++++;>+;+++++++-;>>>;-+-;++-{>>>>>>>>>>>>>>>>>>>>>>>>>>;+-=+++-=-++;##++++++++.",
".++++++++#%++++++++++++++++++++++++-=++++>;+++-=++++;>+->-=>>>--+++++->'=>-++)+++++++++++++++++++++++++++++-=++++>;++%#++++++++.",
".++++++++#%++++-+++++++++++++++++--++=-+++;>++-++++;;++=+++++-;>=>>>--+++-;++)+++++++++-+++++++++++++++++--++=-+++;>+%#++++++++.",
".++++++++#%;+++>;+++;+++++-+++-+++=-++=-+++-=-++++>;++-;++>++++++++-;>===>-;=)+++++;+++>;+++;+++++-+++-+++=-++=-+++-=##++++++++.",
".++++++++#%->+++>;++;>++++>;++-=+++=-++>-++++>>++>;+++=++>-++++++++++++++;=;+)+>;++->+++>;++;>++++>;++-=+++=-++>-++++&#++++++++.",
".++++++++#%+->+++>;++;>++++>;++-=+++=+++>;++++-=-;+++;-+->++++++++++++++>>+++!=-++++->+++>;++;>++++>;++-=+++=+++>;+++%#++++++++.",
".++++++++#%++->+++>;++->++++>-++-=+++>+++>;+++++=;+++=++>-++->;---++++-'>++->~+++++++->+++>;++->++++>-++-=+++>+++>;++%#++++++++.",
".++++++++##=++->+++>;++-=++++>-++-=+++>+++;>+++++;>+>-+->+++++--->>-+>>+++;>-)++++-=++->+++>;++-=++++>-++-=+++>+++;>+%#++++++++.",
".++++++++#&++++;>+++>-++-=++++=-++->+++=+++;+++-++++;++;+++++++++++-=-++;=;++)+++>>++++;>+++>-++-=++++=-++->+++=+++;+%#++++++++.",
".++++++++#%+++;-;>+++>-++-=++++=-+++>++-=++++++>++++++++++++++++++=>+++==++++)+-=-++++;-;>+++>-++-=++++=-+++>++-=++++%#++++++++.",
".++++++++#%+-=;++;>+++>-++-=++++=-+++>++-=+++++>+++;-++-+++-++++;=-++-=;+++++)>>++++-=;++;>+++>-++-=++++=-+++>++-=+++%#++++++++.",
".++++++++#%;=+++;+;>+++>-+++>-+++=-+++>++--++++>-++--++>+++>+++=;+++=>++++++-,-++++;=+++;+;>+++>-+++>-+++=-+++>++--++%#++++++++.",
".++++++++#&;++-=-++;>+++>-+++=-+++>++++=-+++--+;-++->++>+++>++++++;=-++++++>=)++++>;++-=-++;>+++>-+++=-+++>++++=-+++-##++++++++.",
".++++++++##++;>+++-+;>+++=-+++=-+++=++++=-++;-+--+++>++>+++;-+++-=;++++++-=;+)++-=-++;>+++-+;>+++=-+++=-+++=++++=-++;##++++++++.",
".++++++++#%+>;++-=-++;>+++=-+++=-++-=++++=-+--+-;+++>++;-++->++>>+++++++>>+++)+>>+++>;++-=-++;>+++=-+++=-++-=++++=-+-##++++++++.",
".++++++++##=-++>>+++++;>+++=-+++=-++-=++++=--;++>+++>++-;+++>+=-++++++-'>++++!=-++-=-++>>+++++;>+++=-+++=-++-=++++=--##++++++++.",
".++++++++#&+++=;++++-++;>+++=-+++>-++-=++++=;>++>+++>++->+++>++++++++;>-++++;,+++>>+++=;++++-++;>+++=-+++>-++-=++++=;&#++++++++.",
".++++++++#%+-=-----+;;++;>+++=-+++>;++-=+++++>++=+++>+++>+++;-+++++-=;++-=;=;)+-=-++-=-----+;;++;>+++=-+++>;++-=+++++&#++++++++.",
".++++++++#%>>++--;>-+>-++;>+++=-+++>;++->++++>++>+++;-++>+++-;++++-=-+-''+-++);>+++>>++--;>-+>-++;>+++=-+++>;++->++++&#++++++++.",
".++++++++#&;+->>>>;--+=-++;>+++=-+++>;++->+++=++>+++-;++>++++>++;++++==-;;+++,;+++=;+->>>>;--+=-++;>+++=-+++>;++->+++&#++++++++.",
".++++++++##+++++-----++=+++;>+++=-+++>;++;>++>++=+++->++>++++>++;-++->'++;;+>)++-=-+++++-----++=+++;>+++=-+++>;++;>++&#++++++++.",
".++++++++#%+;>=>>>>>;-+->+++;>+++=-+++;;++;-+>++>++++>++;-+++>-+->++;+;'++;;+)+>>+++;>=>>>>>;-+->+++;>+++=-+++;;++;-+&#++++++++.",
".++++++++#%++++++++---++;;+++;>+++=-+++;>++++>++>++++>++-;+++-;++>++>-+>=++;>)>;+++++++++++---++;;+++;>+++=-+++;>++++&#++++++++.",
".++++++++#%++++++++++++++';+++>'+++'-+++>'+++'++>;+++=+++=++++=++=-+;'++'>++>,+++++++++++++++++++';+++>'+++'-+++>'+++]#++++++++.",
".++++++++#%+++++++++++++++'-+++>'++-'-+++>'++=++;;+++=+++'++++'++;>++'>++';++,>+++++++++++++++++++'-+++>'++-'-+++>'++&#++++++++.",
".++++++++#%+++++++++++++++-=++++;>++->++++;>+>++;;+++>+++>++++>+++>++>>;+-=++)>;++++++++++++++++++-=++++;>++->++++;>+&#++++++++.",
".++++++++#%;>>==>>>>>>>---+->++++;;+++>++++-->-++>+++;-++=++++;;++>+++>=;+-=+)+;;++;>>==>>>>>>>---+->++++;;+++>++++--&#++++++++.",
".++++++++#%++++++++++-----++;;++++;;+++=+++++;-++>+++-;++>+++++>++;;++>-'++->)++;;+++++++++++-----++;;++++;;+++=+++++##++++++++.",
".++++++++#%++++++++++++++++++>-++++;;++-=++++--++=++++>++;-++++>+++>+^/(/_++;!+++:/</^+++++++++++++++>-++++;;++-=++++##++++++++.",
".++++++++#&=>>>>>>>;------++++=-++++;;++-=+++-;++>++++>++-;++++>+++>[}|1234++,-+4}|1235>>>>;------++++=-++++;;++-=+++##++++++++.",
".++++++++#%+++++++------;>>>>++=+++++;;++-=++->++>++++>+++>++++;-++6789998}0+)=a789998}0++------;>>>>++=+++++;;++-=++##++++++++.",
".++++++++#%++++++++++++++++++++->+++++;;++-=++>++=++++>+++>++++->++4b99999cd+)+eb99999cf+++++++++++++++->+++++;;++-=+%#++++++++.",
".++++++++#&>>>>>=>>>>>>;-----+++;;+++++;;++->+>++>++++>+++>+++++>++fc99999cg>)+hc99999ci=>>>>>>;-----+++;;+++++;;++->%#++++++++.",
".++++++++#%+++++++++++-----;>>>;+>-+++++;;++++=++>++++>-++>+++++>++jk99999le-)+j399999me++++++-----;>>>;+>-+++++;;+++%#++++++++.",
".++++++++#%+++++++++++++++++++++++=-+++++>;+++>++;-+++;-++>-++++;-++(n999no++)++<b999no+++++++++++++++++++=-+++++>;++%#++++++++.",
".++++++++#%++;++++-++++++++++++++++=++++++>;++>++--+++-;++;-++++-;++pq}k}(6+;!++r/}k}(p+++-++++++++++++++++=++++++>;+%#++++++++.",
".++++++++#%+=-+++=-++>-+>+++--+--++->++++++>;+-++-;++++>++-;+++++>+++>p^p+=;;)+>-+p^s-+++=-++>-+>+++--+--++->++++++>;%#++++++++.",
".++++++++#%=-+++=-++>;++>+++--+--+++;;++++++>;+++->++++>+++>+++++>+++;-+++>>+)>;+++=-+++=-++>;++>+++--+--+++;;++++++>##++++++++.",
".++++++++#&-+++=-++;;+++>-++--+--++++>-++++++>;+++>++++>+++>+++++>-++->++;>++!;+++=-+++=-++;;+++>-++--+--++++>-++++++&#++++++++.",
".++++++++##+++=-++;>+-;+>-++--+--++=-+=-++++++>;++>++++>+++++++++-;+++>+>>++;,+++=-+++=-++;>+-;+>-++--+--++=-+=-+++++%#++++++++.",
".++++++++#%++=-++->++->+>-++--+--+++>>+=+++++++>;+-++++++-+;>;++++-+++>='++->)++=-+++=-++->++->+>-++--+--+++>>+=+++++%#++++++++.",
".++++++++#%+=-+++=+++->+;-++--+--++++-;->+++++++>;++++-;+-=-+;>=;-++++;=++-=+)+=-+++=-+++=+++->+;-++--+--++++-;->++++%#++++++++.",
".++++++++#%=-+++=+-;+->+--++--+--++;>-++;>+++++++>;+>++;>++>=+++-;>>+->+++>++)=-+++=-+++=+-;+->+--++--+--++;>-++;>+++%#++++++++.",
".++++++++#&-+++>-+->+->+--++--+--+++->>-+>;++++;+++++=-+-=-+-=;+++++->+++=-++,-+++=-+++>-+->+->+--++--+--+++->>-+>;++%#++++++++.",
".++++++++##+++>;++->+--+--++--+--+++++->-+>++++;;--+=+>;++>>++;=-++->+++=-++=!+++=-+++>;++->+--+--++--+--+++++->-+>++%#++++++++.",
".++++++++#%++;;+++->+--+--++--+--++->>;-++++++++>+=+;>+>;++;=+++>;-=+++'>++=-)++=-+++;;+++->+--+--++--+--++->>;-+++++%#++++++++.",
".++++++++#%+->++++-;+--+--++--+--+++++-;>>>;-+++>-->+>;+;>++-=;++-=+++;;++=-+)+=-+++->++++-;+--+--++--+--+++++-;>>>;-%#++++++++.",
".++++++++#%-=+++++--+--+--++--+--++++++++++->>>;->+>-+>-+-=+++>;-=+++;>++=-++)=-+++-=+++++--+--+--++--+--++++++++++->&#++++++++.",
".++++++++#%=++-;++--+--+--++--+--+++-++++++++++-+>++=++=++->-++-=+++->+-'-+++,-++++=++-;++--+--+--++--+--+++-++++++++%#++++++++.",
".++++++++#&-++--++--+--+--++--+--+++->>>;-+++++++;;+;;+->+++=-+=+++-=++=;+++=!++++=-++--++--+--+--++--+--+++->>>;-+++%#++++++++.",
".++++++++##-++;-++--+--+--++--+--+++++++->>>;-++++=++=++;>+++>;++++=++>++++=-)+++>--++;-++--+--+--++--+--+++++++->>>;##++++++++.",
".++++++++#%>++>-++--+--+--++--+--+++++++++++-;>>>->-+->++>-+++-+++=++>++++=-+)++>;+>++>-++--+--+--++--+--+++++++++++-##++++++++.",
".++++++++#%>++>+++--+--+-;++--+--++;;-++++++++++--->++>-++=-+++++=-+>++++=-++)+;;++>++>+++--+--+-;++--+--++;;-+++++++%#++++++++.",
".++++++++##>++>+++--+--+->++--+--+++-;>>>-+++++++++>+++=+++=++++>-+>+++-'-+++)->++->++>+++--+--+->++--+--+++-;>>>-+++%#++++++++.",
".++++++++##;++=+++--+--+->++--+--+++++++-;>>>;-++++-;++;;++->++>;+>++++';++++!=+++-;++=+++--+--+->++--+--+++++++-;>>>##++++++++.",
".++++++++##-++>+++--+--+->++--+--++++++++++++-;>>>-+=+++=+++-+;;+>++++=-+++++,+-;+--++>+++--+--+->++--+--++++++++++++##++++++++.",
".++++++++##-++>+++--+--++>++>-+>-++->>;-+++++++++-;-;-++->+++;>+>++++=-++>-+=!+;-+;-++>+++--+--++>++>-+>-++->>;-+++++%#++++++++.",
".++++++++#&-++>+++--+--++>++>-+>-+++++-;>>>-+++++++++=+++>-+->+>++++=>>+++==-)+>++>-++>+++--+--++>++>-+>-+++++-;>>>-+%#++++++++.",
".++++++++#&+++>+++--+--++>++>-+>-++--+++++-;>>>;+++++>++++=+-->++++=-+;=-++>>)+>++>+++>+++--+--++>++>-+>-++--+++++-;>&#++++++++.",
".++++++++#&+++>+++--+--++>++>-+>-++-;>>;-++++++;>>;++;;+++->+>++++=-+++;'+++;,+;++>+++>+++--+--++>++>-+>-++-;>>;-++++%#++++++++.",
".++++++++#&+++>+++--+--++>++>-+>-++++++->>>;++++++++++=++++=>++++=-+-+++;>-++!=-++>+++>+++--+--++>++>-+>-++++++->>>;+%#++++++++.",
".++++++++#&++-;+++--+--++-++-++++++--++;-++->>>;++-=-+>-++-=++++=-++;>++++=-+)+>;+>++-;+++--+--++-++-++++++--++;-++->&#++++++++.",
".++++++++##+++++++++++++++++++++++++>>-->>;++++;--=+++->+-=++++=--+++-=++++>;)++;+-+++++++++++++++++++++++++>>-->>;++%#++++++++.",
".++++++++#%++++++++++++++++++++++++++->>++;>>;++;>+-++->-=++++=-+;>-++-';+++>!+++++++++++++++++++++++++++++++->>++;>>##++++++++.",
".++++++++#%+++++++++++++++++++++++-=+++-=>+++;->>+-=+;>-=++++--+++->>+++=>+++~>+++++++++++++++++++++++++++-=+++-=>+++##++++++++.",
".++++++++##--;>>>>>>>>>>>==>>>>>+++-=-+++-=>++>;+->+;>-=+++++++>>+++-=-++;=++);+-----;>>>>>>>>>>>==>>>>>+++-=-+++-=>+%#++++++++.",
".++++++++##-----+++++++++++++++++++++=-++++--=-+;>+;>-=+++-+++++-=-+++>'-+-=-)++--------+++++++++++++++++++++=-++++--&#++++++++.",
".++++++++#%+++++++++++++++++++++++-+++>;+++->-+;>+;>-=++++>=;-++++>>-++-'>++>)++++++++++++++++++++++++++++-+++>;+++->##++++++++.",
".++++++++#%+++++++++++++++++++++++=;+++;>+-=++;>+;>-=+++++++->=;-++->>+++-=-+)++++++++++++++++++++++++++++=;+++;>+-=+%#++++++++.",
".++++++++#&>>>>>>>=====>>>>>>>>>>;+;>+++-=-++>;+;>-=++++-++++++->=;-+-=>+++>-)+->>>>>>>>>>=====>>>>>>>>>>;+;>+++-=-++&#++++++++.",
".++++++++#%++++++++++++++++++++++;++-=-++->-+;+;>-=+++++;>>>;-++++->=;-='-+++)+++++++++++++++++++++++++++;++-=-++->-+##++++++++.",
".++++++++#%++++++++++++++++++++++;>+++>>+++=;+;>-=++++;+++++->>>;-+++->'==-++)+++++++++++++++++++++++++++;>+++>>+++=;%#++++++++.",
".++++++++#&>>>>>>>>>>>>>>>>>>>>>;+-=+++-=-++;;>-=++++;>+;+++++++-;>>>;-+-;++-{>>>>>>>>>>>>>>>>>>>>>>>>>>;+-=+++-=-++;##++++++++.",
".++++++++#%++++++++++++++++++++++++-=++++>;+++-=++++;>+->-=>>>--+++++->'=>-++)+++++++++++++++++++++++++++++-=++++>;++%#++++++++.",
".++++++++#%++++-+++++++++++++++++--++=-+++;>++-++++;;++=+++++-;>=>>>--+++-;++)+++++++++-+++++++++++++++++--++=-+++;>+%#++++++++.",
"+++++++++#%;+++>;+++;+++++-+++-+++=-++=-+++-=-++++>;++-;++>++++++++-;>===>-;=)+++++;+++>;+++;+++++-+++-+++=-++=-+++-=##+++++++++",
"+++++++++#%->+++>;++;>++++>;++-=+++=-++>-++++>>++>;+++=++>-++++++++++++++;=;+)+>;++->+++>;++;>++++>;++-=+++=-++>-++++&#+++++++++",
"+++++++++#%+->+++>;++;>++++>;++-=+++=+++>;++++-=-;+++;-+->++++++++++++++>>+++!=-++++->+++>;++;>++++>;++-=+++=+++>;+++%#+++++++++",
"+++++++++#%++->+++>;++->++++>-++-=+++>+++>;+++++=;+++=++>-++->;---++++-'>++->~+++++++->+++>;++->++++>-++-=+++>+++>;++%#+++++++++",
"+++++++++##=++->+++>;++-=++++>-++-=+++>+++;>+++++;>+>-+->+++++--->>-+>>+++;>-)++++-=++->+++>;++-=++++>-++-=+++>+++;>+%#+++++++++",
"+++++++++#&++++;>+++>-++-=++++=-++->+++=+++;+++-++++;++;+++++++++++-=-++;=;++)+++>>++++;>+++>-++-=++++=-++->+++=+++;+%#+++++++++",
"+++++++++#%+++;-;>+++>-++-=++++=-+++>++-=++++++>++++++++++++++++++=>+++==++++)+-=-++++;-;>+++>-++-=++++=-+++>++-=++++%#+++++++++",
"+++++++++#%+-=;++;>+++>-++-=++++=-+++>++-=+++++>+++;-++-+++-++++;=-++-=;+++++)>>++++-=;++;>+++>-++-=++++=-+++>++-=+++%#+++++++++",
"+++++++++#%;=+++;+;>+++>-+++>-+++=-+++>++--++++>-++--++>+++>+++=;+++=>++++++-,-++++;=+++;+;>+++>-+++>-+++=-+++>++--++%#+++++++++"};
