/* XPM */
static char * ELE_xpm[] = {
"128 128 79 1",
" 	c #413338",
".	c #502F34",
"+	c #5F2B31",
"@	c #572D33",
"#	c #5D2B31",
"$	c #5A2C32",
"%	c #5C2B32",
"&	c #562D33",
"*	c #5B2C32",
"=	c #542E34",
"-	c #4C3035",
";	c #473137",
">	c #433238",
",	c #4E2F35",
"'	c #5E2B31",
")	c #4D3035",
"!	c #502F35",
"~	c #453237",
"{	c #483136",
"]	c #4A3136",
"^	c #4B3036",
"/	c #522E34",
"(	c #493136",
"_	c #4A3036",
":	c #582D33",
"<	c #422931",
"[	c #42262E",
"}	c #412D33",
"|	c #571725",
"1	c #710016",
"2	c #5A0014",
"3	c #4F0013",
"4	c #430919",
"5	c #49232C",
"6	c #450717",
"7	c #510F1F",
"8	c #431925",
"9	c #5C1D2A",
"0	c #800017",
"a	c #620014",
"b	c #530013",
"c	c #430D1B",
"d	c #4A2C33",
"e	c #450A19",
"f	c #551523",
"g	c #552D33",
"h	c #552E33",
"i	c #592C32",
"j	c #542E33",
"k	c #552E34",
"l	c #532E34",
"m	c #6E4C3F",
"n	c #715744",
"o	c #4D3C3B",
"p	c #654E41",
"q	c #7B5542",
"r	c #8F6848",
"s	c #A17B4F",
"t	c #59453E",
"u	c #896949",
"v	c #8A6949",
"w	c #8F6748",
"x	c #B0906C",
"y	c #64423C",
"z	c #C8B199",
"A	c #AD8C66",
"B	c #5E443D",
"C	c #906748",
"D	c #CEB9A5",
"E	c #A7835A",
"F	c #8B6949",
"G	c #8E6848",
"H	c #663C38",
"I	c #6C4039",
"J	c #5B443E",
"K	c #473839",
"L	c #53413C",
"M	c #61433C",
"N	c #703F39",
"                                                                                                                                ",
"  .++@+++++#$++%++@+++++#$++%++@++%++$#+++++&++%++$#+++++&++%++@+++++#$++%++@+++++#$++%++&++%++$#+++++&++%++$#++++#*++%++@+++   ",
"  .+= -+++#;>$+%+= -+++#;>$+%+, -+%+$>;#+++- =+%+$>;#+++- =+%+= -+++#;>$+%+= -+++#;>$+%+- =+%+$>;#+++- =+%+$>;#++#; =+%+= -++   ",
"  .=   -+#;  >$%=   -+#;  >$%-   -%$>  ;#+-   =%$>  ;#+-   =%=   -+#;  >$%=   -+#;  >$%-   =%$>  ;#+-   =%$>  ;#';   =%=   -+   ",
"  ;    ;);   >;!    ;);   ;>)   ; )>  >~;)   ; !>  ; ;)  ;  ,  >~ );  ; >!  ;  ); ;  >) >~  !> ;  ;) {   !>;   ;]~>   , ;   ^   ",
"      ;'/    $*    /*~   ^%^   ~'/    $*    /*~   ^%^   ~'/    $*    /*~   ^%^   ~'/    $*    /*~   ^'^   ~*/    *$    /';      ",
"     ;#++-  =++=  -+%$> ;#%#; >$++-  =++=  -+%$> ;#%#; >$++-  =++=  -+%$> ;#%#; >$++-  =++=  -+%$> ;#'#; >$%+-  =++=  -++#;     ",
"    ;#++++-=++++=-++%+${#+%+#{$++++-=++++=-++%+${#+%+#{$++++-=++++=-++%+${#+%+#{$++++-=++++=-++%+${#+'+#{$+%++-=++++=-++++#;    ",
"   ;@((_((](((_((_((]((]((]((]((]((](((_((_((]((]((]((]((]((](((_((_((]((]((]((]((]((](((_((_((]((]((^((]((]((]((](((_((_((@;   ",
"  ;#: <[[[[[[[[[[[[[[[[[[[[[[[[[[[[[[[[[[[[[[[[[     <[[[[[[[[[[[[[[[[[[[[[     }[[[[[[[[[[[[[[[[[[[[[[[[[[[[[[[[[[[[[[[[[}:#;  ",
" ;#+: |11111111111111111111112311111111111111114 :++-5111111111111111111116~#++ }111111111111111111111113311111111111111178:+#; ",
" &%%@ 90000000000000000000000ab0000000000000000c :+- d00000000000000000000e ;#+  00000000000000000000000bb000000000000000f8@%%& ",
" >$+: 90000000000000000000000ab0000000000000000c :-  d00000000000000000000e  ;#  00000000000000000000000bb000000000000000f8:+$> ",
"  >$: 90000000000000000000000ab0000000000000000c =>  d00000000000000000000e   !  00000000000000000000000bb000000000000000f8:$>  ",
"   >g 90000000000000000000000ab0000000000000000c :$> d00000000000000000000e  -+  00000000000000000000000bb000000000000000f8g>   ",
"   =: 90000000000000000000000ab0000000000000000c :+$>d00000000000000000000e -++  00000000000000000000000bb000000000000000f8:=   ",
"  =+: 90000000000000000000000ab0000000000000000c @%%/d00000000000000000000e{%%%  00000000000000000000000bb000000000000000f8:+=  ",
" h++i 90000000000000000000000ab0000000000000000c :+= d00000000000000000000e =++  00000000000000000000000bb000000000000000f8i++j ",
" -++: 90000000000000000000000ab0000000000000000c :=  d00000000000000000000e  =+  00000000000000000000000bb000000000000000f8:++- ",
"  -+: 90000000000000000000000ab0000000000000000c !   d00000000000000000000e   k  00000000000000000000000bb000000000000000f8:+-  ",
"   -: 90000000000000000000000ab0000000000000000c :-  d00000000000000000000e  >$  00000000000000000000000bb000000000000000f8:-   ",
"   ;@ 90000000000000000000000ab0000000000000000c :+- d00000000000000000000e >$+  00000000000000000000000bb000000000000000f8@;   ",
"  ;#: 90000000000000000000000ab0000000000000000c i++!d00000000000000000000e>$++  00000000000000000000000bb000000000000000f8:#;  ",
" ;#+: 90000000000000000000000ab0000000000000000c :+#;d00000000000000000000e;'++  00000000000000000000000bb000000000000000f8:+#; ",
" &%%@ 90000000000000000000000ab0000000000000000c :#; d00000000000000000000e ;#+  00000000000000000000000bb000000000000000f8@%%& ",
" >$+: 90000000000000000000000ab0000000000000000c &;  d00000000000000000000e  ;#  00000000000000000000000bb000000000000000f8:+$> ",
"  >$: 90000000000000000000000ab0000000000000000c l>  d00000000000000000000e   !  00000000000000000000000bb000000000000000f8:$>  ",
"   >g 90000000000000000000000ab0000000000000000c :$> d00000000000000000000e  -+  00000000000000000000000bb000000000000000f8g>   ",
"   =: 90000000000000000000000ab0000000000000000c :+$>d00000000000000000000e -++  00000000000000000000000bb000000000000000f8:=   ",
"  =+: 90000000000000000000000ab0000000000000000c @%%/d00000000000000000000e{%%%  00000000000000000000000bb000000000000000f8:+=  ",
" h++i 90000000000000000000000ab0000000000000000c :+= d00000000000000000000e =++  00000000000000000000000bb000000000000000f8i++j ",
" -++: 90000000000000000000000ab0000000000000000c :=  d00000000000000000000e  =+  00000000000000000000000bb000000000000000f8:++- ",
"  -+: 90000000000000000000000ab0000000000000000c /   d00000000000000000000e   g  00000000000000000000000bb000000000000000f8:+-  ",
"   -: 90000000000000000000000ab0000000000000000c :=  d00000000000000000000e  >$  00000000000000000000000bb000000000000000f8:-   ",
"   ;@ 90000000000000000000000ab0000000000000000c :+. d00000000000000000000e >$+  00000000000000000000000bb000000000000000f8@;   ",
"  ;#: 90000000000000000000000ab0000000000000000c i++!d00000000000000000000e~*++  00000000000000000000000bb000000000000000f8:#;  ",
" ;#+: 90000000000000000000000ab0000000000000000c :+#;d00000000000000000000e>$++  00000000000000000000000bb000000000000000f8:+#; ",
" &%%@ 90000000000000000000000ab0000000000000000c :#; d00000000000000000000e >$+  00000000000000000000000bb000000000000000f8@%%& ",
" >$+: 90000000000000000000000ab0000000000000000c @;  d00000000000000000000e  >$  00000000000000000000000bb000000000000000f8:+$> ",
"  >$: 90000000000000000000000ab0000000000000000c &;  d00000000000000000000e   k  00000000000000000000000bb000000000000000f8:$>  ",
"   >g 90000000000000000000000ab0000000000000000c :#; d00000000000000000000e  =+  00000000000000000000000bb000000000000000f8g>   ",
"   =: 90000000000000000000000ab0000000000000000c :+#;d00000000000000000000e =++  00000000000000000000000bb000000000000000f8:=   ",
"  =+: 90000000000000000000000ab0000000000000000c i++!d00000000000000000000e{%%%  00000000000000000000000bb000000000000000f8:+=  ",
" h++i 90000000000000000000000ab0000000000000000c :+- d00000000000000000000e -++  00000000000000000000000bb000000000000000f8i++j ",
" -++: 90000000000000000000000ab0000000000000000c :-  d00000000000000000000e  -+  00000000000000000000000bb000000000000000f8:++- ",
"  -+: 90000000000000000000000ab0000000000000000c !   d00000000000000000000e   !  00000000000000000000000bb000000000000000f8:+-  ",
"   -: 90000000000000000000000ab0000000000000000c :=  d00000000000000000000e  ;#  00000000000000000000000bb000000000000000f8:-   ",
"   ;@ 90000000000000000000000ab0000000000000000c :+= d00000000000000000000e ;#+  00000000000000000000000bb000000000000000f8@;   ",
"  ;#: 90000000000000000000000ab0000000000000000c @%%/d00000000000000000000e;'++  00000000000000000000000bb000000000000000f8:#;  ",
" ;#+: 90000000000000000000000ab0000000000000000c :+$>d00000000000000000000e>$++  00000000000000000000000bb000000000000000f8:+#; ",
" &%%@ 90000000000000000000000ab0000000000000000c :$> d00000000000000000000e >$+  00000000000000000000000bb000000000000000f8@%%& ",
" >$+: 90000000000000000000000ab0000000000000000c l>  d00000000000000000000e  >$  00000000000000000000000bb000000000000000f8:+$> ",
"  >$: 90000000000000000000000ab0000000000000000c &;  d00000000000000000000e   k  00000000000000000000000bb000000000000000f8:$>  ",
"   >g 90000000000000000000000ab0000000000000000c :#; d00000000000000000000e  =+  00000000000000000000000bb000000000000000f8g>   ",
"   =: 90000000000000000000000ab0000000000000000c :+#;d00000000000000000000e =++  00000000000000000000000bb000000000000000f8:=   ",
"  =+: 90000000000000000000000ab0000000000000000c i++!d00000000000000000000e{%%%  00000000000000000000000bb000000000000000f8:+=  ",
" h++i 90000000000000000000000ab0000000000000000c :+- d00000000000000000000e -++  00000000000000000000000bb000000000000000f8i++j ",
" -++: 90000000000000000000000ab0000000000000000c :-  d00000000000000000000e  -+  00000000000000000000000bb000000000000000f8:++- ",
"  -+: 90000000000000000000000ab0000000000000000c !   d00000000000000000000e   !  00000000000000000000000bb000000000000000f8:+-  ",
"   -: 90000000000000000000000ab0000000000000000c :=  d00000000000000000000e  ;#  00000000000000000000000bb000000000000000f8:-   ",
"   ;@ 90000000000000000000000ab0000000000000000c :+= d00000000000000000000e ;#+  00000000000000000000000bb000000000000000f8@;   ",
"  ;#: 90000000000000000000000ab0000000000000000c @%%/d00000000000000000000e;*%%  00000000000000000000000bb000000000000000f8:#;  ",
" ;#+: 90000000000000000000000ab0000000000000000c :+$>d00000000000000000000e =++  00000000000000000000000bb000000000000000f8:+#; ",
" l%%@ 90000000000000000000000ab0000000000000000c :$> d00000000000000000000e  =+  00000000000000000000000bb000000000000000f8@%%l ",
"  :+: 90000000000000000000000ab0000000000000000c =>  d00000000000000000000e   k  00000000000000000000000bb000000000000000f8:+$  ",
"  >$: 90000000000000000000000ab0000000000000000c :-  d00000000000000000000e  >$  00000000000000000000000bb000000000000000f8:$>  ",
"   >g 90000000000000000000000ab0000000000000000c :+- d00000000000000000000e >$+  00000000000000000000000bb000000000000000f8g>   ",
"   =: 90000000000000000000000ab0000000000000000c i++!d00000000000000000000e>$++  00000000000000000000000bb000000000000000f8:=   ",
"  =+: 90000000000000000000000ab0000000000000000c :+#;d00000000000000000000e;'++  00000000000000000000000bb000000000000000f8:+=  ",
" h++i 90000000000000000000000ab0000000000000000c :+; d00000000000000000000e ;#+  00000000000000000000000bb000000000000000f8i++j ",
" ;#+: 90000000000000000000000ab0000000000000000c :-  d00000000000000000000e  ;#  00000000000000000000000bb000000000000000f8:+#; ",
"  ;#: 90000000000000000000000ab0000000000000000c =>  d00000000000000000000e   !  00000000000000000000000bb000000000000000f8:#;  ",
"   -: 90000000000000000000000ab0000000000000000c :$> d00000000000000000000e  -+  00000000000000000000000bb000000000000000f8:-   ",
"   ;@ 90000000000000000000000ab0000000000000000c :+$>d00000000000000000000e -++  00000000000000000000000bb000000000000000f8@;   ",
"  ;#: 90000000000000000000000ab0000000000000000c @%%/d00000000000000000000e{%%%  00000000000000000000000bb000000000000000f8:#;  ",
" ;#+: 90000000000000000000000ab0000000000000000c :+= d00000000000000000000e =++  00000000000000000000000bb000000000000000f8:+#; ",
" l%%@ 90000000000000000000000ab0000000000000000c :=  d00000000000000000000e  =+  00000000000000000000000bb000000000000000f8@%%l ",
"  =+: 90000000000000000000000ab0000000000000000c mnnod00000000000000000000e pnq  00000000000000000000000bb000000000000000f8:+=  ",
"   =: 90000000000000000000000ab0000000000000000c rsstd00000000000000000000e uss  00000000000000000000000bb000000000000000f8:=   ",
"    = 90000000000000000000000ab0000000000000000c rsstd00000000000000000000e vss  00000000000000000000000bb000000000000000f8=    ",
"   =: 90000000000000000000000ab0000000000000000c wxsyd00000000000000000000e>wxs  00000000000000000000000bb000000000000000f8:=   ",
"  =+: 90000000000000000000000ab0000000000000000c rzABd00000000000000000000e;CDE  00000000000000000000000bb000000000000000f8:+=  ",
" h++i 90000000000000000000000ab0000000000000000c rAstd00000000000000000000e FAs  00000000000000000000000bb000000000000000f8i++j ",
" ;#+: 90000000000000000000000ab0000000000000000c Gsstd00000000000000000000e uss  00000000000000000000000bb000000000000000f8:+#; ",
"  ;#: 90000000000000000000000ab0000000000000000c Gsstd00000000000000000000e uss  00000000000000000000000bb000000000000000f8:#;  ",
"   ;& 90000000000000000000000ab0000000000000000c HIJKd00000000000000000000e LMN  00000000000000000000000bb000000000000000f8&;   ",
"   ;@ 90000000000000000000000ab0000000000000000c :+$>d00000000000000000000e -++  00000000000000000000000bb000000000000000f8@;   ",
"  ;#: 90000000000000000000000ab0000000000000000c @%%/d00000000000000000000e;%%%  00000000000000000000000bb000000000000000f8:#;  ",
" ;#+: 90000000000000000000000ab0000000000000000c :+= d00000000000000000000e -++  00000000000000000000000bb000000000000000f8:+#; ",
" l%%@ 90000000000000000000000ab0000000000000000c :=  d00000000000000000000e  -+  00000000000000000000000bb000000000000000f8@%%l ",
"  =+: 90000000000000000000000ab0000000000000000c /   d00000000000000000000e   !  00000000000000000000000bb000000000000000f8:+=  ",
"   =: 90000000000000000000000ab0000000000000000c :=  d00000000000000000000e  ;#  00000000000000000000000bb000000000000000f8:=   ",
"    / 90000000000000000000000ab0000000000000000c :+= d00000000000000000000e ;#+  00000000000000000000000bb000000000000000f8/    ",
"   =: 90000000000000000000000ab0000000000000000c @%%ld00000000000000000000e;'++  00000000000000000000000bb000000000000000f8:=   ",
"  =+: 90000000000000000000000ab0000000000000000c :+#;d00000000000000000000e>$++  00000000000000000000000bb000000000000000f8:+=  ",
" h++i 90000000000000000000000ab0000000000000000c :#; d00000000000000000000e >$+  00000000000000000000000bb000000000000000f8i++j ",
" ;#+: 90000000000000000000000ab0000000000000000c @;  d00000000000000000000e  >$  00000000000000000000000bb000000000000000f8:+#; ",
"  ;#: 90000000000000000000000ab0000000000000000c &;  d00000000000000000000e   k  00000000000000000000000bb000000000000000f8:#;  ",
"   ;@ 90000000000000000000000ab0000000000000000c :#; d00000000000000000000e  =+  00000000000000000000000bb000000000000000f8@;   ",
"   ;@ 90000000000000000000000ab0000000000000000c :+#;d00000000000000000000e =++  00000000000000000000000bb000000000000000f8@;   ",
"  ;#: 90000000000000000000000ab0000000000000000c i++!d00000000000000000000e{%%%  00000000000000000000000bb000000000000000f8:#;  ",
" ;#+: 90000000000000000000000ab0000000000000000c :+- d00000000000000000000e -++  00000000000000000000000bb000000000000000f8:+#; ",
" j++i 90000000000000000000000ab0000000000000000c :-  d00000000000000000000e  -+  00000000000000000000000bb000000000000000f8i++h ",
"  =+: 90000000000000000000000ab0000000000000000c !   d00000000000000000000e   !  00000000000000000000000bb000000000000000f8:+=  ",
"   =: 90000000000000000000000ab0000000000000000c :=  d00000000000000000000e  ;#  00000000000000000000000bb000000000000000f8:=   ",
"    / 90000000000000000000000ab0000000000000000c :+= d00000000000000000000e ;#+  00000000000000000000000bb000000000000000f8/    ",
"   =: 90000000000000000000000ab0000000000000000c @%%/d00000000000000000000e;'++  00000000000000000000000bb000000000000000f8:=   ",
"  =+: 90000000000000000000000ab0000000000000000c :+$>d00000000000000000000e>$++  00000000000000000000000bb000000000000000f8:+=  ",
" l%%@ 90000000000000000000000ab0000000000000000c :$> d00000000000000000000e >$+  00000000000000000000000bb000000000000000f8@%%l ",
" ;#+: 90000000000000000000000ab0000000000000000c l>  d00000000000000000000e  >$  00000000000000000000000bb000000000000000f8:+#; ",
"  ;#: 90000000000000000000000ab0000000000000000c &;  d00000000000000000000e   k  00000000000000000000000bb000000000000000f8:#;  ",
"   ;@ 90000000000000000000000ab0000000000000000c :#; d00000000000000000000e  =+  00000000000000000000000bb000000000000000f8@;   ",
"   ;& 90000000000000000000000ab0000000000000000c :+#;d00000000000000000000e =++  00000000000000000000000bb000000000000000f8&;   ",
"  ;#: 90000000000000000000000ab0000000000000000c i++!d00000000000000000000e;%%%  00000000000000000000000bb000000000000000f8:#;  ",
" ;#+: 90000000000000000000000ab0000000000000000c :+- d00000000000000000000e -++  00000000000000000000000bb000000000000000f8:+#; ",
" j++i 90000000000000000000000ab0000000000000000c :-  d00000000000000000000e  -+  00000000000000000000000bb000000000000000f8i++h ",
"  =+: 90000000000000000000000ab0000000000000000c l>  d00000000000000000000e   l  00000000000000000000000bb000000000000000f8:+=  ",
"   =: 90000000000000000000000ab0000000000000000c :$> d00000000000000000000e  (+  00000000000000000000000bb000000000000000f8:=   ",
"    g 90000000000000000000000ab0000000000000000c :+$>d00000000000000000000e ;#+  00000000000000000000000bb000000000000000f8g    ",
"   =: 90000000000000000000000ab0000000000000000c @%%/d00000000000000000000e;*%%  00000000000000000000000bb000000000000000f8:=   ",
"  =+: 90000000000000000000000ab0000000000000000c :+$>d00000000000000000000e =++  00000000000000000000000bb000000000000000f8:+=  ",
" l%%@ 90000000000000000000000ab0000000000000000c :$> d00000000000000000000e  =+  00000000000000000000000bb000000000000000f8@%%l ",
" ;#+: 90000000000000000000000ab0000000000000000c l>  d00000000000000000000e   k  00000000000000000000000bb000000000000000f8:+#; ",
"  ;#: 90000000000000000000000ab0000000000000000c :-  d00000000000000000000e  >$  00000000000000000000000bb000000000000000f8:#;  ",
"   ;@ 90000000000000000000000ab0000000000000000c :+- d00000000000000000000e >$+  00000000000000000000000bb000000000000000f8@;   ",
"   -: 90000000000000000000000ab0000000000000000c i++!d00000000000000000000e>$++  00000000000000000000000bb000000000000000f8:-   ",
"  ;+: 90000000000000000000000ab0000000000000000c :+#;d00000000000000000000e;'++  00000000000000000000000bb000000000000000f8:+;  ",
" ;#+: 90000000000000000000000ab0000000000000000c :#; d00000000000000000000e ;#+  00000000000000000000000bb000000000000000f8:+#; "};
