/* XPM */
static char * C_Twins_01_xpm[] = {
"128 128 41 1",
" 	c None",
".	c #614432",
"+	c #563C2B",
"@	c #462716",
"#	c #512F1B",
"$	c #E3AB7F",
"%	c #879091",
"&	c #7E9C9C",
"*	c #E0A271",
"=	c #FFC3BA",
"-	c #C99165",
";	c #EBECEB",
">	c #99A1A2",
",	c #EDDCDC",
"'	c #CF8C58",
")	c #CFE8E2",
"!	c #A095B5",
"~	c #C56B53",
"{	c #CE8662",
"]	c #D4996A",
"^	c #BB8052",
"/	c #2E2214",
"(	c #92B9DE",
"_	c #83A7C8",
":	c #A2C8E4",
"<	c #90B3CC",
"[	c #9DBFE0",
"}	c #D3D3D3",
"|	c #F2F2F2",
"1	c #DF897D",
"2	c #EEA297",
"3	c #D69187",
"4	c #46341D",
"5	c #6C92BC",
"6	c #696B92",
"7	c #283C57",
"8	c #ADC7C3",
"9	c #2E2424",
"0	c #CAD5D4",
"a	c #1A1A1A",
"b	c #000000",
"                                                                                                                                ",
"                                                                                                                                ",
"                                                                                                                                ",
"                                                                                                                                ",
"                                                                                                                                ",
"                                                                                                                                ",
"                                                                                                                                ",
"                                                                                                                                ",
"                                                                                                                                ",
"                                                                                                                                ",
"                                                                                                                                ",
"                                                                                                                                ",
"                                                                                                                                ",
"                                                                                                                                ",
"                                                                                                                                ",
"                                                                                                                                ",
"                                                                                                                                ",
"                                                                                                                                ",
"                                                                                                                                ",
"                                                                                                                                ",
"                                                                                                                                ",
"                                                                                                                                ",
"                                                                                                                                ",
"                                                                                                                                ",
"                                                                                                                                ",
"                                                                                                                                ",
"                                                                                                                                ",
"                                                                                                                                ",
"                                                                                                                                ",
"                                                                                                                                ",
"                                                                                                                                ",
"                                                                                                                                ",
"                                                                                                                                ",
"                                                                                                                                ",
"                                                                                                                                ",
"                                                                                                                                ",
"                                        ....++++++                            ....++++++                                        ",
"                                       .....++++++                            ....+++++++                                       ",
"                                      .@@@@@######@@                        ..@@@@#######@                                      ",
"                                     ..@@@@@######@@                        ..@@@@#######@@                                     ",
"                                    .##$$$$$..@@@@@@@@                    ..##$$$$..@@@@@@@@                                    ",
"                                   ..##$$$$$..@@@@@@@@                    ..##$$$$..@@@@@@@@@                                   ",
"                                   ..##$$$$$..@@@@@@@@%                  &..##$$$$..@@@@@@@@@                                   ",
"                                 ..@@$$*******@@@@@@==@@@              ...@@$$******@@@@@@@==@@                                 ",
"                                 ..@@$$*******@@@@@@==@@@              ...@@$$******@@@@@@@==@@                                 ",
"                                 ++##$$*************=====              +++##$$*************====                                 ",
"                                 ++##$$*************=====              +++##$$*************====                                 ",
"                               ..@@$$***************--===@@          ..@@@$$***************--==@@                               ",
"                               ..@@$$***************--===@@          ..@@@$$***************--==@@                               ",
"                               ++##$$***************--@@@@@          ++###$$***************--@@@@                               ",
"                               ++##$$***************--@@@@@          ++###$$***************--@@@@                               ",
"                               ++##$$;;>>>,;'',;>>;;--@@@@@          ++###$$,;>>;;'';;>>>,;--@@@@                               ",
"                               ++##$$,)>>&);'';;>!,;--@@@@@          ++###$$;;>&,;'',)>!&);--@@@@                               ",
"                               ++##$$~~~~~~~**~~~~~~--@@@@@          ++###$$~~~~~~**~~~~~~~--@@@@                               ",
"                               ++##$$~~~~~~~**~~~~~~--@@@@@          ++###$$~~~~~~**~~~~~~~--@@@@                               ",
"                               ++##$$*******{{******--@@@@@          ++###$$******{{*******--@@@@                               ",
"                               ++##$$*******{{******--@@@@@          ++###$$******{{*******--@@@@                               ",
"                               ++##$$*******{{******--@@@@@          ++###$$******{{*******--@@@@                               ",
"                               ..@@$$***************--@@@@@          ..@@@$$***************--@@@@                               ",
"                               ..@@$$***************--@@@@@          ..@@@$$***************--@@@@                               ",
"                               ++####$$***''''''**--@@@@@@@          ++#####$$**''''''***--@@@@@@                               ",
"                               ++####$$***''''''**--@@@@@@@          ++#####$$**''''''***--@@@@@@                               ",
"                             ..@@##@@##$$$******--##@@###@@@@      ..@@###@@##$$******---##@@##@@@@                             ",
"                             ..@@##@@##$$$******--##@@###@@@@      ..@@###@@##$$******---##@@##@@@@                             ",
"                             ++####@@#####]]''^^##@@#####@@##@@  ..##@@#####@@##]]''^^#####@@####@@                             ",
"                             ++####@@#####]]''^^##@@#####@@##@@  ..##@@#####@@##]]''^^#####@@####@/                             ",
"                           ..@@@/##@@@@@@@$$**--@@@@##@@@####@@  ..####@@@##@@@@$$**--@@@@@@@##@/@@@@                           ",
"                           ..@@@/##@@@@@@@$$**--@@@@##@@@####@@  ..####@@@##@@@@$$**--@@@@@@@##@/@@@@                           ",
"                             ..((++@@((;;;$$**--;;++##@@@@@__@@  ..::++@@@##@@;;$$**--;;;((..@@((@@                             ",
"                             ..((++@@((;;;$$**--;;++##@@@@@__@@  ..::++@@@##@@;;$$**--;;;((..@@((@@                             ",
"                             ::((::(((((((;;;;;;((((++@@@((__      ::((...@@((((;;;;;;(((((((::((<<                             ",
"                             ::((::(((((((;;;;;;((((++@@@((__      ::((...@@((((;;;;;;(((((((::((<<                             ",
"                             ::((::[[((((((((((((((((((((((((}}  ;;((((:::__(((((((((((((((((::((<<                             ",
"                             ::((::[[((((((((((((((((((((((((}}  ;;((((:::__(((((((((((((((((::((<<                             ",
"                             ::((::[[((((((((((((((((((((((((}}  ;;((((:::__(((((((((((((((((::((<<                             ",
"                             ;;;;;;[[(((((((((((((((((___((;;--  $$;;::___(((((((((((((((((((;;;;}}                             ",
"                             ;;;;;;[[(((((((((((((((((___((;;--  $$;;::___(((((((((((((((((((;;;;}}                             ",
"                               $$--[[(((((((((((((((__   ||**--  $$**;,   [[((((((((((((((((($$--                               ",
"                               $$--[[(((((((((((((((__   ||**--  $$**;)   [[((((((((((((((((($$--                               ",
"                               $$--  [[(((11((11((((       $$**''$$**       [[((11((11(((((  $$--                               ",
"                               $$--  [[(((11((11((((       $$**''$$**       [[((11((11(((((  $$--                               ",
"                               $$--  222221122112233         $$''$$         222211221122222  $$--                               ",
"                               $$--  222221122112233         $$''$$         =22211221122222  $$--                               ",
"                               $$--::((:::22((22::((<<       $$''$$       ::((::22((22:::((::$$--                               ",
"                               $$--::((:::22((22::((<<       $$''$$       ::((::22((22:::((::$$--                               ",
"                               $$--::((:::22((22::((<<       ]]$$--       ::((::22((22:::((::$$--                               ",
"                               $$--::((:::22((22::((<<       ]]$$--       ::((::22((22:::((::$$--                               ",
"                               $$--::((:::22((22::((::__     ]]$$--     [[::((::22((22:::((::$$--                               ",
"                               $$--::((:::22((22::((::___    ]]$$--    [[[::((::22((22:::((::$$--                               ",
"                               $$--::[(:::22((22::((::___   4]]$$--4   [[[::((::22((22:::((::$$--                               ",
"                               $$**--((:::22((22::((::___  $$****''--  [[[::((::22((22:::(($$**--                               ",
"                               $$**--((:::22((22::((::___  $$****''--  [[[::((::22((22:::(($$**--                               ",
"                               $$**--((:::22((22::((::___  $$****''--  [[[::((::22((22:::(($$**--                               ",
"                               $$**--((:::22((22::((::___  $$****''--  [[[::((::22((22:::(($$**--                               ",
"                               $$**--55___225522__55__556  $$**''''--  _5___55__225522___55$$**--                               ",
"                               $$**--55___225522__55__556  $$**''''--  _____55__225522___55$$**--                               ",
"                                 ::((::(((22((22((::((<<<    ]]----    :::((::((22((22(((::((::                                 ",
"                                 ::((::(((22((22((::((<<<    ]]----    :::((::((22((22(((::((::                                 ",
"                                 ::((::(((22((22((::((<<<              :::((::((22((22(((::((::                                 ",
"                                 ::((::(((22((22((::((<<<              :::((::((22((22(((::((::                                 ",
"                               [[::((::(((::((::((::((:::__          [[:::((::((::((::(((::((::__                               ",
"                               [[::((::(((::((::((::((:::__          [[:::((::((::((::(((::((::__                               ",
"                               ;;;;;;;;;;;;;;;;;;;;;;;;;;}}          ;;;;;;;;;;;;;;;;;;;;;;;;;;}}                               ",
"                               ;;;;;;;;;;;;;;;;;;;;;;;;;;}}          ;;;;;;;;;;;;;;;;;;;;;;;;;;}}                               ",
"                                       $$$-- 7$$--7                          7$$--7 $$---                                       ",
"                                       $$$--  $$--                            $$--  $$---                                       ",
"                                       $$$--  $$--                            $$--  $$---                                       ",
"                                       $$$--  $$--                            $$--  $$---                                       ",
"                                       $$$--  $$--                            $$--  $$---                                       ",
"                                       $$$--  $$--                            $$--  $$---                                       ",
"                                       $$$--  $$--                            $$--  $$---                                       ",
"                                       $$$--  $$--                            $$--  $$---                                       ",
"                                       $$$--  $$--                            $$--  $$---                                       ",
"                                       ;;;88  ))}}                            ))}}  ;;888                                       ",
"                                       ;;|88  ))}}                            ))}}  ;;888                                       ",
"                           999999999999)))}}  ;;88                            ;;88  ))}}}999999999999                           ",
"                           999999999999)))}}  ;|88                            ;|88  ))}}}999999999999                           ",
"                      99999999999999999;;;8899))}}                            ))}}99;;88899999999999999999                      ",
"                      99999999999999999;;|8899))}}                            ))}}99;;88899999999999999999                      ",
"                    9999999999999999999)))}}99;;889999             99999999999;;8899))}}}9999999999999999999                    ",
"                    9999999999999999999)))}}99;|889999             99999999999;|8899))}}}9999999999999999999                    ",
"                    9999999999999999999)))}}99;;8899997            99999999999;;8899))}}}9999999999999999999                    ",
"                    9999999999999999999;;;0099))}}9999999999999999999999999999))}}99;;8809999999999999999999                    ",
"                    9999999999999999999;;;0899))}}9999999999999999999999999999))}}99;;8889999999999999999999                    ",
"                      99999999999aa;;aa;;;bb99aa;;aa;;aaa99999999999999aaa;;aa;;bb99aa;;;aa;;aa99999999999                      ",
"                      99999999999aa;;aa;;;bb99aa;;aa;;aaa99999999999999aaa;;aa;;bb99aa;;;aa;;aa99999999999                      ",
"                           999999aabbbbbbbbb99aabbbbbbbbb99          99aaabbbbbbbb99aa99bbbbbbb999999                           ",
"                           999999aabbbbbbbbb99aabbbbbbbbb99          99aaabbbbbbbb99aa99bbbbbbb999999                           "};
