/* XPM */
static char * DAN_01_xpm[] = {
"128 128 43 1",
" 	c None",
".	c #90664C",
"+	c #9D7359",
"@	c #926346",
"#	c #835538",
"$	c #764C32",
"%	c #83593F",
"&	c #E0A271",
"*	c #E3AB7F",
"=	c #FFFFFF",
"-	c #898383",
";	c #C99165",
">	c #CB8560",
",	c #D09170",
"'	c #B67756",
")	c #999B9E",
"!	c #7F8184",
"~	c #C91415",
"{	c #373882",
"]	c #8D9093",
"^	c #CF2C2D",
"/	c #A7A7A7",
"(	c #C1C1C1",
"_	c #2A68B4",
":	c #D5CE1B",
"<	c #104E9A",
"[	c #1257AB",
"}	c #292A60",
"|	c #34363F",
"1	c #4B4C8F",
"2	c #B32A2B",
"3	c #AA1213",
"4	c #991011",
"5	c #313275",
"6	c #1D1F29",
"7	c #B51213",
"8	c #1A1C25",
"9	c #2C1710",
"0	c #182232",
"a	c #303947",
"b	c #EBEBEB",
"c	c #D3D3D3",
"d	c #EDEDED",
"                                                                                                                                ",
"                                                                                                                                ",
"                                                                                                                                ",
"                                                                                                                                ",
"                                                                                                                                ",
"                                                                                                                                ",
"                                                                                                                                ",
"                                                                                                                                ",
"                                                                                                                                ",
"                                                                                                                                ",
"                                                                                                                                ",
"                                                                                                                                ",
"                                                                                                                                ",
"                                                                                                                                ",
"                                                                                                                                ",
"                                                                                                                                ",
"                                                                                                                                ",
"                                                                                                                                ",
"                                                                                                                                ",
"                                                                                                                                ",
"                                                                                                                                ",
"                                                                                                                                ",
"                                                                                                                                ",
"                                                                                                                                ",
"                                                                                                                                ",
"                                                                                                                                ",
"                                                                                                                                ",
"                                                                                                                                ",
"                                                                                                                                ",
"                                                                                                                                ",
"                                                                                                                                ",
"                                                                                                                                ",
"                                                                                                                                ",
"                                                                                                                                ",
"                                                                                                                                ",
"                                                                                                                                ",
"                                                                                                                                ",
"                                                                                                                                ",
"                                                                                                                                ",
"                                                                                                                                ",
"                                                                                                                                ",
"                                                                                                                                ",
"                                                                                                                                ",
"                                                                                                                                ",
"                                                                                                                                ",
"                                                                                                                                ",
"                                                                                                                                ",
"                                                                                                                                ",
"                                                                                                                                ",
"                                                                                                                                ",
"                                                                                                                                ",
"                                                                                                                                ",
"                                                                                                                                ",
"                                                                                                                                ",
"                                                                                                                                ",
"                                                                                                                                ",
"                                                                                                                                ",
"                                                                                                                                ",
"                                                                                                                                ",
"                                                                                                                                ",
"                                                                                                                                ",
"                                                           ..++.++..                                                            ",
"                                                           ..++.++..                                                            ",
"                                                        +..@@##@##@@$$%%                                                        ",
"                                                        +..@@##@##@@$$%%                                                        ",
"                                                      ++#@@##@@#@@##@@##%                                                       ",
"                                                      ++#@@##@@#@@##@@##%                                                       ",
"                                                      ++#@@##@@#@@##@@##%                                                       ",
"                                                    ++##@##@@@@#@@@@##@@#%%                                                     ",
"                                                    ++##@##@@@@#@@@@##@@#%%                                                     ",
"                                                    ++##@##&&@@#@@&&##@@#%%                                                     ",
"                                                    ++##@##&&@@#@@&&##@@#%%                                                     ",
"                                                    ++###&&&&&&&&&&&&&###%%                                                     ",
"                                                    ++###&&&&&&&&&&&&&###%%                                                     ",
"                                                    ..@@*==--==&==--==;;@$$                                                     ",
"                                                  ++##@@*&&&&&&&&&&&&&;;@##%%                                                   ",
"                                                  ++##@@*&&&&&&&&&&&&&;;@##%%                                                   ",
"                                                  ..@@##*&&&&&&>&&&&&&;;#@@$$                                                   ",
"                                                  ..@@##*&&&&&&>&&&&&&;;#@@$$                                                   ",
"                                                  ..@@##*&&&&&&&&&&&&&;;#@@$$                                                   ",
"                                                  ..@@##*&&&&&&&&&&&&&;;#@@$$                                                   ",
"                                                    ++##,&&&&>>>>>&&&&''#%%                                                     ",
"                                                    ++##,&&&&>>>>>&&&&''#%%                                                     ",
"                                                      ++#**&&&&&&&&&;;##%                                                       ",
"                                                        .@@**&&&&&;;@@$$                                                        ",
"                                                        .@@**&&&&&;;@@$$                                                        ",
"                                                           ))&&&&&!!                                                            ",
"                                                           ))&&&&&!!                                                            ",
"                                               ~~~~~~~~~~)){{]]&]]{{!!^^^~~~~~~~~                                               ",
"                                               ~~~~~~~~~~)){{]]&]]{{!!^^^~~~~~~~~                                               ",
"                                               &&&//&&~~~~~{{~~~~~{{~~~~~&&((****                                               ",
"                                               &&&//&&~~~~~{{~~~~~{{~~~~~&&((****                                               ",
"                                          *****>&&((//~~~~~{{~~~~~{{~~~~~((//&&>>;;;;                                           ",
"                                          ,,,,,&>>;;((//~~~{{~~~~~{{~~~~(//**>>&&''''                                           ",
"                                          ,,,,,&>>;;((//~~~{{~~~~~{{~~~~(//**>>&&''''                                           ",
"                                          *****>;;  __((/{{::{{{{{::{{((/<<  **>>;;;;                                           ",
"                                          *****>;;  __((/{{::{{{{{::{{((/<<  **>>;;;;                                           ",
"                                          *****>;;  __((/{{::{{{{{::{{((/<<  **>>;;;;                                           ",
"                                          (((((*    __[[(//{{{{{{{{{((//[<<    **////                                           ",
"                                          (((((*    __[[(//{{{{{{{{{((//[<<    **////                                           ",
"                                                    __[[~((//}}}}}((//~~[<<                                                     ",
"                                                    __[[~((//}}}}}((//~~[<<                                                     ",
"                                               |||||__[[1{{223333344{{{{5<<||||||                                               ",
"                                          |||||66666__[[1^^~~~~~~~~~77{{5<<6666668888                                           ",
"                                          |||||66666__[[1^^~~~~~~~~~77{{5<<6666668888                                           ",
"                                          |||||66666__11{^^~~~~~~~~~77{{{556666668888                                           ",
"                                          |||||66666__11{^^~~~~~~~~~77{{{556666668888                                           ",
"                                          |||||66666__11{2233[[[[[3344{{{556666668888                                           ",
"                                          |||||66666__11{2233[[[[[3344{{{556666668888                                           ",
"                                          |||||66666__11{2233[[[[[3344{{{556666668888                                           ",
"                                          |||||66666__11{^^[[[[[[[[[77{{{556666668888                                           ",
"                                          |||||66666__11{^^[[[[[[[[[77{{{556666668888                                           ",
"                                               888889911{^^99999999977{{{558888889999                                           ",
"                                               9999911{{{^^9999|99997700000aaaa999999                                           ",
"                                               9999911{{{^^9999|99997700000aaaa999999                                           ",
"                                                    11{{{^^99||6889977bbbbbbbcc99                                               ",
"                                                    11{{{^^99||6889977bbbbbbbcc99                                               ",
"                                                    11{{{^^99||6889977]]]]]!!9999                                               ",
"                                                    11{{{^^99||6889977]]]]]!!9999                                               ",
"                                                    11{{{^^]]||688]]77999999999                                                 ",
"                                                    11{{{^^]]||688]]77999999999                                                 ",
"                                                aaaa00000^^]]||688]]77999999999                                                 ",
"                                                ddbbbbbbb^^99||68899779999999                                                   ",
"                                                ddbbbbbbb^^99||68899779999999                                                   ",
"                                                99))]]]]]9999||688999999999                                                     ",
"                                                99))]]]]]9999||688999999999                                                     ",
"                                                  99999999999||6889999999                                                       ",
"                                                  99999999999||6889999999                                                       "};
