/* XPM */
static char * DAN_02_xpm[] = {
"128 128 43 1",
" 	c None",
".	c #90664C",
"+	c #9D7359",
"@	c #926346",
"#	c #835538",
"$	c #764C32",
"%	c #83593F",
"&	c #E0A271",
"*	c #E3AB7F",
"=	c #FFFFFF",
"-	c #898383",
";	c #C99165",
">	c #CB8560",
",	c #D09170",
"'	c #B67756",
")	c #999B9E",
"!	c #7F8184",
"~	c #C91415",
"{	c #B51213",
"]	c #373882",
"^	c #8D9093",
"/	c #A7A7A7",
"(	c #C1C1C1",
"_	c #2A68B4",
":	c #D5CE1B",
"<	c #104E9A",
"[	c #1257AB",
"}	c #292A60",
"|	c #1A1C25",
"1	c #4B4C8F",
"2	c #B32A2B",
"3	c #AA1213",
"4	c #991011",
"5	c #313275",
"6	c #34363F",
"7	c #1D1F29",
"8	c #CF2C2D",
"9	c #2C1710",
"0	c #161F2D",
"a	c #182232",
"b	c #EDEDED",
"c	c #EBEBEB",
"d	c #D3D3D3",
"                                                                                                                                ",
"                                                                                                                                ",
"                                                                                                                                ",
"                                                                                                                                ",
"                                                                                                                                ",
"                                                                                                                                ",
"                                                                                                                                ",
"                                                                                                                                ",
"                                                                                                                                ",
"                                                                                                                                ",
"                                                                                                                                ",
"                                                                                                                                ",
"                                                                                                                                ",
"                                                                                                                                ",
"                                                                                                                                ",
"                                                                                                                                ",
"                                                                                                                                ",
"                                                                                                                                ",
"                                                                                                                                ",
"                                                                                                                                ",
"                                                                                                                                ",
"                                                                                                                                ",
"                                                                                                                                ",
"                                                                                                                                ",
"                                                                                                                                ",
"                                                                                                                                ",
"                                                                                                                                ",
"                                                                                                                                ",
"                                                                                                                                ",
"                                                                                                                                ",
"                                                                                                                                ",
"                                                                                                                                ",
"                                                                                                                                ",
"                                                                                                                                ",
"                                                                                                                                ",
"                                                                                                                                ",
"                                                                                                                                ",
"                                                                                                                                ",
"                                                                                                                                ",
"                                                                                                                                ",
"                                                                                                                                ",
"                                                                                                                                ",
"                                                                                                                                ",
"                                                                                                                                ",
"                                                                                                                                ",
"                                                                                                                                ",
"                                                                                                                                ",
"                                                                                                                                ",
"                                                                                                                                ",
"                                                                                                                                ",
"                                                                                                                                ",
"                                                                                                                                ",
"                                                                                                                                ",
"                                                                                                                                ",
"                                                                                                                                ",
"                                                                                                                                ",
"                                                                                                                                ",
"                                                                                                                                ",
"                                                                                                                                ",
"                                                                                                                                ",
"                                                                                                                                ",
"                                                           ..++.++..                                                            ",
"                                                           ..++.++..                                                            ",
"                                                        +..@@##@##@@$$%%                                                        ",
"                                                        +..@@##@##@@$$%%                                                        ",
"                                                      ++#@@##@@#@@##@@##%                                                       ",
"                                                      ++#@@##@@#@@##@@##%                                                       ",
"                                                      ++#@@##@@#@@##@@##%                                                       ",
"                                                    ++##@##@@@@#@@@@##@@#%%                                                     ",
"                                                    ++##@##@@@@#@@@@##@@#%%                                                     ",
"                                                    ++##@##&&@@#@@&&##@@#%%                                                     ",
"                                                    ++##@##&&@@#@@&&##@@#%%                                                     ",
"                                                    ++###&&&&&&&&&&&&&###%%                                                     ",
"                                                    ++###&&&&&&&&&&&&&###%%                                                     ",
"                                                    ..@@*==--==&==--==;;@$$                                                     ",
"                                                  ++##@@*&&&&&&&&&&&&&;;@##%%                                                   ",
"                                                  ++##@@*&&&&&&&&&&&&&;;@##%%                                                   ",
"                                                  ..@@##*&&&&&&>&&&&&&;;#@@$$                                                   ",
"                                                  ..@@##*&&&&&&>&&&&&&;;#@@$$                                                   ",
"                                                  ..@@##*&&&&&&&&&&&&&;;#@@$$                                                   ",
"                                                  ..@@##*&&&&&&&&&&&&&;;#@@$$                                                   ",
"                                                    ++##,&&&&>>>>>&&&&''#%%                                                     ",
"                                                    ++##,&&&&>>>>>&&&&''#%%                                                     ",
"                                                      ++#**&&&&&&&&&;;##%                                                       ",
"                                                        .@@**&&&&&;;@@$$                                                        ",
"                                                        .@@**&&&&&;;@@$$                                                        ",
"                                                           ))&&&&&!!                                                            ",
"                                                           ))&&&&&!!                                                            ",
"                                               ~~~~~~~{{{))]]^^&^^]]!!~~~~~~~~~~~                                               ",
"                                               ~~~~~~~{{{))]]^^&^^]]!!~~~~~~~~~~~                                               ",
"                                               ;;;//&&~~~~~]]~~~~~]]~~~~~&&((&&&&                                               ",
"                                               ;;;//&&~~~~~]]~~~~~]]~~~~~&&((&&&&                                               ",
"                                          *****>&&((//~~~~~]]~~~~~]]~~~~~((//&&>>;;;;                                           ",
"                                          ,,,,,&>>;;((//~~~]]~~~~~]]~~~~(//**>>&&''''                                           ",
"                                          ,,,,,&>>;;((//~~~]]~~~~~]]~~~~(//**>>&&''''                                           ",
"                                          *****>;;  __((/]]::]]]]]::]]((/<<  **>>;;;;                                           ",
"                                          *****>;;  __((/]]::]]]]]::]]((/<<  **>>;;;;                                           ",
"                                          *****>;;  __((/]]::]]]]]::]]((/<<  **>>;;;;                                           ",
"                                          (((((;    __[[(//]]]]]]]]]((//[<<    ;;////                                           ",
"                                          (((((;    __[[(//]]]]]]]]]((//[<<    ;;////                                           ",
"                                                    __[[~((//}}}}}((//~~[<<                                                     ",
"                                                    __[[~((//}}}}}((//~~[<<                                                     ",
"                                               |||||__11]]]223333344]]55[<<||||||                                               ",
"                                          6666677777__11]88~~~~~~~~~{{55[<<777777||||                                           ",
"                                          6666677777__11]88~~~~~~~~~{{55[<<777777||||                                           ",
"                                          666667777711]]]88~~~~~~~~~{{]]5<<777777||||                                           ",
"                                          666667777711]]]88~~~~~~~~~{{]]5<<777777||||                                           ",
"                                          666667777711]]]2233[[[[[3344]]5<<777777||||                                           ",
"                                          666667777711]]]2233[[[[[3344]]5<<777777||||                                           ",
"                                          666667777711]]]2233[[[[[3344]]5<<777777||||                                           ",
"                                          666667777711]]]88[[[[[[[[[{{]]5<<777777||||                                           ",
"                                          666667777711]]]88[[[[[[[[[{{]]5<<777777||||                                           ",
"                                          999996666611]]]88999999999{{]]5996666669999                                           ",
"                                               90000aaaaa889999|9999{{]]]559999999999                                           ",
"                                               90000aaaaa889999|9999{{]]]559999999999                                           ",
"                                                bbccccccc8899667||99{{]]]55999999                                               ",
"                                                bbccccccc8899667||99{{]]]55999999                                               ",
"                                                  ))^^^^^8899667||99{{]]]55999999                                               ",
"                                                  ))^^^^^8899667||99{{]]]55999999                                               ",
"                                                    9999988^^667||^^{{]]]559999                                                 ",
"                                                    9999988^^667||^^{{]]]559999                                                 ",
"                                                    9999988^^667||^^{{aaaaa0000                                                 ",
"                                                  99999998899667||99{{cccccccdd                                                 ",
"                                                  99999998899667||99{{cccccccdd                                                 ",
"                                                9999999999999667||9999^^^^^!!                                                   ",
"                                                9999999999999667||9999^^^^^!!                                                   ",
"                                                  99999999999667||9999999                                                       ",
"                                                  99999999999667||9999999                                                       "};
