/* XPM */
static char * FL_RedCarpet_xpm[] = {
"128 128 33 1",
" 	c #800017",
".	c #600011",
"+	c #000000",
"@	c #300E00",
"#	c #BF3600",
"$	c #601B00",
"%	c #8F2900",
"&	c #200006",
"*	c #680013",
"=	c #100003",
"-	c #780016",
";	c #300009",
">	c #38000A",
",	c #50000E",
"'	c #080001",
")	c #580010",
"!	c #700014",
"~	c #40000C",
"{	c #A72F00",
"]	c #832500",
"^	c #180700",
"/	c #B33300",
"(	c #0C0300",
"_	c #772200",
":	c #541800",
"<	c #9B2C00",
"[	c #240A00",
"}	c #481400",
"|	c #6B1E00",
"1	c #3C1100",
"2	c #180004",
"3	c #48000D",
"4	c #280007",
"      .+++++@#####$+++++%####%+++++&             .+++++$#####@++++@#####$+++++.             &+++++%####%+++++$#####@+++++.      ",
"      .+++++@#####$+++++%####%+++++&             .+++++$#####@++++@#####$+++++.             &+++++%####%+++++$#####@+++++.      ",
"      .+++++@#####$+++++%####%+++++&             .+++++$#####@++++@#####$+++++.             &+++++%####%+++++$#####@+++++.      ",
"      .+++++@#####$+++++%####%+++++&             .+++++$#####@++++@#####$+++++.             &+++++%####%+++++$#####@+++++.      ",
"     *&+++++@#####$+++++%####%+++++=*           -;+++++$#####@++++@#####$+++++;-           *=+++++%####%+++++$#####@+++++&*     ",
"   ->+++++++@#####$+++++%####%+++++++>-        ,'++++++$#####@++++@#####$++++++',        ->+++++++%####%+++++$#####@+++++++>-   ",
"  )'++++++++@#####$+++++%####%++++++++')     !&++++++++$#####@++++@#####$++++++++&!     )'++++++++%####%+++++$#####@++++++++')  ",
"!&++++++++++@#####$+++++%####%++++++++++&! -~++++++++++$#####@++++@#####$++++++++++~- !&++++++++++%####%+++++$#####@++++++++++&!",
"+++++++++++@{#####$+++++%#####]^++++++++++>=++++++++++$/#####@++++@#####/$++++++++++=>++++++++++^]#####%+++++$#####{@+++++++++++",
"+++++++++(_#######$+++++%######/:+++++++++++++++++++@<#######@++++@#######<@+++++++++++++++++++:/######%+++++$#######_(+++++++++",
"++++++++:/########$+++++%########<@+++++++++++++++(_#########@++++@#########_(+++++++++++++++@<########%+++++$########/:++++++++",
"++++++[<#########{[+++++}/#########_(++++++++++++:/#########](++++(]#########/:++++++++++++(_#########/}+++++[{#########<[++++++",
"++++(|#########/$++++++++^]#########/}+++++++++[%#########{@++++++++@{#########%[+++++++++}/#########]^++++++++$/#########|(++++",
"+++}/#########]^+++++++++++@{#########%[+++++(|#########/$++++++++++++$/#########|(+++++[%#########{@+++++++++++^]#########/}+++",
"++@#########{1+++++++++++++++$#########%+++++$#########%^++++++++++++++^%#########$+++++%#########$+++++++++++++++1{#########@++",
"++@########$(+++++++++++++++++^%#######%+++++$#######{1++++++++++++++++++1{#######$+++++%#######%^+++++++++++++++++($########@++",
"++@######%^+++++++++++++++++++++1{#####%+++++$######$(++++++++++++++++++++($######$+++++%#####/1+++++++++++++++++++++^%######@++",
"++@#####_+++++++++++;.2++++++++++(<####%+++++$#####1++++++++++'33'++++++++++1#####$+++++%####<(++++++++++2.;+++++++++++_#####@++",
"++@#####$+++++++++2.   3'+++++++++%####%+++++$#####@+++++++++;-  -;+++++++++@#####$+++++%####%+++++++++'3   .2+++++++++$#####@++",
"++@#####$+++++++'3      -4++++++++%####%+++++$#####@+++++++2.      .2+++++++@#####$+++++%####%++++++++4-      3'+++++++$#####@++",
"++@#####$++++++4!         .=++++++%####%+++++$#####@+++++'~          ~'+++++@#####$+++++%####%++++++=.         !4++++++$#####@++",
"++@#####$+++++>             ++++++%####%+++++$#####@+++++)            )+++++@#####$+++++%####%++++++             >+++++$#####@++",
"++@#####$+++++~             ++++++%####%+++++$#####@+++++.            .+++++@#####$+++++%####%++++++             ~+++++$#####@++",
"++@#####$+++++~             ++++++%####%+++++$#####@+++++.            .+++++@#####$+++++%####%++++++             ~+++++$#####@++",
"++@#####$+++++~             ++++++%####%+++++$#####@+++++.            .+++++@#####$+++++%####%++++++             ~+++++$#####@++",
"++@#####$+++++~             ++++++%####%+++++$#####@+++++.            .+++++@#####$+++++%####%++++++             ~+++++$#####@++",
"++@#####$+++++~             ++++++%####%+++++$#####@+++++.            .+++++@#####$+++++%####%++++++             ~+++++$#####@++",
"++@#####$+++++~             ++++++%####%+++++$#####@+++++.            .+++++@#####$+++++%####%++++++             ~+++++$#####@++",
"++@#####$+++++~             ++++++%####%+++++$#####@+++++.            .+++++@#####$+++++%####%++++++             ~+++++$#####@++",
"++@#####$+++++2!           )++++++%####%+++++$#####@+++++>-          ->+++++@#####$+++++%####%++++++)           !2+++++$#####@++",
"++@#####$++++++'~        !4+++++++%####%+++++$#####@++++++=.        .=++++++@#####$+++++%####%+++++++4!        ~'++++++$#####@++",
"++@#####$++++++++=.     ~'++++++++%####%+++++$#####@++++++++4!    !4++++++++@#####$+++++%####%++++++++'~     .=++++++++$#####@++",
"++@#####$++++++++++4- .=++++++++++%####%+++++$#####@+++++++++'~  ~'+++++++++@#####$+++++%####%++++++++++=. -4++++++++++$#####@++",
"++@#####<[++++++++++'4+++++++++++}/####%+++++$#####_(++++++++++22++++++++++(_#####$+++++%####/}+++++++++++4'++++++++++[<#####@++",
"++@#######|(+++++++++++++++++++[%######%+++++$######/}++++++++++++++++++++}/######$+++++%######%[+++++++++++++++++++(|#######@++",
"++@########/1++++++++++++++++(|########%+++++$########%^++++++++++++++++^%########$+++++%########|(++++++++++++++++1/########@++",
"++@##########%^+++++++++++++1{#########<+++++$##########$(++++++++++++($##########$+++++<#########{1+++++++++++++^%##########@++",
"+++1{##########$(+++++++++^%##########%^+++++($##########{1++++++++++1{##########$(+++++^%##########%^+++++++++($##########{1+++",
"++++(|##########{@+++++++$##########/1+++++++++[%##########]^++++++^]##########%[+++++++++1/#########/$+++++++@{##########|(++++",
"++++++[%##########]^+++@{##########|(++++++++++++}/#########/$++++$/#########/}++++++++++++(|##########{@+++^]##########%[++++++",
"++++++++}/#########/$^]##########<[+++++++++++++++(|##########{@@{##########|(+++++++++++++++[<##########](:/#########/}++++++++",
"@++++++++(_####################/:+++++++++:(++++++++@<####################<@++++++++(:+++++++++:/####################_(++++++++@",
"#_(++++++++@<#################_(++++++++@<#/:+++++++++:/################/:+++++++++:/#<@++++++++(_#################<@++++++++(_#",
"##/:+++++++++$/#############{@++++++++(_#####<@++++++++(]##############](++++++++@<#####_(++++++++@{#############/$+++++++++:/##",
"####%[++++++++^]##########/$+++++++++:/########|(++++++++@{##########{@++++++++(|########/}+++++++++$/##########]^++++++++[<####",
"######|(++++++++@{#######]^++++++++[%###########/}+++++++++$########$+++++++++}/###########%[++++++++^]#######{@++++++++(|######",
"#######/1++++++++($####{1++++++++(|###############%^++++++++^%####%^++++++++[%###############|(++++++++1{####$(++++++++}/#######",
"#########%^++++++++^%#$(++++++++1/##################$(++++++++1{{1++++++++($##################{1++++++++($#%^++++++++^%#########",
"$##########$(++++++++(++++++++^%#########{}%#########{1++++++++((++++++++1{#########%}{#########%^++++++++(++++++++($##########$",
"+^%#########{@+++++++++++++++$##########|(++1/#########]^++++++++++++++^%#########/1++(|##########$+++++++++++++++@{#########%^+",
"+++}/#########]^+++++++++++@{#########%[+++++(|#########/$++++++++++++$/#########|(+++++[%#########{@+++++++++++^]#########/}+++",
"++++(|#########/:++++++++^]#########/}+++++++++[%#########{@++++++++@{#########%[+++++++++}/#########](++++++++$/#########|(++++",
"++++++[<#########<[+++++}/#########_(++++++++++++:/#########_(++++(]#########/:++++++++++++(_#########/}+++++[<#########<[++++++",
"++++++++:/########$+++++%########<@+++++++++++++++(_#########@++++@#########_(+++++++++++++++@<########%+++++$########/:++++++++",
"+++++++++(_#######$+++++%######/:+++++++++++++++++++@<#######@++++@#######<@+++++++++++++++++++:/######%+++++$#######_(+++++++++",
"+++++++++++@{#####$+++++%#####]^++++++++++>=++++++++++$/#####@++++@#####/$++++++++++=>++++++++++^]#####%+++++$#####{@+++++++++++",
"!&++++++++++@#####$+++++%####%++++++++++&! -~++++++++++$#####@++++@#####$++++++++++~- !&++++++++++%####%+++++$#####@++++++++++&!",
"  )'++++++++@#####$+++++%####%++++++++')     !&++++++++$#####@++++@#####$++++++++&!     )'++++++++%####%+++++$#####@++++++++')  ",
"   ->+++++++@#####$+++++%####%+++++++>-        ,'++++++$#####@++++@#####$++++++',        ->+++++++%####%+++++$#####@+++++++>-   ",
"     *&+++++@#####$+++++%####%+++++=*           -;+++++$#####@++++@#####$+++++;-           *=+++++%####%+++++$#####@+++++&*     ",
"      .+++++@#####$+++++%####%+++++&             .+++++$#####@++++@#####$+++++.             &+++++%####%+++++$#####@+++++.      ",
"      .+++++@#####$+++++%####%+++++&             .+++++$#####@++++@#####$+++++.             &+++++%####%+++++$#####@+++++.      ",
"      .+++++@#####$+++++%####%+++++&             .+++++$#####@++++@#####$+++++.             &+++++%####%+++++$#####@+++++.      ",
"      .+++++@#####$+++++%####%+++++&             .+++++$#####@++++@#####$+++++.             &+++++%####%+++++$#####@+++++.      ",
"      .+++++@#####$+++++%####%+++++&             .+++++$#####@++++@#####$+++++.             &+++++%####%+++++$#####@+++++.      ",
"      .+++++@#####$+++++%####%+++++&             .+++++$#####@++++@#####$+++++.             &+++++%####%+++++$#####@+++++.      ",
"      .+++++@#####$+++++%####%+++++&             .+++++$#####@++++@#####$+++++.             &+++++%####%+++++$#####@+++++.      ",
"      .+++++@#####$+++++%####%+++++&             .+++++$#####@++++@#####$+++++.             &+++++%####%+++++$#####@+++++.      ",
"     *&+++++@#####$+++++%####%+++++=*           -;+++++$#####@++++@#####$+++++;-           *=+++++%####%+++++$#####@+++++&*     ",
"   ->+++++++@#####$+++++%####%+++++++>-        ,'++++++$#####@++++@#####$++++++',        ->+++++++%####%+++++$#####@+++++++>-   ",
"  )'++++++++@#####$+++++%####%++++++++')     *&++++++++$#####@++++@#####$++++++++&*     )'++++++++%####%+++++$#####@++++++++')  ",
"!&++++++++++@#####$+++++%####%++++++++++&! -~++++++++++$#####@++++@#####$++++++++++~- !&++++++++++%####%+++++$#####@++++++++++&!",
"+++++++++++@{#####$+++++%#####]^++++++++++>=++++++++++$/#####@++++@#####/$++++++++++=>++++++++++^]#####%+++++$#####{@+++++++++++",
"+++++++++(_#######$+++++%######/:+++++++++++++++++++@<#######@++++@#######<@+++++++++++++++++++:/######%+++++$#######_(+++++++++",
"++++++++:/########$+++++%########<@+++++++++++++++(_#########@++++@#########_(+++++++++++++++@<########%+++++$########/:++++++++",
"++++++[<#########<[+++++}/#########_(++++++++++++:/#########](++++(]#########/:++++++++++++(_#########/}+++++[<#########<[++++++",
"++++(|#########/$++++++++^]#########/}+++++++++[%#########{@++++++++@{#########%[+++++++++}/#########]^++++++++$/#########|(++++",
"+++}/#########]^+++++++++++@{#########%[+++++(|#########/$++++++++++++$/#########|(+++++[%#########{@+++++++++++^]#########/}+++",
"++@#########{@+++++++++++++++$#########%+++++$#########%^++++++++++++++^%#########$+++++%#########$+++++++++++++++1{#########@++",
"++@########$(+++++++++++++++++^%#######%+++++$#######{1++++++++++++++++++1{#######$+++++%#######%^+++++++++++++++++($########@++",
"++@######%^++++++++++2++++++++++1{#####%+++++$######$(+++++++++''+++++++++($######$+++++%#####{1++++++++++2++++++++++^%######@++",
"++@#####_++++++++++2. 3'+++++++++(<####%+++++$#####1++++++++++;--;++++++++++1#####$+++++%####<(+++++++++'3 .2++++++++++_#####@++",
"++@#####$++++++++'3    -;+++++++++%####%+++++$#####@++++++++2.    .2++++++++@#####$+++++%####%+++++++++;-    3'++++++++$#####@++",
"++@#####$+++++++4-       .=+++++++%####%+++++$#####@++++++'3        3'++++++@#####$+++++%####%+++++++=.       -4+++++++$#####@++",
"++@#####$+++++=.           ~'+++++%####%+++++$#####@+++++4!          !4+++++@#####$+++++%####%+++++'~           .=+++++$#####@++",
"++@#####$+++++.             &+++++%####%+++++$#####@+++++              +++++@#####$+++++%####%+++++&             .+++++$#####@++",
"++@#####$+++++.             &+++++%####%+++++$#####@+++++              +++++@#####$+++++%####%+++++&             .+++++$#####@++",
"++@#####$+++++.             &+++++%####%+++++$#####@+++++              +++++@#####$+++++%####%+++++&             .+++++$#####@++",
"++@#####$+++++.             &+++++%####%+++++$#####@+++++              +++++@#####$+++++%####%+++++&             .+++++$#####@++",
"++@#####$+++++.             &+++++%####%+++++$#####@+++++              +++++@#####$+++++%####%+++++&             .+++++$#####@++",
"++@#####$+++++.             &+++++%####%+++++$#####@+++++              +++++@#####$+++++%####%+++++&             .+++++$#####@++",
"++@#####$+++++.             &+++++%####%+++++$#####@+++++              +++++@#####$+++++%####%+++++&             .+++++$#####@++",
"++@#####$+++++.             &+++++%####%+++++$#####@+++++              +++++@#####$+++++%####%+++++&             .+++++$#####@++",
"++@#####$+++++3            -2+++++%####%+++++$#####@+++++!            !+++++@#####$+++++%####%+++++2-            3+++++$#####@++",
"++@#####$++++++&!         .=++++++%####%+++++$#####@++++++~          ~++++++@#####$+++++%####%++++++=.         !4++++++$#####@++",
"++@#####$+++++++'~      !4++++++++%####%+++++$#####@+++++++=.      .=+++++++@#####$+++++%####%++++++++4!      ~'+++++++$#####@++",
"++@#####$+++++++++=.   ~'+++++++++%####%+++++$#####@+++++++++4!  !4+++++++++@#####$+++++%####%+++++++++'~   .=+++++++++$#####@++",
"++@#####<[++++++++++;)2++++++++++}/####%+++++$#####_(+++++++++'33'+++++++++(_#####$+++++%####/}++++++++++2);++++++++++[<#####@++",
"++@#######|(+++++++++++++++++++[%######%+++++$######/}++++++++++++++++++++}/######$+++++%######%[+++++++++++++++++++(|#######@++",
"++@########/1++++++++++++++++(|########%+++++$########%^++++++++++++++++^%########$+++++%########|(++++++++++++++++1/########@++",
"++^{#########%^+++++++++++++1{#########_+++++1##########$(++++++++++++($##########1+++++_#########{1+++++++++++++^%#########{^++",
"+++($##########$(+++++++++^%#########{1+++++++^%#########{1++++++++++1{#########%^+++++++1{#########%^+++++++++($##########$(+++",
"+++++[%#########{@+++++++$##########|(++++++++++}/#########]^++++++^]#########/}++++++++++(|#########/$+++++++@{#########%[+++++",
"+++++++}/#########]^+++@{#########%[+++++++++++++(|#########/$++++$/#########|(+++++++++++++[%#########{@+++^]#########/}+++++++",
"++++++++(|#########/$(]#########/:+++++++++++++++++[<#########{@@{#########<[+++++++++++++++++:/#########]($/#########|(++++++++",
"@+++++++++@<###################_(+++++++++:(+++++++++:/##################/:+++++++++(:+++++++++(_###################<@+++++++++@",
"#_(+++++++++:/###############<@+++++++++@<#/:+++++++++(_################_(+++++++++:/#<@+++++++++@<###############/:+++++++++(_#",
"##/:+++++++++^]############/$+++++++++(_#####<@+++++++++@{############{@+++++++++@<#####_(+++++++++$/############]^+++++++++:/##",
"####%[+++++++++@{#########]^+++++++++}/########|(+++++++++$/########/$+++++++++(|########/}+++++++++^]#########{@+++++++++[<####",
"######|(+++++++++$######{@+++++++++[%###########/}+++++++++^%######%^+++++++++}/###########%[+++++++++@{######$+++++++++(|######",
"#######/1+++++++++^%###$(++++++++(|###############%[+++++++++1{##{1+++++++++[%###############|(++++++++($###%^+++++++++}/#######",
"#########%^+++++++++1]^+++++++++1{##################$(++++++++($$(++++++++($##################{1+++++++++^]1+++++++++^%#########",
"$##########$(+++++++++++++++++^%#########{}%#########{1++++++++++++++++++1{#########%}{#########%^+++++++++++++++++($##########$",
"+[%#########{@+++++++++++++++$##########|(++1/#########]^++++++++++++++^]#########/1++(|##########$+++++++++++++++@{#########%[+",
"+++}/#########]^+++++++++++@{#########%[+++++(|#########/$++++++++++++$/#########|(+++++[%#########{@+++++++++++^]#########/}+++",
"++++(|#########/:++++++++(]#########/}+++++++++[%#########{@++++++++@{#########%[+++++++++}/#########](++++++++$/#########|(++++",
"++++++@<#########<[+++++}/#########_(++++++++++++:/#########_(++++(_#########/:++++++++++++(_#########/}+++++[<#########<@++++++",
"++++++++:/########$+++++%########<@+++++++++++++++(_#########@++++@#########_(+++++++++++++++@<########%+++++$########/:++++++++",
"+++++++++(]#######$+++++%######/$+++++++++++++++++++@{#######@++++@#######{@+++++++++++++++++++$/######%+++++$#######](+++++++++",
"+++++++++++@{#####$+++++%#####]^++++++++++>=++++++++++$/#####@++++@#####/$++++++++++=>++++++++++^]#####%+++++$#####{@++++++++++&",
"!&++++++++++@#####$+++++%####%++++++++++&! -~++++++++++$#####@++++@#####$++++++++++~- !&++++++++++%####%+++++$#####@+++++++++=) ",
"  )'++++++++@#####$+++++%####%++++++++')     *&++++++++$#####@++++@#####$++++++++&*     )'++++++++%####%+++++$#####@++++++++>-  ",
"   ->+++++++@#####$+++++%####%+++++++>-        ,'++++++$#####@++++@#####$++++++',        ->+++++++%####%+++++$#####@++++++&*    ",
"     *2+++++@#####$+++++%####%+++++=*           -;+++++$#####@++++@#####$+++++;-           *=+++++%####%+++++$#####@+++++3      ",
"      .+++++@#####$+++++%####%+++++&             .+++++$#####@++++@#####$+++++.             &+++++%####%+++++$#####@+++++       ",
"      .+++++@#####$+++++%####%+++++&             .+++++$#####@++++@#####$+++++.             &+++++%####%+++++$#####@+++++       ",
"      .+++++@#####$+++++%####%+++++&             .+++++$#####@++++@#####$+++++.             &+++++%####%+++++$#####@+++++       ",
"      .+++++@#####$+++++%####%+++++&             .+++++$#####@++++@#####$+++++.             &+++++%####%+++++$#####@+++++       "};
