/* XPM */
static char * C_237_xpm[] = {
"128 128 15 1",
" 	c #E8E8D4",
".	c #EAEAD6",
"+	c #E9E9D5",
"@	c #FFFFE9",
"#	c #EFEFDA",
"$	c #EEEEDA",
"%	c #F5F5E0",
"&	c #F3F3DE",
"*	c #F8F8E3",
"=	c #F1F1DC",
"-	c #F0F0DB",
";	c #F2F2DD",
">	c #EDEDD9",
",	c #ECECD7",
"'	c #F9F9E3",
"                                                                                                                                ",
"                                                                                                                                ",
"                                                                                                                                ",
"                                                                                                                                ",
"         .+            .+             .+             .+            .+             .+            .+             .+             .+",
"        .@#           .@#            .@#            .@#           .@#            .@#           .@#            .@#            .@#",
"        +#$           +#$            +#$            +#$           +#$            +#$           +#$            +#$            +#$",
"                                                                                                                                ",
"                                                                                                                                ",
"                                                                                                                                ",
"                                                                                                                                ",
" .+             .+             .+            .+             .+             +             .+             .+            .+        ",
".@#            .@#            .@#           .@#            .@#            .%            .@#            .@#           .@#        ",
"+#$            +#$            +#$           +#$            +#$            +$            +#$            +#$           +#$        ",
"                                                                                                                                ",
"                                                                                                                                ",
"                                                                                                                                ",
"                                                                                                                                ",
"         .+            .+             .+             .+            .+             .+            .+             .+             .+",
"        .@#           .@#            .@#            .@#           .@#            .@#           .@%            .@#            .@#",
"        .@&           .@&            .@&            .@&           .@&            .@&           .@*            .@&            .@&",
"        +#=           +##            +#=            +##           +##            +#=           +#=            +#-            +#=",
"                                                                                                                                ",
"                                                                                                                                ",
"                                                                                                                                ",
"                                                                                                                                ",
" .+             .+             .+            .+             .+            ..+            .+             .+            .+        ",
".@%            .@#            .@#           .@#            .@#           .@@#           .@#            .@#           .@%        ",
"+#=            +#$            +#$           +#$            +#$           +;;$           +#$            +#$           +#=        ",
"                                                                                                                                ",
"                                                                                                                                ",
"                                                                                                                                ",
"                                                                                                                                ",
"         .+            .+             .+            ..+            .+             .+            ..+            .+             .+",
"        .@#           .@#            .@#           .@@#           .@#            .@#           .@@#           .@#            .@#",
"        +#$           +#$            +#$           +%#$           +#$            +#$           +#%#           +#$            +#$",
"                                                                                                                                ",
"                                                                                                                                ",
"                                                                                                                                ",
"                                                                                                                                ",
" ..+            .+            +.+            .+             .+            ..+            .+             .+            ..+       ",
".@@#           .@#            >@#           .@#            .@#           .@@#           .@#            .@#           .@@#       ",
".@@&           .@&            >@&           .@&            .@&           .@@&           .@&            .@&           .@@&       ",
"+#&#           +#=            ,#=           +##            +#=           +;=#           +#-            +#=           +#&#       ",
"                                                                                                                                ",
"                                                                                                                                ",
"                                                                                                                                ",
"                                                                                                                                ",
"         .+            .+             .+            ..+            .+             .+            ..+            .+             .+",
"        >@#           .@%            .@#           .@@#           .@#            .@#           .@@#           .@#            >@#",
"        ,#$           +#=            +#$           +%#$           +#$            +#$           +#%#           +#$            ,#$",
"                                                                                                                                ",
"                                                                                                                                ",
"                                                                                                                                ",
"                                                                                                                                ",
" ..+            .+            ..+            .+             .+            ..+            .+             .+            ..+       ",
".@@#           .@#           .@@#           .@%            .@#           .@@#           .@#            .@#           .@@#       ",
"+#%#           +#$           +%#$           +#=            +#$           +;;$           +#$            +#$           +#%#       ",
"                                                                                                                                ",
"                                                                                                                                ",
"                                                                                                                                ",
"                                                                                                                                ",
"        ..+            ..+            .+            ..+            .+             .+            ..+            .+            ..+",
"       .@@#           .@@#           .@#           .@@#           .@#            .@#           .@@#           .@#           .@@#",
"       .@@&           .@@&           .@&           .@@&           .@&            .@&           .@@&           .@&           .@@&",
"       +%#=           +#&#           +#=           +%#=           +##            +#=           +#&#           +#=           +%#=",
"                                                                                                                                ",
"                                                                                                                                ",
"                                                                                                                                ",
" ..+            .+           +..+            ..+            .+            ..+            .+            +.+            ..+       ",
".@@%           .@%           .@@%           .@@%           .@%           .@@%           .@%            >@%           .@@%       ",
".@@#           .@#           .@@#           .@@#           .@#           .@@#           .@#            >@#           .@@#       ",
"+#%#           +#$           +%#$           +#%#           +#$           +;;$           +#$            ,#$           +#%#       ",
"                                                                                                                                ",
"                                                                                                                                ",
"                                                                                                                                ",
"                                                                                                                                ",
"        ..+            ..+            .+            ..+            ..+            .+            ..+            .+            ..+",
"       .@@#           .@@#           .@#           .@@#           .@@#           >@#           .@@#           .@#           .@@#",
"       +%#$           +#%#           +#$           +%#$           +#%-           ,#$           +#%#           +#$           +%#$",
"                                                                                                                                ",
"                                                                                                                                ",
"                                                                                                                                ",
"                                                                                                                                ",
" ..+            .+            ..+            ..+            .+            ..+            ...           ..+            ..+       ",
".@@#           .@#           .@@#           .@@#           >@#           .@@#           .@@#          .@@#           .@@#       ",
".@@&           .@&           .@@&           .@@&           >@&           .@@&           .@@&          .@@&           .@@&       ",
"+#&#           +#=           +%#=           +#&#           ,#=           +;==           +#%=          +%#=           +#&#       ",
"                                                                                                                                ",
"                                                                                                                                ",
"                                                                                                                                ",
"       +..+            ..+            .+           +..+            ..+          +..+            ..+            .+           +..+",
"       .@@%           .@@%           .@%           .@@%           .@@%          .@@%           .@@%           .@%           .@@%",
"       .@@#           .@@#           .@#           .@@#           .@@#          .@@#           .@@#           .@#           .@@#",
"       .%#$           +#%#           +#$           +%#$           +#%-          .%#$           +#%#           +#$           .%#$",
"                                                                                                                                ",
"                                                                                                                                ",
"                                                                                                                                ",
"+...           +..           +...           +..+          +...           +...           +...          +...           +...       ",
".@@%           .@%           .@@%           .@@%          .@@%           .@@%           .@@%          .@@%           .@@%       ",
".@@#           .@#           .@@#           .@@#          .@@#           .@@#           .@@#          .@@#           .@@#       ",
"+#%#           +#$           +%#$           +#%-          .%#$           +;;$           +#%-          .%#$           +#%#       ",
"                                                                                                                                ",
"                                                                                                                                ",
"                                                                                                                                ",
"                                                                                                                                ",
"        ..+            ..+          +..+            ..+            ...          +..+            ..+            ...           ..+",
"       .@@#           .@@#          .@@#           .@@#           .@@#          .@@#           .@@#           .@@#          .@@#",
"       .@@&           .@@&          .@@&           .@@&           .@@&          .@@&           .@@&           .@@&          .@@&",
"       .%#;           .#&=          .%#;           .%#;           .#%;          .%#;           .#&;           .#%;          .%#;",
"                                                                                                                                ",
"                                                                                                                                ",
"                                                                                                                                ",
" ...            .+            ..+            ...          +..+            ..+            ...          +..+            ...       ",
".@@#           .@%           .@@#           .@@#          .@@#           .@@#           .@@#          .@@#           .@@#       ",
".@@&           .@*           .@@&           .@@&          .@@&           .@@&           .@@&          .@@&           .@@&       ",
".#%=           +#&           +%#=           .#%;          .%#=           .;;=           +#%;          .%#=           .#%=       ",
"                                                                                                                                ",
"                                                                                                                                ",
"                                                                                                                                ",
"       +...           +..+          +...           +...           +...          +...           +...           +...          +...",
"       .@@%           .@@%          .@@'           .@@%           .@@%          .@@%           .@@%           .@@%          .@@%",
"       .@@#           .@@#          .@@%           .@@#           .@@#          .@@#           .@@#           .@@#          .@@#",
"       .%#$           +#%-          .%#=           +%#$           +#%-          .%#$           +#%#           +#%-          .%#$",
"                                                                                                                                ",
"                                                                                                                                ",
"                                                                                                                                ",
"                                                                                                                                "};
